<svg width="93" height="93" viewBox="0 0 93 93" fill="none" xmlns="http://www.w3.org/2000/svg">
<path d="M46.39 0C20.7734 0 0 20.7734 0 46.39C0 72.0066 20.7734 92.78 46.39 92.78C72.0066 92.78 92.78 72.0066 92.78 46.39C92.7586 20.7841 71.9959 0.0320742 46.39 0ZM46.39 90.0965C22.2488 90.0965 2.68354 70.5312 2.68354 46.39C2.68354 22.2488 22.2488 2.68354 46.39 2.68354C70.5312 2.68354 90.0965 22.2488 90.0965 46.39C90.0965 70.5312 70.5312 90.0965 46.39 90.0965Z" fill="#6B7072"/>
<path d="M12.2315 30.8233C12.4881 30.9623 12.7661 31.0371 13.0547 31.0371H13.0868C13.8245 31.0371 14.466 30.5988 14.744 29.9252L14.7867 29.8076C14.7867 29.8076 14.7974 29.7969 14.8081 29.7755C14.8402 29.7221 14.8723 29.6793 14.9043 29.6152C15.3748 28.7492 15.054 27.6479 14.1666 27.1668C13.3006 26.7071 12.2101 27.0278 11.7397 27.8938L11.4831 28.3856C11.0234 29.2623 11.3655 30.3529 12.2315 30.8126V30.8233Z" fill="#00A3E4"/>
<path d="M21.6398 72.2311L21.3405 72.0066H21.2656C20.9556 71.7607 20.5707 71.6217 20.1644 71.6217C19.6833 71.6217 19.2343 71.8035 18.8922 72.1456C18.1865 72.8405 18.1865 73.9845 18.9028 74.7115L19.2984 75.0857C19.6299 75.4065 20.0789 75.5882 20.5386 75.5882C21.0197 75.5882 21.5009 75.3851 21.8216 75.043C22.5165 74.348 22.5165 73.204 21.8857 72.5839L21.6505 72.2311H21.6398Z" fill="#00A3E4"/>
<path d="M13.2366 59.7864L13.0441 59.2946C12.7768 58.5996 12.114 58.1506 11.3763 58.1399C11.1624 58.1399 10.9272 58.1827 10.7241 58.2682C9.79394 58.621 9.33421 59.6581 9.69772 60.6203C9.75118 60.7379 9.80463 60.8662 9.8474 60.9945L9.89017 61.1121C10.1681 61.7964 10.8203 62.2454 11.5794 62.2454C11.7932 62.2454 12.0071 62.2026 12.2316 62.1171C13.151 61.7536 13.6001 60.7058 13.2366 59.7864Z" fill="#00A3E4"/>
<path d="M11.1407 52.313L11.0658 51.8105C10.9375 50.9338 10.1784 50.2709 9.26967 50.2816H9.00238C8.02946 50.4313 7.3666 51.3294 7.4842 52.2916C7.4842 52.4841 7.4842 52.7086 7.59112 52.9545C7.76218 53.7991 8.48919 54.3978 9.34451 54.3978H9.67594C10.6489 54.2161 11.301 53.2859 11.13 52.313H11.1407Z" fill="#00A3E4"/>
<path d="M24.7834 18.1218L24.9224 18.0149C25.7136 17.4162 25.8632 16.2829 25.2752 15.5238C24.9545 15.0534 24.4199 14.754 23.8533 14.7327H23.8426C23.4149 14.7327 23.0621 14.861 22.7414 15.0962L22.2923 15.4383C21.5225 16.0477 21.3835 17.181 21.9823 17.9508C22.3244 18.3891 22.8483 18.6457 23.4042 18.6564C23.7998 18.6564 24.1847 18.5174 24.5054 18.2715L24.6979 18.1218H24.7834Z" fill="#00A3E4"/>
<path d="M16.5191 66.0621C16.1877 65.5596 15.6317 65.2602 15.033 65.2495C14.6695 65.2495 14.3274 65.3564 14.0387 65.5596C13.2261 66.1048 13.0016 67.174 13.5255 68.0186L13.8355 68.489C14.167 68.9808 14.7229 69.2802 15.3217 69.2802C16.316 69.2802 17.1178 68.4783 17.1178 67.484C17.1178 67.1205 17.0109 66.7784 16.7971 66.4683L16.5084 66.0728L16.5191 66.0621Z" fill="#00A3E4"/>
<path d="M19.3835 23.1468V23.0613C19.8967 22.3129 19.7684 21.2865 19.0628 20.6878C18.742 20.4098 18.3251 20.2601 17.8974 20.2601C17.4056 20.2601 16.8817 20.474 16.5182 20.8802L16.1761 21.2972C15.866 21.6607 15.7164 22.1311 15.7591 22.6122C15.8019 23.0934 16.0264 23.521 16.3899 23.8418C16.7107 24.109 17.1169 24.2587 17.5339 24.2587C17.5874 24.2587 17.6408 24.2587 17.705 24.2587C18.1433 24.216 18.5496 24.0235 18.8489 23.7028L19.3728 23.1682L19.3835 23.1468Z" fill="#00A3E4"/>
<path d="M63.5288 14.893C64.5124 14.893 65.3249 14.0912 65.3249 13.1075C65.3249 12.4233 64.9507 11.8139 64.3413 11.4931L63.8602 11.2579C63.6036 11.1189 63.3042 11.0548 63.0476 11.0548C62.5665 11.0334 62.1068 11.2152 61.7647 11.5466C61.4119 11.878 61.2194 12.3271 61.198 12.7975C61.1766 13.5352 61.6043 14.1981 62.2779 14.4974L62.7055 14.7006C62.9621 14.8182 63.2294 14.8823 63.5181 14.893H63.5288Z" fill="#00A3E4"/>
<path d="M55.8946 12.0169C55.9588 12.0169 56.0122 12.0169 56.0443 12.0063C56.921 12.0597 57.6266 11.4824 57.8405 10.6591C58.0864 9.7076 57.5304 8.724 56.5254 8.45671L55.9802 8.37118C55.5204 8.25357 55.0286 8.32841 54.6224 8.57432C54.2054 8.82022 53.9167 9.2158 53.7991 9.67553C53.5532 10.6378 54.1412 11.6214 55.1035 11.8566L55.6487 11.9956C55.7343 12.0063 55.8305 12.0169 55.9053 12.0169H55.8946Z" fill="#00A3E4"/>
<path d="M80.9662 37.6551V38.1148C81.18 38.9273 81.9391 39.5047 82.6982 39.4726C82.7623 39.4726 82.8265 39.4833 82.8906 39.4833C82.9761 39.4833 83.0617 39.4833 83.1793 39.4619C84.088 39.2481 84.6761 38.3607 84.5264 37.3985C84.5264 37.206 84.4729 37.0349 84.4195 36.896C84.4088 36.8532 84.3874 36.8104 84.3767 36.757C84.1736 35.9444 83.4359 35.3778 82.6554 35.3885C82.5057 35.3671 82.356 35.3671 82.217 35.3885L82.1208 35.4099C81.2014 35.7199 80.6989 36.6928 80.9768 37.6444L80.9662 37.6551Z" fill="#00A3E4"/>
<path d="M8.82081 46.4327H9.01325L9.12017 46.3579C10.0182 46.2617 10.7239 45.4919 10.7239 44.4762V44.1982C10.788 43.2146 10.0289 42.3593 9.01325 42.2952H8.92772C7.97619 42.2952 7.18502 43.0329 7.13157 44.0165V44.551C7.07811 45.5347 7.8372 46.3793 8.82081 46.4434V46.4327Z" fill="#00A3E4"/>
<path d="M49.9076 8.99142C49.9076 7.99712 49.1058 7.19526 48.1115 7.19526H47.5555C47.331 7.16319 47.1706 7.22734 46.9889 7.29148C46.7964 7.21664 46.5826 7.18457 46.3795 7.18457H45.8235C44.8292 7.18457 44.0273 7.98643 44.0273 8.98073C44.0273 9.97503 44.8292 10.7769 45.8235 10.7769H46.3795C46.5719 10.7769 46.7643 10.7448 46.9461 10.6807C47.1279 10.7448 47.3203 10.7876 47.5234 10.7876H48.1115C49.1058 10.7876 49.9076 9.98572 49.9076 8.99142Z" fill="#00A3E4"/>
<path d="M9.67595 38.35L9.78287 38.3714H10.1571C10.1571 38.3714 10.1998 38.3714 10.2212 38.3714C11.0231 38.3714 11.7287 37.8368 11.9639 37.0136C11.9746 36.9494 11.9853 36.896 12.0067 36.8425C12.0388 36.7356 12.0708 36.6287 12.0815 36.5752C12.3702 35.6237 11.8356 34.6187 10.8841 34.3301L10.7558 34.298C10.5847 34.2659 10.403 34.2659 10.3281 34.298C9.50489 34.2552 8.75649 34.8005 8.53197 35.5916L8.51059 35.7306C8.51059 35.7306 8.47852 35.8482 8.45713 35.9017C8.42506 35.9872 8.39298 36.0834 8.38229 36.1476C8.1257 37.1098 8.70304 38.0934 9.65457 38.35H9.67595Z" fill="#00A3E4"/>
<path d="M39.9215 11.0869C40.2209 10.7127 40.3599 10.2423 40.3064 9.76117C40.1995 8.76687 39.3014 8.06123 38.3713 8.15746H38.104L37.5053 8.28575C36.511 8.40336 35.8054 9.30144 35.923 10.285C35.9764 10.7662 36.2116 11.1938 36.5965 11.4932C36.9173 11.7498 37.3128 11.8888 37.7191 11.8888C37.7833 11.8888 37.8581 11.8888 37.9329 11.8781L38.3713 11.8246V11.7498H38.7348C39.2159 11.6963 39.6436 11.4611 39.9429 11.0762L39.9215 11.0869Z" fill="#00A3E4"/>
<path d="M32.4161 13.3321C32.662 12.9258 32.7476 12.4447 32.63 11.9743C32.4268 11.119 31.6357 10.5417 30.791 10.6058C30.5344 10.6058 30.2885 10.6593 30.032 10.7769L29.5295 11.0228C28.6421 11.4504 28.2679 12.5303 28.6955 13.4283C28.9842 14.0271 29.5722 14.4119 30.2351 14.444C30.2351 14.444 30.2351 14.444 30.2458 14.444H30.2992C30.5024 14.444 30.7055 14.3906 30.898 14.3157L31.347 14.1447C31.7853 14.0271 32.1595 13.7384 32.4054 13.3535L32.4161 13.3321Z" fill="#00A3E4"/>
<path d="M57.8728 80.3458L57.4452 80.41C57.4452 80.41 57.4131 80.4313 57.3917 80.442L56.9747 80.581C56.4936 80.6559 56.0767 80.9018 55.788 81.2974C55.4993 81.6929 55.3817 82.1634 55.4566 82.6445C55.5314 83.1256 55.7773 83.5426 56.1729 83.8312C56.4936 84.0664 56.8678 84.184 57.2206 84.184C57.2955 84.184 57.381 84.184 57.4559 84.1627C57.6376 84.1627 57.8087 84.1306 57.969 84.0771L58.4288 83.9274C59.4124 83.7778 60.0966 82.8476 59.9469 81.8533C59.7973 80.8697 58.8671 80.1854 57.8728 80.3351V80.3458Z" fill="#00A3E4"/>
<path d="M78.5826 30.9944C78.8819 31.6038 79.5127 31.9993 80.2183 31.9993C80.4749 31.9993 80.7101 31.9245 80.9347 31.8176C81.3623 31.6145 81.6937 31.2509 81.8541 30.7912C82.0145 30.3422 81.9824 29.8504 81.7686 29.3906L81.6938 29.241C81.6403 29.1234 81.5761 29.0058 81.5227 28.8882C81.2126 28.2787 80.6032 27.9045 79.9297 27.9045C79.641 27.9045 79.3523 27.9687 79.0957 28.1077C78.2297 28.5781 77.909 29.6686 78.3687 30.5132L78.5932 30.9837L78.5826 30.9944Z" fill="#00A3E4"/>
<path d="M27.8194 76.9673L27.4131 76.7214C27.1244 76.5396 26.793 76.4862 26.4616 76.4541C25.8415 76.4541 25.2748 76.7748 24.9541 77.2987C24.4195 78.1327 24.6761 79.2446 25.5207 79.7791L25.9805 80.0678C26.2584 80.2389 26.5792 80.3351 26.9106 80.3351C26.9213 80.3351 26.932 80.3351 26.9427 80.3351C27.4131 80.3351 27.8515 80.1533 28.1829 79.8326C28.525 79.5011 28.7282 79.0521 28.7388 78.571C28.7495 77.9295 28.4181 77.3201 27.8194 76.9673Z" fill="#00A3E4"/>
<path d="M76.4651 24.9858L76.572 25.1354L76.9783 24.8147C77.7588 24.2053 77.8978 23.072 77.2884 22.2808L76.9462 21.8425C76.6041 21.4148 76.0802 21.1369 75.5457 21.1796C75.1394 21.1796 74.7331 21.3186 74.4124 21.5752C73.6533 22.1953 73.525 23.3286 74.1665 24.1198C74.2413 24.2053 74.3162 24.3015 74.4017 24.4191C74.9042 25.0499 75.7488 25.2637 76.4651 24.9858Z" fill="#00A3E4"/>
<path d="M83.8635 43.3856C82.8692 43.3856 82.0674 44.1875 82.0674 45.1818V45.6736C82.0674 46.6679 82.8692 47.4697 83.8635 47.4697C84.8578 47.4697 85.6597 46.6679 85.6597 45.6736V45.1818C85.6597 44.1875 84.8578 43.3856 83.8635 43.3856Z" fill="#00A3E4"/>
<path d="M71.7502 72.2738C71.3011 72.2738 70.8842 72.4449 70.5527 72.7443L70.1785 73.0757C69.4408 73.7386 69.3767 74.8719 70.0395 75.6096C70.3924 76.0051 70.8842 76.2083 71.376 76.2083C71.8036 76.2083 72.2313 76.0586 72.5734 75.7485L72.9904 75.3743C73.7174 74.7008 73.7601 73.5675 73.0866 72.8298C72.7338 72.4663 72.2633 72.2631 71.7395 72.2738H71.7502Z" fill="#00A3E4"/>
<path d="M83.5539 51.4897H83.2652C83.2652 51.4897 83.2438 51.4897 83.2332 51.4897C82.3671 51.4897 81.6188 52.1098 81.4584 53.0079C81.4584 53.1148 81.4584 53.2218 81.4584 53.2859V53.3607C81.2766 54.3337 81.9181 55.2745 82.9873 55.4776H83.2545C84.1205 55.4776 84.8582 54.8682 85.0293 53.9274C85.0293 53.8846 85.0507 53.7991 85.0721 53.7242C85.0935 53.6387 85.1148 53.5425 85.1362 53.4249C85.2111 52.4627 84.5161 51.618 83.5539 51.5004V51.4897Z" fill="#00A3E4"/>
<path d="M81.6932 59.3373H81.6718C81.4579 59.2303 81.212 59.1769 80.9875 59.1769C80.3353 59.1983 79.7901 59.4762 79.4586 59.9894L79.0845 60.0429V60.4492C78.7637 61.3259 79.1807 62.3202 80.036 62.6944C80.2605 62.8013 80.5064 62.8547 80.763 62.8547C81.4793 62.8547 82.1208 62.4271 82.4095 61.7856C82.4629 61.6787 82.5057 61.5611 82.5485 61.4541L82.634 61.2617L82.6768 61.112C82.7516 60.3743 82.3453 59.658 81.6932 59.3373Z" fill="#00A3E4"/>
<path d="M78.1117 66.5325C77.8017 66.3186 77.4382 66.201 77.0533 66.2117C76.4759 66.2117 75.9307 66.5111 75.6099 66.9708L75.3106 67.3771C75.0326 67.762 74.915 68.2431 74.9898 68.7135C75.0647 69.1839 75.3213 69.6009 75.7062 69.8896C76.0162 70.1141 76.3797 70.2317 76.7646 70.2317C77.342 70.2317 77.8765 69.9537 78.2187 69.494L78.5501 69.0343C79.1167 68.2324 78.9243 67.1098 78.1117 66.5325Z" fill="#00A3E4"/>
<path d="M50.0578 82.0029H49.395C48.9139 82.0243 48.4755 82.2274 48.1441 82.5803C47.8233 82.9331 47.6523 83.3928 47.6737 83.8739C47.7164 84.8361 48.5076 85.6059 49.4484 85.6059C49.4698 85.6059 49.4912 85.6059 49.5233 85.6059H50.2182C51.2125 85.5525 51.9716 84.7079 51.9288 83.7136C51.8754 82.7299 51.0308 81.9602 50.0578 82.0029Z" fill="#00A3E4"/>
<path d="M42.1995 81.9495H42.1888H41.5153C40.5103 81.8854 39.6656 82.6445 39.6122 83.6388C39.548 84.6331 40.3071 85.4884 41.3335 85.5418H42.0071C42.0071 85.5418 42.0712 85.5418 42.1033 85.5418C43.0548 85.5418 43.846 84.7934 43.8994 83.8419C43.9208 83.3608 43.7604 82.9011 43.4397 82.5376C43.119 82.1741 42.6806 81.9709 42.1995 81.9388V81.9495Z" fill="#00A3E4"/>
<path d="M34.8007 80.2497L34.3196 80.1321C34.1272 80.0679 33.924 80.0251 33.7102 80.0251C33.2291 80.0251 32.7801 80.2176 32.4379 80.549C32.0958 80.8805 31.9141 81.3402 31.9141 81.8213C31.9141 82.5697 32.3952 83.254 33.0901 83.5105L33.614 83.703L33.7209 83.7351C33.8171 83.7458 33.9134 83.7564 34.0096 83.7564C34.0951 83.7564 34.1699 83.7564 34.2341 83.7458C35.2284 83.7244 36.0089 82.9011 35.9982 81.9068C35.9875 81.1691 35.5064 80.5063 34.8114 80.2497H34.8007Z" fill="#00A3E4"/>
<path d="M70.4243 19.2445C70.852 19.2445 71.2796 19.0842 71.6111 18.8062L71.6645 18.742C72.2846 17.9829 72.1777 16.8603 71.4293 16.2295L70.9803 15.8553C70.6595 15.6094 70.2639 15.4705 69.8577 15.4705C68.8741 15.4705 68.0615 16.2723 68.0615 17.2559C68.0615 17.8119 68.3074 18.3251 68.7351 18.6672L68.9489 18.7741H69.0665L69.1307 18.8276C69.4514 19.0948 69.847 19.2125 70.2212 19.2338C70.2853 19.2338 70.3602 19.2445 70.4243 19.2445Z" fill="#00A3E4"/>
<path d="M65.2924 77.117C64.9503 77.0956 64.6723 77.1918 64.3837 77.3522L63.9453 77.6195C63.09 78.1006 62.7799 79.2018 63.2611 80.0678C63.5818 80.6344 64.1805 80.9873 64.8327 80.9873C65.1321 80.9873 65.4314 80.9017 65.7094 80.752L66.2012 80.4634C67.0565 79.9609 67.3345 78.849 66.832 78.0044C66.5112 77.4591 65.9232 77.1277 65.2924 77.1277V77.117Z" fill="#00A3E4"/>
<path fill-rule="evenodd" clip-rule="evenodd" d="M30.8337 28.2467L21.885 47.0528C21.8101 47.1918 21.8422 47.3736 21.9598 47.4805L46.1438 70.6488C46.2828 70.7878 46.5073 70.7878 46.657 70.6488L70.8409 47.4805C70.9585 47.3736 70.9906 47.2025 70.9158 47.0528L61.9671 28.2467C61.9029 28.1184 61.7746 28.0328 61.6356 28.0328H31.1758C31.0368 28.0328 30.8978 28.1184 30.8444 28.2467H30.8337Z" fill="#00A686"/>
<path fill-rule="evenodd" clip-rule="evenodd" d="M49.5006 48.9772C49.3295 48.9879 48.4315 49.0414 46.4322 49.0414C44.8391 49.0414 43.7058 48.9986 43.3103 48.9772C37.1627 48.7099 32.5761 47.6408 32.5761 46.3578C32.5761 45.0749 37.1627 44.0057 43.3103 43.7277V47.9081C43.7165 47.9401 44.8605 48.0043 46.4535 48.0043C48.3673 48.0043 49.3188 47.9295 49.4899 47.9081V43.7277C55.6268 44.0057 60.2027 45.0748 60.2027 46.3471C60.2027 47.6194 55.6268 48.6992 49.4899 48.9665L49.5006 48.9772ZM49.5006 43.3001V39.5581H58.0644V33.8489H34.7465V39.5581H43.3103V43.3001C36.3502 43.6208 31.1221 45 31.1221 46.6465C31.1221 48.293 36.3609 49.6722 43.3103 49.9929V61.9886H49.5006V49.9929C56.4393 49.6722 61.6674 48.293 61.6674 46.6465C61.6674 45 56.45 43.6208 49.5006 43.3001Z" fill="white"/>
</svg>
