<svg width="83" height="83" viewBox="0 0 83 83" fill="none" xmlns="http://www.w3.org/2000/svg">
<g clip-path="url(#clip0_258_1002)">
<path d="M80.3046 70.9886H57.9416C57.3354 70.9886 56.8398 70.4848 56.8398 69.8754V51.2165C56.8398 49.7885 55.6809 48.6235 54.2604 48.6235H37.1833L36.415 43.1058H52.4807C54.8371 43.1058 56.7587 41.174 56.7587 38.8106V4.30077C56.7587 1.93183 54.8353 0 52.4807 0H4.2762C1.92531 0 0.00368479 1.93183 0.00368479 4.29892V38.8088C0.00368479 41.1722 1.92531 43.104 4.2762 43.104H20.3419L19.5792 48.6216H2.57936C1.15887 48.6216 0 49.7867 0 51.2147V75.7024C0 77.1304 1.15887 78.2955 2.57936 78.2955H7.92599V82.2591C7.92599 82.6685 8.25578 83 8.66295 83H18.7943C19.2015 83 19.5313 82.6685 19.5313 82.2591V78.2955H63.3527V82.2591C63.3527 82.6685 63.6825 83 64.0896 83H74.221C74.6281 83 74.9579 82.6685 74.9579 82.2591V78.2955H80.3046C81.7251 78.2955 82.8839 77.1304 82.8839 75.7024V73.5816C82.8839 72.1481 81.7251 70.9886 80.3046 70.9886ZM1.4776 4.29892C1.4776 2.75049 2.74149 1.47989 4.2762 1.47989H52.4807C54.0209 1.47989 55.2848 2.75049 55.2848 4.29892V6.03626H1.4776V4.29892ZM1.4776 7.51801H55.2848V35.4748H1.4776V7.51801ZM4.2762 41.6222C2.74149 41.6222 1.4776 40.3516 1.4776 38.8088V36.9603H55.2848V38.8088C55.2848 40.3516 54.0209 41.6222 52.4807 41.6222H4.2762ZM35.7001 48.6216H21.0604L21.8232 43.104H34.9319L35.7001 48.6216ZM18.0592 81.5201H9.39991V78.3955H18.0592V81.5201ZM73.4859 81.5201H64.8266V78.3955H73.4859V81.5201ZM81.4137 75.7043C81.4137 76.3192 80.9126 76.8174 80.3064 76.8174H2.57936C1.96768 76.8174 1.47208 76.3192 1.47208 75.7043V51.2165C1.47208 50.6016 1.96768 50.1034 2.57936 50.1034H54.2604C54.8666 50.1034 55.364 50.6016 55.364 51.2147V69.8773C55.364 71.3053 56.5229 72.4703 57.9434 72.4703H80.3064C80.9126 72.4703 81.4137 72.9686 81.4137 73.5835V75.7043Z" fill="#00A3E4" stroke="#00A3E4"/>
<path d="M80.4212 48.5957H75.6217V45.1044C76.9335 45.0877 78.1182 44.5432 78.9859 43.6708C82.0498 40.5888 79.8316 35.3545 75.5591 35.3545H67.0251C65.6875 35.3545 64.4752 35.9009 63.5982 36.7825C60.5491 39.8479 62.7213 45.0525 66.9625 45.1044V48.5957H62.1575C60.737 48.5957 59.5781 49.7608 59.5781 51.1888V65.9377C59.5781 67.3658 60.737 68.5308 62.1575 68.5308H80.4212C81.8417 68.5308 83.0005 67.3658 83.0005 65.9377V51.1888C83.0005 49.7608 81.8417 48.5957 80.4212 48.5957ZM64.6392 42.6262C62.4965 40.4684 64.0588 36.8344 67.0251 36.8344H75.5591C76.4895 36.8344 77.3296 37.2178 77.9413 37.8327C80.0656 39.9646 78.5511 43.5671 75.6217 43.6245V42.7373C75.6217 40.3424 73.6743 38.3847 71.2921 38.3847C68.9099 38.3847 66.9625 40.3424 66.9625 42.7373V43.6245C66.0597 43.6023 65.2398 43.2244 64.6392 42.6262ZM74.1478 42.7354V54.8691C74.1478 55.6563 73.8254 56.3712 73.3077 56.8954C71.4948 58.7179 68.4345 57.3843 68.4345 54.8691V42.7354C68.4345 40.2165 71.4948 38.8866 73.3077 40.7091C73.8254 41.2296 74.1496 41.9483 74.1478 42.7354ZM81.5285 65.9377C81.5285 66.5527 81.0328 67.0509 80.4212 67.0509H62.1575C61.5513 67.0509 61.0557 66.5527 61.0557 65.9377V51.1888C61.0557 50.5794 61.5513 50.0812 62.1575 50.0812H66.9625V54.8691C66.9625 56.0656 67.4488 57.1528 68.2319 57.94C70.9734 60.6961 75.6217 58.7013 75.6217 54.8691V50.0812H80.4212C81.0328 50.0812 81.5285 50.5794 81.5285 51.1888V65.9377Z" fill="#00A686" stroke="#00A686"/>
<path d="M30.9833 38.5532H25.7712C24.8002 38.5532 24.8002 40.0331 25.7712 40.0331H30.9833C31.9543 40.0331 31.9543 38.5532 30.9833 38.5532Z" fill="#00A3E4"/>
<path d="M49.7598 54.9434H7.08071C6.67354 54.9434 6.34559 55.2749 6.34375 55.6842V71.4296C6.34375 71.839 6.67354 72.1705 7.08071 72.1705H49.7598C50.1633 72.1705 50.4968 71.839 50.4968 71.4296V55.6842C50.4968 55.2749 50.1615 54.9434 49.7598 54.9434ZM49.0174 70.6888H7.81767V56.4233H49.0174V70.6888Z" fill="#00A3E4" stroke="#00A3E4"/>
<path d="M10.6149 64.2984H22.8669C23.8378 64.2984 23.8378 62.813 22.8669 62.813H10.6149C9.64398 62.813 9.64398 64.2984 10.6149 64.2984Z" fill="#00A686" stroke="#00A686"/>
<path d="M33.9723 64.2984H46.2243C47.1897 64.2984 47.1897 62.813 46.2243 62.813H33.9723C33.0014 62.813 33.0014 64.2984 33.9723 64.2984Z" fill="#00A686" stroke="#00A686"/>
<path d="M30.6661 65.8155C32.6669 63.8059 31.2409 60.3608 28.4202 60.3608C26.6644 60.3608 25.2384 61.7944 25.2402 63.5577C25.2402 66.3934 28.6708 67.8214 30.6661 65.8155ZM29.6251 62.3464C30.2884 63.0132 30.2884 64.1004 29.6251 64.7672C28.5547 65.8433 26.716 65.0765 26.716 63.5596C26.716 62.0426 28.5547 61.2703 29.6251 62.3464Z" fill="#00A686" stroke="#00A686"/>
</g>
<defs>
<clipPath id="clip0_258_1002">
<rect width="83" height="83" fill="white"/>
</clipPath>
</defs>
</svg>
