<svg width="85" height="86" viewBox="0 0 85 86" fill="none" xmlns="http://www.w3.org/2000/svg">
<path fill-rule="evenodd" clip-rule="evenodd" d="M25.7206 30.8694L22.0204 34.5899C20.2564 36.3437 17.4077 36.3336 15.664 34.5798C13.9102 32.8158 13.9204 29.9671 15.6742 28.2133L19.3744 24.4928C19.8103 24.0569 19.8103 23.3473 19.3744 22.9012C18.9385 22.4653 18.2289 22.4653 17.7828 22.9012L14.0826 26.6217C12.3795 28.3248 11.7002 30.8086 12.3186 33.1301C12.937 35.4617 14.7517 37.2865 17.0833 37.915C19.415 38.5436 21.8987 37.8846 23.6018 36.1815L27.3021 32.461C27.5251 32.2481 27.6467 31.9642 27.6569 31.6601C27.6569 31.356 27.5454 31.062 27.3325 30.8491C27.1196 30.6362 26.8256 30.5146 26.5215 30.5247C26.2173 30.5247 25.9335 30.6565 25.7206 30.8694ZM35.25 14.9431C33.9929 13.6759 32.2796 12.9663 30.4853 12.9663C28.6909 12.9663 26.9878 13.6759 25.7206 14.9431L22.0204 18.6637C21.5844 19.0996 21.5844 19.8092 22.0204 20.2553C22.4563 20.6912 23.1659 20.6912 23.612 20.2553L27.3122 16.5348C28.1536 15.6933 29.2992 15.2169 30.4954 15.227C31.6917 15.227 32.8271 15.7035 33.6685 16.555C35.4223 18.319 35.4122 21.1575 33.6584 22.9113L29.9581 26.6318C29.5222 27.0678 29.5222 27.7875 29.9581 28.2235C30.171 28.4363 30.4549 28.558 30.7489 28.558C31.0429 28.558 31.3368 28.4363 31.5396 28.2235L35.2398 24.5029C36.507 23.2357 37.2167 21.5123 37.2167 19.7281C37.2167 17.9439 36.507 16.2205 35.2398 14.9533L35.25 14.9431ZM27.3122 21.3096L20.4389 28.2133C20.003 28.6492 19.9928 29.3589 20.4389 29.8049C20.8748 30.2408 21.5844 30.2408 22.0305 29.8049L28.9139 22.9012C29.3499 22.4653 29.3499 21.7556 28.9139 21.3096C28.478 20.8737 27.7684 20.8737 27.3223 21.3096H27.3122Z" fill="white"/>
<path d="M18.8372 38.655C18.2086 38.655 17.5801 38.5739 16.9516 38.4016C14.4577 37.7325 12.5012 35.7557 11.8321 33.2618C11.163 30.7679 11.8929 28.0815 13.7278 26.2567L17.428 22.5362C17.7423 22.2219 18.0971 22.0597 18.5837 22.0597C19.0197 22.0597 19.4252 22.232 19.7293 22.5362C20.0334 22.8403 20.2058 23.2559 20.2058 23.6919C20.2058 24.1278 20.0334 24.5333 19.7293 24.8476L16.0291 28.5681C14.4679 30.1191 14.4679 32.6535 16.0189 34.2147C16.7691 34.9649 17.7727 35.3907 18.8372 35.3907C19.9016 35.3907 20.9053 34.9751 21.6554 34.2249L25.3557 30.5145C25.6598 30.2002 26.0755 30.0178 26.5114 30.0178C26.9574 30.0076 27.3731 30.1901 27.6873 30.4942C28.0016 30.8085 28.1739 31.2343 28.1638 31.6702C28.1638 32.1061 27.9712 32.5217 27.6569 32.8259L23.9668 36.5363C22.5881 37.9048 20.7329 38.655 18.8372 38.655ZM18.5837 23.0836C18.4215 23.0836 18.2593 23.1444 18.1478 23.2661L14.4476 26.9866C12.8661 28.5579 12.2477 30.8592 12.8154 33.0084C13.3831 35.1575 15.0761 36.8505 17.2152 37.4284C19.3643 38.0062 21.6757 37.398 23.2471 35.8266L26.9473 32.1061C27.0791 31.9845 27.15 31.8223 27.15 31.66C27.15 31.4978 27.0892 31.3356 26.9676 31.214C26.8459 31.0923 26.6634 31.0214 26.5215 31.0315C26.3492 31.0315 26.1971 31.1025 26.0755 31.2241L22.3651 34.9446C21.4223 35.8874 20.1652 36.4045 18.827 36.4045C17.4889 36.4045 16.2318 35.8773 15.289 34.9345C13.3426 32.9779 13.3426 29.8049 15.2991 27.8584L18.9994 24.1379C19.121 24.0163 19.1819 23.8642 19.1819 23.702C19.1819 23.5398 19.121 23.3776 18.9994 23.2661C18.8777 23.1444 18.7257 23.0836 18.5635 23.0836H18.5837ZM21.2297 30.6463C20.7937 30.6463 20.3882 30.4739 20.074 30.1698C19.4353 29.5311 19.4454 28.4971 20.074 27.8584L26.9473 20.9547C27.586 20.3262 28.62 20.3262 29.2587 20.9547C29.8973 21.5934 29.8973 22.6274 29.2587 23.2661L22.3854 30.1698C22.0711 30.4739 21.6656 30.6463 21.2297 30.6463ZM27.6671 21.6745L20.7937 28.5782C20.5504 28.8215 20.5504 29.2169 20.7937 29.45C20.9154 29.5717 21.0675 29.6325 21.2297 29.6325C21.3919 29.6325 21.5541 29.5717 21.6656 29.45L28.5389 22.5463C28.7822 22.303 28.7822 21.9076 28.5389 21.6745C28.2956 21.4312 27.9104 21.4312 27.6671 21.6745ZM30.7489 29.0547C30.313 29.0547 29.8973 28.8823 29.5932 28.5681C28.9647 27.9395 28.9647 26.8954 29.5932 26.2668L33.2935 22.5463C34.8546 20.9952 34.8546 18.4608 33.3036 16.8996C32.5534 16.1393 31.5498 15.7237 30.4853 15.7237C29.4209 15.7237 28.4274 16.1393 27.6671 16.8895L23.9668 20.61C23.6526 20.9141 23.2471 21.0865 22.8111 21.0865C22.3752 21.0865 21.9697 20.9141 21.6554 20.61C21.0269 19.9713 21.0269 18.9373 21.6554 18.2986L25.3557 14.5781C26.704 13.2298 28.5693 12.4492 30.4752 12.4492C32.3811 12.4492 34.2261 13.1994 35.5947 14.5781C36.9633 15.9568 37.7135 17.7816 37.7135 19.7179C37.7135 21.6542 36.9633 23.479 35.5947 24.8577L31.8945 28.5782C31.6005 28.8823 31.1747 29.0547 30.7388 29.0547H30.7489ZM30.4955 14.7099C31.8336 14.7099 33.0907 15.2371 34.0335 16.1799C35.9799 18.1364 35.9698 21.3095 34.0234 23.2559L30.3231 26.9765C30.0798 27.2198 30.0798 27.6151 30.3231 27.8584C30.5563 28.0916 30.9618 28.0916 31.1848 27.8584L34.8952 24.1379C36.0712 22.9518 36.72 21.3805 36.72 19.7179C36.72 18.0553 36.0712 16.484 34.8952 15.2979C33.7192 14.1219 32.158 13.4731 30.4955 13.4731C28.8329 13.4731 27.2514 14.1422 26.0957 15.2979L22.3955 19.0184C22.1522 19.2617 22.1522 19.6469 22.3955 19.8902C22.6388 20.1336 23.024 20.1336 23.2673 19.8902L26.9676 16.1697C27.9104 15.2269 29.1674 14.7099 30.4955 14.7099Z" fill="white"/>
<path d="M83.0783 61.0184L76.4382 46.0958C75.7691 44.6563 74.7046 43.5918 73.2651 43.014C71.8256 42.4361 70.2745 42.5375 68.835 43.1154C67.7705 43.5918 67.0102 44.2711 66.4323 45.1429C64.8002 43.5107 62.2962 42.9228 59.9848 43.9872H59.8834C58.819 44.4637 57.9573 45.2443 57.3794 46.2073C56.9029 45.7309 56.315 45.4369 55.6459 45.1429C54.2063 44.565 52.6553 44.6664 51.2157 45.2443C50.354 45.6295 49.5836 46.2073 49.097 46.9778L44.1802 35.8061C42.9231 32.9169 39.4662 31.5686 36.577 32.9169C33.6878 34.174 32.3394 37.6309 33.6878 40.5201L45.2447 66.6144L39.9528 64.7896C38.5133 64.3132 36.871 64.4044 35.5227 65.0836C34.1744 65.7527 33.12 67.0098 32.7348 68.5507C31.9644 71.1459 33.2113 73.9439 35.624 75.0996L52.858 83.6659C55.1694 84.8216 57.7748 85.3995 60.2686 85.3995C62.58 85.3995 64.8914 84.923 67.0102 83.9599L75.6779 80.1076C83.0074 77.0156 86.3731 68.3581 83.0986 61.0387L83.0783 61.0184ZM74.4107 77.3907L65.743 81.243C61.992 82.8752 57.8458 82.7839 54.1861 80.949L36.9521 72.3827C35.8876 71.8049 35.3199 70.6492 35.695 69.4935C35.8876 68.8244 36.3641 68.2364 36.9521 67.9526C37.5299 67.6586 38.3004 67.5673 38.8782 67.76L47.5459 70.7506C48.1238 70.9432 48.803 70.7506 49.1781 70.3653C49.5633 69.8889 49.6545 69.2096 49.4721 68.6318L36.4756 39.3644C35.8978 38.0161 36.4756 36.4752 37.8239 35.8974C39.1722 35.3195 40.7131 35.8974 41.291 37.2457L49.8573 56.5072C50.2425 57.2777 51.1144 57.6629 51.8848 57.2776C52.6553 56.8924 53.0405 56.0206 52.6553 55.2501L51.2157 51.6918C50.6379 50.3435 51.2157 48.8026 52.564 48.2247C53.2331 47.9307 53.9123 47.9307 54.5916 48.1234C55.2607 48.4174 55.7473 48.8938 56.0311 49.5629L58.2513 54.5709C58.5452 55.1487 59.113 55.534 59.6908 55.534C59.8834 55.534 60.076 55.534 60.3599 55.4326C61.1303 55.0474 61.5156 54.1755 61.1303 53.4051L59.8733 50.5158C59.2954 49.1675 59.8733 47.6266 61.2216 47.0488H61.323C62.6713 46.4709 64.2122 47.0488 64.79 48.3971L66.7162 52.7258C67.1014 53.4963 67.9733 53.8815 68.7437 53.4963C69.5142 53.1111 69.8994 52.2392 69.5142 51.4688L68.7437 49.7352C68.1659 48.3869 68.7437 46.846 70.092 46.2682C70.7611 45.9742 71.4403 45.9742 72.1195 46.1668C72.7886 46.4608 73.2752 46.9373 73.5591 47.6063L80.1992 62.2552C82.7945 68.0337 80.1993 74.7752 74.4208 77.3704L74.4107 77.3907Z" fill="white"/>
<path d="M31.5179 52.6245H13.8075C6.1941 52.6245 0 46.4304 0 38.817V13.8075C0 6.1941 6.1941 0 13.8075 0H38.817C46.4304 0 52.6245 6.1941 52.6245 13.8075V33.5252C52.6245 34.3666 51.9453 35.0458 51.1038 35.0458C50.2624 35.0458 49.5832 34.3666 49.5832 33.5252V13.8075C49.5832 7.87695 44.7577 3.04129 38.817 3.04129H13.8075C7.86681 3.04129 3.04129 7.86681 3.04129 13.8075V38.817C3.04129 44.7475 7.86681 49.5832 13.8075 49.5832H31.5179C32.3593 49.5832 33.0386 50.2624 33.0386 51.1038C33.0386 51.9453 32.3593 52.6245 31.5179 52.6245Z" fill="white"/>
</svg>
