<svg width="104" height="69" viewBox="0 0 104 69" fill="none" xmlns="http://www.w3.org/2000/svg">
<path d="M53.2288 13.4902C41.8288 13.4902 32.5488 22.7702 32.5488 34.1702C32.5488 45.5702 41.8288 54.8502 53.2288 54.8502C64.6288 54.8502 73.9088 45.5802 73.9088 34.1702C73.9088 22.7602 64.6288 13.4902 53.2288 13.4902ZM53.2288 51.6902C43.5588 51.6902 35.6988 43.8302 35.6988 34.1602C35.6988 24.4902 43.5588 16.6302 53.2288 16.6302C62.8988 16.6302 70.7588 24.5002 70.7588 34.1602C70.7588 43.8302 62.8988 51.6902 53.2288 51.6902Z" fill="#00A686"/>
<path d="M53.2284 0.839844C34.8484 0.839844 19.8984 15.7898 19.8984 34.1598C19.8984 52.5298 34.8484 67.4798 53.2184 67.4798C71.5884 67.4798 86.5384 52.5298 86.5384 34.1598C86.5384 15.7898 71.5884 0.839844 53.2184 0.839844H53.2284ZM53.2284 64.3398C36.5784 64.3398 23.0484 50.8098 23.0484 34.1598C23.0484 17.5098 36.5784 3.98984 53.2284 3.98984C69.8784 3.98984 83.4084 17.5298 83.4084 34.1698C83.4084 50.8098 69.8684 64.3498 53.2284 64.3498V64.3398Z" fill="#00A3E4"/>
<path d="M20.578 19.0503C20.508 17.4403 20.368 15.8303 20.228 14.2303L20.178 13.6903C20.048 12.1403 19.908 10.1203 19.778 8.23032C19.608 5.71032 19.448 3.38032 19.318 2.52032C19.198 1.66032 18.378 1.06032 17.548 1.18032C16.688 1.31032 16.088 2.10032 16.208 2.96032C16.328 3.78032 16.468 6.02032 16.638 8.44032C16.748 10.0503 16.868 11.6903 16.978 13.1203H11.878V2.74032C11.878 1.87032 11.168 1.17032 10.308 1.17032C9.44801 1.17032 8.73801 1.88032 8.73801 2.74032V13.1203H3.61801C3.73801 11.6903 3.84801 10.0503 3.96801 8.44032C4.12801 6.02032 4.27801 3.78032 4.39801 2.95032C4.51801 2.09032 3.91801 1.30032 3.05801 1.18032C2.21801 1.06032 1.39801 1.66032 1.28801 2.52032C1.16801 3.38032 1.00801 5.70032 0.838014 8.22032C0.708014 10.1203 0.568014 12.1303 0.438014 13.6903L0.358014 14.6003C0.228014 16.0803 0.0980137 17.5603 0.0280137 19.0503C-0.171986 23.7903 0.608014 26.4403 5.34801 28.4903C5.41801 28.5703 5.50801 28.7803 5.52801 28.8503L5.22801 36.2103C4.90801 44.1203 4.43801 55.9703 4.29801 59.3003C4.20801 61.4403 4.06801 64.6703 6.00801 66.7003C7.04801 67.7903 8.48801 68.3403 10.318 68.3503C12.128 68.3503 13.578 67.7903 14.608 66.7103C16.548 64.6803 16.418 61.4503 16.328 59.3003C16.208 56.5303 15.858 47.8903 15.568 40.5203C15.328 34.4603 15.118 29.2503 15.098 28.8903C15.118 28.7903 15.178 28.5803 15.068 28.6303C20.018 26.4403 20.798 23.8003 20.598 19.0603L20.578 19.0503ZM13.768 25.7503C12.618 26.2603 11.878 27.8703 11.928 28.9903C11.948 29.4103 12.158 34.6003 12.398 40.6503C12.688 48.0303 13.038 56.6703 13.158 59.4303C13.228 61.0403 13.328 63.4803 12.308 64.5403C11.448 65.4403 9.10802 65.4303 8.25801 64.5403C7.24801 63.4803 7.35801 60.9503 7.41801 59.4403C7.55801 56.1103 8.02801 44.2503 8.34801 36.3503L8.63801 29.0103C8.70801 27.8903 7.95801 26.2703 6.79801 25.7603C3.54801 24.3303 2.96801 23.2803 3.14801 19.2003C3.19801 18.2203 3.27801 17.2403 3.35801 16.2703H17.198C17.278 17.2503 17.368 18.2303 17.408 19.2003C17.588 23.2903 17.008 24.3303 13.758 25.7603L13.768 25.7503Z" fill="#00A3E4"/>
<path d="M103.938 59.3C103.868 57.63 103.918 31.12 103.958 15.29L103.978 4.02C103.978 1.06 102.248 0 100.628 0C99.298 0 97.988 0.67 97.208 1.3C91.548 5.82 89.508 20.04 88.408 27.68L88.118 29.68C87.478 33.87 87.238 38.08 91.898 39.48C92.518 39.66 92.868 39.96 92.828 40.42C92.628 45.39 92.378 50.28 92.178 54.05C92.058 56.27 91.968 58.1 91.918 59.32C91.838 61.46 91.698 64.69 93.638 66.73C94.678 67.81 96.118 68.36 97.928 68.37H97.938C99.748 68.37 101.198 67.81 102.228 66.73C104.168 64.69 104.028 61.45 103.938 59.32V59.3ZM99.958 64.53C99.528 64.97 98.868 65.19 97.938 65.2C96.998 65.2 96.338 64.97 95.908 64.53C94.888 63.48 94.998 61.04 95.068 59.43C95.118 58.24 95.218 56.44 95.328 54.26C95.528 50.48 95.788 45.54 95.958 40.73C96.158 39.63 95.738 37.32 92.818 36.45C91.458 36.05 90.388 35.73 91.238 30.14L91.538 28.12C92.498 21.43 94.498 7.49 99.188 3.75C99.608 3.41 100.238 3.14 100.688 3.11C100.688 3.11 100.838 3.32 100.838 4.01L100.818 15.28C100.778 36.74 100.738 57.83 100.798 59.44C100.868 60.95 100.978 63.47 99.958 64.54V64.53Z" fill="#00A3E4"/>
</svg>
