<svg width="80" height="99" viewBox="0 0 80 99" fill="none" xmlns="http://www.w3.org/2000/svg">
<path d="M41.4945 24.0898H36.9845C36.3645 24.0898 35.8545 24.5898 35.8545 25.2198V29.7298C35.8545 30.3498 36.3545 30.8598 36.9845 30.8598H41.4945C42.1145 30.8598 42.6245 30.3598 42.6245 29.7298V25.2198C42.6245 24.5998 42.1245 24.0898 41.4945 24.0898ZM40.3745 28.5998H38.1245V26.3498H40.3745V28.5998Z" fill="white"/>
<path d="M41.4945 39.8701H36.9845C36.3645 39.8701 35.8545 40.3701 35.8545 41.0001V45.5101C35.8545 46.1301 36.3545 46.6401 36.9845 46.6401H41.4945C42.1145 46.6401 42.6245 46.1401 42.6245 45.5101V41.0001C42.6245 40.3801 42.1245 39.8701 41.4945 39.8701ZM40.3745 44.3801H38.1245V42.1301H40.3745V44.3801Z" fill="white"/>
<path d="M57.2748 24.0898H52.7648C52.1448 24.0898 51.6348 24.5898 51.6348 25.2198V29.7298C51.6348 30.3498 52.1348 30.8598 52.7648 30.8598H57.2748C57.8948 30.8598 58.4048 30.3598 58.4048 29.7298V25.2198C58.4048 24.5998 57.9048 24.0898 57.2748 24.0898ZM56.1548 28.5998H53.9048V26.3498H56.1548V28.5998Z" fill="white"/>
<path d="M46.004 25.22C45.384 25.22 44.874 25.72 44.874 26.35V28.6C44.874 29.22 45.374 29.73 46.004 29.73H47.134V33.11C47.134 33.73 47.634 34.24 48.264 34.24H49.394C50.014 34.24 50.524 33.74 50.524 33.11C50.524 32.48 50.024 31.98 49.394 31.98V28.6C49.394 27.98 48.894 27.47 48.264 27.47H47.134V26.34C47.134 25.72 46.634 25.21 46.004 25.21V25.22Z" fill="white"/>
<path d="M43.7543 35.3601H41.5043V34.2301C41.5043 33.6101 41.0043 33.1001 40.3743 33.1001H36.9943C36.3743 33.1001 35.8643 33.6001 35.8643 34.2301C35.8643 34.8601 36.3643 35.3601 36.9943 35.3601H39.2443V36.4901C39.2443 37.1101 39.7443 37.6201 40.3743 37.6201H44.8843C45.5043 37.6201 46.0143 37.1201 46.0143 36.4901V35.3601C46.0143 34.7401 45.5143 34.2301 44.8843 34.2301C44.2543 34.2301 43.7543 34.7301 43.7543 35.3601Z" fill="white"/>
<path d="M48.264 40.99H49.394C50.014 40.99 50.524 40.49 50.524 39.86V37.61C50.524 36.99 50.024 36.48 49.394 36.48C48.764 36.48 48.264 36.98 48.264 37.61V38.74H47.134C46.514 38.74 46.004 39.24 46.004 39.87V44.38C45.384 44.38 44.874 44.88 44.874 45.51C44.874 46.14 45.374 46.64 46.004 46.64H47.134C47.754 46.64 48.264 46.14 48.264 45.51V41V40.99Z" fill="white"/>
<path d="M50.5149 44.3799V45.5099C50.5149 46.1299 51.0149 46.6399 51.6449 46.6399H57.2849C57.9049 46.6399 58.4149 46.1399 58.4149 45.5099V40.9999C58.4149 40.3799 57.9149 39.8699 57.2849 39.8699H55.0349V37.6199H57.2849C57.9049 37.6199 58.4149 37.1199 58.4149 36.4899V34.2399C58.4149 33.6199 57.9149 33.1099 57.2849 33.1099C56.6549 33.1099 56.1549 33.6099 56.1549 34.2399V35.3699H55.0249V34.2399C55.0249 33.6199 54.5249 33.1099 53.8949 33.1099C53.2649 33.1099 52.7649 33.6099 52.7649 34.2399V40.9999C52.7649 41.6199 53.2649 42.1299 53.8949 42.1299H56.1449V44.3799H52.7649C52.7649 43.7599 52.2649 43.2499 51.6349 43.2499C51.0049 43.2499 50.5049 43.7499 50.5049 44.3799H50.5149Z" fill="white"/>
<path d="M39.2445 48.88H33.6045V43.25H31.3545V51.14H39.2445V48.88Z" fill="white"/>
<path d="M62.9144 43.25H60.6544V48.88H55.0244V51.14H62.9144V43.25Z" fill="white"/>
<path d="M62.9144 19.5801H55.0244V21.8301H60.6544V27.4701H62.9144V19.5801Z" fill="white"/>
<path d="M33.6045 21.8301H39.2445V19.5801H31.3545V27.4701H33.6045V21.8301Z" fill="white"/>
<path d="M74.2445 52.68C74.0945 52.61 73.9845 52.48 73.9545 52.31C73.9245 52.15 73.9745 51.98 74.0945 51.86L77.6745 48.28C79.7145 46.25 79.7245 42.93 77.6945 40.89C76.0545 39.24 73.4945 38.88 71.4545 40.01C71.2945 40.1 71.1145 40.09 70.9545 40.01C70.8045 39.92 70.7045 39.76 70.7045 39.58V8.69C70.7045 3.9 66.7945 0 62.0145 0H32.5945C27.8045 0 23.9045 3.91 23.9045 8.69V36.6C23.9045 36.76 23.8245 36.92 23.6945 37.01C23.5645 37.1 23.3845 37.12 23.2345 37.07C22.6945 36.87 22.1345 36.77 21.5645 36.76H21.5345C18.8545 36.76 16.5245 38.76 16.1245 41.42L14.7445 56.02C14.7445 56.08 14.7245 56.14 14.6945 56.2L9.33454 66.92C9.22454 67.15 9.17454 67.41 9.20454 67.67L10.9545 83.42C10.9745 83.56 10.9245 83.7 10.8345 83.8L0.324541 96.07C0.0945408 96.34 -0.0254592 96.69 0.00454082 97.04C0.0345408 97.39 0.194541 97.72 0.464541 97.95C0.704541 98.16 1.01454 98.27 1.33454 98.27H23.3945C23.6645 98.27 23.9145 98.19 24.1345 98.04L29.3045 94.59C29.3645 94.55 29.4345 94.52 29.5045 94.51C39.3945 92.98 43.0745 88.32 44.3945 85.67C44.4745 85.5 44.6545 85.39 44.8445 85.39H61.9945C66.7845 85.39 70.6845 81.48 70.6845 76.7V66.12C70.6845 65.94 70.7845 65.77 70.9445 65.68C71.3845 65.45 71.7745 65.16 72.1345 64.82L75.8045 61.15C76.7945 60.17 77.3445 58.87 77.3545 57.48C77.3545 56.09 76.8345 54.78 75.8545 53.79C75.3845 53.31 74.8345 52.93 74.2145 52.67L74.2445 52.68ZM70.7045 44.42C70.7045 44.29 70.7545 44.16 70.8545 44.07L72.1545 42.77C73.1545 41.77 74.7745 41.77 75.7745 42.77C76.2545 43.25 76.5245 43.9 76.5245 44.58C76.5245 45.25 76.2545 45.91 75.7745 46.39L71.5645 50.6C71.4645 50.7 71.3445 50.75 71.2145 50.75C71.1545 50.75 71.0845 50.74 71.0245 50.71C70.8345 50.63 70.7145 50.45 70.7145 50.25V44.42H70.7045ZM36.9845 2.91C37.0745 2.76 37.2345 2.67 37.4145 2.67H57.2045C57.3745 2.67 57.5345 2.76 57.6345 2.91C57.7245 3.06 57.7345 3.24 57.6545 3.4L55.8145 7.08C55.7345 7.25 55.5545 7.36 55.3645 7.36H39.2545C39.0645 7.36 38.8945 7.25 38.8045 7.08L36.9645 3.4C36.8845 3.24 36.8945 3.06 36.9845 2.91ZM40.8845 86.22C39.2145 88.27 35.7445 90.93 28.7245 91.93C28.5245 91.96 28.3345 92.03 28.1745 92.14L23.1245 95.51C23.0445 95.56 22.9445 95.59 22.8445 95.59H5.33454C5.13454 95.59 4.96454 95.48 4.88454 95.3C4.80454 95.12 4.83454 94.91 4.95454 94.77L13.3845 84.93C13.6245 84.65 13.7345 84.28 13.6945 83.91L11.9145 67.9C11.9045 67.8 11.9145 67.71 11.9645 67.62L17.2445 57.07C17.3145 56.92 17.3645 56.76 17.3745 56.6L18.7745 41.68C19.0845 40.32 20.2145 39.42 21.5445 39.42C22.8445 39.42 23.8845 40.45 23.8845 41.74V76.69C23.8845 81.48 27.7945 85.38 32.5745 85.38H40.4845C40.6745 85.38 40.8545 85.49 40.9345 85.67C41.0145 85.85 40.9945 86.05 40.8745 86.2L40.8845 86.22ZM68.0245 76.72C68.0245 80.04 65.3245 82.74 62.0045 82.74H32.5845C29.2645 82.74 26.5645 80.04 26.5645 76.72V8.69C26.5645 5.37 29.2645 2.67 32.5845 2.67H33.2845C33.4745 2.67 33.6445 2.78 33.7345 2.95L37.2745 10.03H57.3145L60.8545 2.95C60.9345 2.78 61.1145 2.67 61.3045 2.67H62.0045C65.3245 2.67 68.0245 5.37 68.0245 8.69V53.93C68.0245 54.06 67.9745 54.19 67.8745 54.28L64.7345 57.42C62.6945 59.45 62.6845 62.76 64.7045 64.8C65.4945 65.59 66.4945 66.1 67.5945 66.28C67.8345 66.32 68.0145 66.53 68.0145 66.77V76.71L68.0245 76.72ZM73.9345 59.26L70.2545 62.94C69.7445 63.43 69.0945 63.68 68.4445 63.68C67.7945 63.68 67.1445 63.44 66.6445 62.95C65.6445 61.95 65.6445 60.32 66.6445 59.33L70.3245 55.65C71.3245 54.65 72.9445 54.65 73.9445 55.65C74.4245 56.13 74.6945 56.79 74.6945 57.46C74.6945 58.13 74.4245 58.79 73.9445 59.27L73.9345 59.26Z" fill="white"/>
</svg>
