<svg width="164" height="84" viewBox="0 0 164 84" fill="none" xmlns="http://www.w3.org/2000/svg">
<path d="M0 15.4202V68.5855C0 77.0954 7.03181 84.0058 15.6652 84.0058H73.3985C82.0436 84.0058 89.0637 77.0839 89.0637 68.5855V56.2954H112.141L107.289 59.0514C104.074 60.8696 103.01 64.6672 104.746 68.0849C104.758 68.1252 104.787 68.154 104.805 68.1943C105.717 69.7363 107.184 70.8353 108.932 71.3071C110.691 71.7731 112.509 71.5257 114.093 70.6454L135.978 58.1999C138.298 56.8765 140.525 56.3011 143.208 56.3011H145.909V58.5451C145.909 60.4036 147.446 61.9053 149.334 61.9053H159.586C161.474 61.9053 163.012 60.3921 163.012 58.5451V18.1418C163.012 16.2833 161.474 14.7816 159.586 14.7816H149.334C147.446 14.7816 145.909 16.2948 145.909 18.1418V19.3386L139.935 16.9162C137.556 15.9553 135.346 15.5238 132.774 15.5238H102.765C99.0182 15.5238 95.9669 18.5273 95.9669 22.2155C95.9669 23.1936 96.1774 24.1315 96.569 24.9716C93.8393 25.8404 91.8577 28.3721 91.8577 31.3468C91.8577 32.2156 92.0273 33.0557 92.3312 33.8094C91.1271 33.9188 90.0107 34.3445 89.0754 34.9947V15.4202C89.0754 6.9276 82.0436 0 73.4102 0H15.6652C7.03181 0 0 6.92184 0 15.4202ZM158.68 19.0394V57.6533H150.222V19.0279H158.68V19.0394ZM96.1832 31.3468C96.1832 30.0004 97.288 28.9129 98.6557 28.9129H118.88C120.067 28.9129 121.049 27.9636 121.049 26.7783C121.049 25.593 120.084 24.6436 118.88 24.6436H102.753C101.385 24.6436 100.281 23.5561 100.281 22.2097C100.281 20.8633 101.385 19.7874 102.753 19.7874H132.751C134.768 19.7874 136.416 20.1038 138.263 20.8633L145.885 23.9589V52.0433H143.185C139.742 52.0433 136.767 52.8258 133.786 54.5232L111.901 66.9687C111.328 67.2852 110.668 67.383 110.025 67.2046C109.411 67.0377 108.879 66.6522 108.558 66.1286C108.037 65.0699 107.973 63.5797 109.423 62.7569L121.265 56.0249C122.118 55.5416 122.522 54.5635 122.27 53.6313C122.019 52.6992 121.166 52.049 120.19 52.049H80.8336C79.4776 52.049 78.3728 50.9616 78.3728 49.6152C78.3728 48.2688 79.4776 47.1813 80.8336 47.1813H111.281C112.468 47.1813 113.45 46.2319 113.45 45.0466C113.45 43.8614 112.486 42.912 111.281 42.912H92.9625C91.5947 42.912 90.49 41.8245 90.49 40.4781C90.49 39.1317 91.5947 38.0558 92.9625 38.0558H113.812C114.999 38.0558 115.981 37.1064 115.981 35.9211C115.981 34.7358 115.017 33.7864 113.812 33.7864H98.6499C97.2821 33.7979 96.1774 32.7105 96.1774 31.3641L96.1832 31.3468ZM73.3985 4.26933C79.6471 4.26933 84.7383 9.28091 84.7383 15.4317V42.912H80.8336C77.0869 42.912 74.0357 45.9155 74.0357 49.6037C74.0357 53.2919 77.0869 56.2954 80.8336 56.2954H84.7383V68.5855C84.7383 74.7364 79.6471 79.7479 73.3985 79.7479H15.6652C9.41666 79.7479 4.32547 74.7364 4.32547 68.5855V15.4202C4.32547 9.2694 9.41666 4.25783 15.6652 4.25783H73.3985V4.26933Z" fill="#00A3E4"/>
<path d="M35.8012 41.4102H48.8594C51.2618 41.4102 53.2083 43.332 53.2141 45.6968V47.141C54.6228 46.6405 56.1601 46.6405 57.5688 47.141V45.6968C57.5688 40.9672 53.6701 37.1351 48.8653 37.1294H35.8071C31.0023 37.1294 27.1094 40.9672 27.1035 45.6968V60.6913C27.1035 61.8766 28.0797 62.8317 29.2779 62.8317H41.6231C41.1145 61.445 41.1145 59.9318 41.6231 58.5451H31.4524V45.6911C31.4524 43.3263 33.4047 41.4102 35.8071 41.4045L35.8012 41.4102Z" fill="#00A686"/>
<path d="M52.1216 23.1994C52.1216 17.8771 47.7376 13.5618 42.3308 13.5618C36.924 13.5618 32.54 17.8771 32.54 23.1994C32.54 28.5217 36.924 32.8371 42.3308 32.8371C47.7376 32.8313 52.1157 28.5217 52.1216 23.1994ZM36.8889 23.1994C36.8889 20.242 39.3263 17.8426 42.3308 17.8426C45.3352 17.8426 47.7727 20.242 47.7727 23.1994C47.7727 26.1569 45.3352 28.5562 42.3308 28.5562C39.3263 28.5562 36.8947 26.1569 36.8889 23.1994Z" fill="#00A686"/>
<path d="M57.5628 68.1827V62.8259H63.0047C64.2089 62.8259 65.1792 61.865 65.1792 60.6855C65.1792 59.506 64.203 58.5451 63.0047 58.5451H57.5628V53.1883C57.5628 52.003 56.5867 51.0479 55.3884 51.0479C54.1901 51.0479 53.214 52.0087 53.214 53.1883V58.5451H47.7721C46.568 58.5451 45.5977 59.506 45.5977 60.6855C45.5977 61.865 46.5738 62.8259 47.7721 62.8259H53.214V68.1827C53.214 69.368 54.1901 70.3231 55.3884 70.3231C56.5867 70.3231 57.5628 69.3623 57.5628 68.1827Z" fill="#00A686"/>
</svg>
