<svg width="97" height="93" viewBox="0 0 97 93" fill="none" xmlns="http://www.w3.org/2000/svg">
<path d="M51.72 0.564703C49.77 -0.0952973 47.7 -0.165297 45.75 0.294703C43.77 0.744703 41.97 1.7647 40.52 3.2047L30.77 12.9547L17.13 11.9047C16.68 11.8747 16.22 12.0247 15.91 12.3547L10.38 17.8847C9.96 18.2947 9.82 18.9147 9.99 19.4647C10.16 20.0247 10.65 20.4347 11.22 20.5247L21.49 22.2247L12.11 31.6047L4.13 29.6047C3.6 29.4647 3.04 29.6247 2.65 30.0147L0.45 32.2147C0.15 32.5147 0 32.9047 0 33.3247C0 33.7447 0.17 34.1347 0.45 34.4347L5.98 39.9647C8.04 42.0247 10.79 43.1647 13.71 43.1647C16.63 43.1647 19.38 42.0247 21.44 39.9647L30.92 30.4847L33.15 44.6247C33.24 45.2047 33.65 45.6847 34.21 45.8747C34.37 45.9247 34.54 45.9547 34.69 45.9547C35.1 45.9547 35.5 45.7947 35.8 45.5047L41.33 39.9747C41.61 39.6947 41.77 39.3347 41.78 38.9447L42.66 18.7547L53.47 7.9447C54.56 6.8547 55.02 5.2847 54.66 3.7747C54.3 2.2647 53.21 1.0547 51.74 0.554703L51.71 0.574703L51.72 0.564703ZM14.74 17.9647L17.62 15.0847L27.89 15.8847L24.23 19.5447L14.76 17.9647H14.74ZM51.26 5.7447L40.01 16.9947C39.73 17.2747 39.57 17.6347 39.56 18.0247L38.68 38.2147L35.76 41.1347L33.53 26.9947C33.44 26.4147 33.03 25.9347 32.47 25.7447C32.31 25.6947 32.14 25.6647 31.99 25.6647C31.58 25.6647 31.18 25.8247 30.88 26.1147L19.22 37.7747C17.75 39.2447 15.78 40.0547 13.69 40.0547C11.6 40.0547 9.64 39.2447 8.16 37.7747L3.74 33.3547L4.22 32.8747L12.2 34.8747C12.73 35.0147 13.29 34.8547 13.68 34.4647L42.74 5.4247C43.77 4.3947 45.05 3.6747 46.49 3.3447C47.88 3.0047 49.37 3.0647 50.74 3.5347C51.38 3.7547 51.57 4.2847 51.62 4.5047C51.67 4.7247 51.74 5.2747 51.26 5.7547V5.7347V5.7447Z" fill="#00A3E4"/>
<path d="M90.5998 50.1649V40.6349C90.5998 35.4649 86.3998 31.2549 81.2198 31.2549C76.0398 31.2549 71.8398 35.4549 71.8398 40.6349V50.1649C68.2798 50.8849 65.5898 54.0449 65.5898 57.8249V76.5749C65.5898 80.8849 69.0898 84.3849 73.3998 84.3849V87.5049H76.5198V84.3849H85.8998V87.5049H89.0198V84.3849C93.3298 84.3849 96.8298 80.8849 96.8298 76.5749V57.8249C96.8298 54.0549 94.1398 50.9049 90.5798 50.1649H90.5998ZM74.9798 40.6349C74.9798 37.1849 77.7798 34.3849 81.2298 34.3849C84.6798 34.3849 87.4798 37.1849 87.4798 40.6349V50.0149H74.9798V40.6349ZM93.7298 76.5749C93.7298 79.1549 91.6198 81.2649 89.0398 81.2649H73.4198C70.8398 81.2649 68.7298 79.1549 68.7298 76.5749V57.8249C68.7298 55.2449 70.8398 53.1349 73.4198 53.1349H89.0398C91.6198 53.1349 93.7298 55.2449 93.7298 57.8249V76.5749Z" fill="#00A3E4"/>
<path d="M73.4102 57.8145H89.0302V60.9345H73.4102V57.8145Z" fill="#00A686"/>
<path d="M73.4102 65.6348H89.0302V68.7548H73.4102V65.6348Z" fill="#00A686"/>
<path d="M73.4102 73.4443H89.0302V76.5643H73.4102V73.4443Z" fill="#00A686"/>
<path d="M28.1002 57.8145C18.6202 57.8145 10.9102 65.5145 10.9102 75.0045C10.9102 84.4945 18.6102 92.1945 28.1002 92.1945C37.5902 92.1945 45.2902 84.4945 45.2902 75.0045C45.2902 65.5145 37.5902 57.8145 28.1002 57.8145ZM28.1002 89.0644C20.3502 89.0644 14.0402 82.7545 14.0402 75.0045C14.0402 67.2545 20.3502 60.9445 28.1002 60.9445C35.8502 60.9445 42.1602 67.2545 42.1602 75.0045C42.1602 82.7545 35.8502 89.0644 28.1002 89.0644Z" fill="#00A3E4"/>
<path d="M27.3201 70.315H28.8801C29.7401 70.315 30.4401 71.015 30.4401 71.875H33.5601C33.5601 69.565 31.8701 67.645 29.6501 67.265V65.625H26.5301V67.265C24.3101 67.645 22.6201 69.565 22.6201 71.875C22.6201 74.455 24.7301 76.565 27.3101 76.565H28.8701C29.7301 76.565 30.4301 77.265 30.4301 78.125C30.4301 78.985 29.7301 79.685 28.8701 79.685H27.3101C26.4501 79.685 25.7501 78.985 25.7501 78.125H22.6301C22.6301 80.435 24.3201 82.355 26.5401 82.735V84.375H29.6601V82.735C31.8801 82.355 33.5701 80.435 33.5701 78.125C33.5701 75.545 31.4601 73.435 28.8801 73.435H27.3201C26.4601 73.435 25.7601 72.735 25.7601 71.875C25.7601 71.015 26.4601 70.315 27.3201 70.315Z" fill="#00A686"/>
<path d="M10.7407 58.8145L7.7207 59.6445C8.0007 60.6745 8.3307 61.7245 8.6907 62.7245L11.6307 61.6645C11.3007 60.7445 10.9907 59.7745 10.7207 58.8245H10.7407V58.8145Z" fill="#00A3E4"/>
<path d="M9.38016 46.9745L6.26016 46.8545C6.21016 47.9345 6.21016 49.0145 6.26016 50.0845L9.38016 49.9645C9.35016 48.9645 9.35016 47.9645 9.38016 46.9845V46.9745Z" fill="#00A3E4"/>
<path d="M9.60023 52.9648L6.49023 53.3248C6.61023 54.3848 6.77023 55.4648 6.97023 56.5148L10.0302 55.9248C9.84023 54.9448 9.69023 53.9548 9.58023 52.9748H9.60023V52.9648Z" fill="#00A3E4"/>
<path d="M56.1504 86.7447L56.7604 89.8047C57.8104 89.6047 58.8504 89.3347 59.9004 89.0547L59.0604 86.0347C58.0904 86.3047 57.1204 86.5547 56.1504 86.7347V86.7447Z" fill="#00A3E4"/>
<path d="M61.9006 85.1144L62.9806 88.0544C64.0006 87.6744 65.0006 87.2544 65.9606 86.8244L64.6606 83.9844C63.7706 84.3944 62.8506 84.7844 61.8906 85.1244L61.9006 85.1144Z" fill="#00A3E4"/>
<path d="M50.21 87.4744L50.35 90.5944C51.41 90.5444 52.51 90.4544 53.57 90.3244L53.19 87.2344C52.21 87.3544 51.19 87.4344 50.21 87.4844V87.4644V87.4744Z" fill="#00A3E4"/>
<path d="M43.9102 90.3949C44.4302 90.4549 44.9602 90.5049 45.4702 90.5349C46.0202 90.5649 46.5802 90.5949 47.1302 90.6149L47.2202 87.4949C46.2202 87.4649 45.2202 87.3849 44.2402 87.2949L43.9102 90.4049V90.3949Z" fill="#00A3E4"/>
<path d="M68.9898 11.6048C68.0498 11.0848 67.0798 10.5848 66.1098 10.1348L64.7998 12.9748C65.7098 13.3948 66.5998 13.8548 67.4698 14.3348L68.9898 11.6048Z" fill="#00A3E4"/>
<path d="M63.1202 8.89453C62.1402 8.51453 61.0902 8.19453 60.0602 7.89453L59.2002 10.8945C60.1702 11.1745 61.1202 11.4845 62.0402 11.8345L63.1302 8.89453H63.1102H63.1202Z" fill="#00A3E4"/>
<path d="M74.72 19.5646C75.45 20.2346 76.17 20.9446 76.84 21.6546L79.12 19.5146C78.39 18.7346 77.62 17.9646 76.82 17.2446L74.71 19.5546L74.72 19.5646Z" fill="#00A3E4"/>
<path d="M74.3705 15.1644C73.5305 14.5044 72.6405 13.8644 71.7505 13.2744L70.0205 15.8844C70.8505 16.4344 71.6605 17.0244 72.4605 17.6344L74.3805 15.1644H74.3705Z" fill="#00A3E4"/>
<path d="M83.1901 24.5548C82.5801 23.6748 81.9401 22.8048 81.2701 21.9648L78.8301 23.9148C79.4501 24.6948 80.0501 25.4948 80.6101 26.3248L83.1901 24.5548Z" fill="#00A3E4"/>
</svg>
