<svg width="70" height="70" viewBox="0 0 70 70" fill="none" xmlns="http://www.w3.org/2000/svg">
<path d="M29.5181 28.253V31.6265C29.5181 32.7904 30.4627 33.7349 31.6265 33.7349H38.3735C40.9289 33.7349 43.012 35.8181 43.012 38.3735V41.747C43.012 44.3024 40.9289 46.3855 38.3735 46.3855H36.2651V48.494C36.2651 49.194 35.7 49.759 35 49.759C34.3 49.759 33.7349 49.194 33.7349 48.494V46.3855H31.6265C29.0711 46.3855 26.988 44.3024 26.988 41.747C26.988 41.047 27.553 40.4819 28.253 40.4819C28.953 40.4819 29.5181 41.047 29.5181 41.747C29.5181 42.9108 30.4627 43.8554 31.6265 43.8554H38.3735C39.5373 43.8554 40.4819 42.9108 40.4819 41.747V38.3735C40.4819 37.2096 39.5373 36.2651 38.3735 36.2651H31.6265C29.0711 36.2651 26.988 34.1819 26.988 31.6265V28.253C26.988 25.6976 29.0711 23.6145 31.6265 23.6145H33.7349V21.506C33.7349 20.806 34.3 20.241 35 20.241C35.7 20.241 36.2651 20.806 36.2651 21.506V23.6145H38.3735C40.9289 23.6145 43.012 25.6976 43.012 28.253C43.012 28.953 42.447 29.5181 41.747 29.5181C41.047 29.5181 40.4819 28.953 40.4819 28.253C40.4819 27.0892 39.5373 26.1446 38.3735 26.1446H31.6265C30.4627 26.1446 29.5181 27.0892 29.5181 28.253ZM58.1928 18.0566V51.9518C58.1928 55.3928 55.3928 58.2012 51.9434 58.2012H18.0566C14.6157 58.2012 11.8072 55.4012 11.8072 51.9518V18.0566C11.8072 14.6157 14.6072 11.8072 18.0566 11.8072H51.9518C55.3928 11.8072 58.1928 14.6072 58.1928 18.0566ZM55.6627 18.0566C55.6627 16.0072 53.9928 14.3373 51.9434 14.3373H18.0566C16.0072 14.3373 14.3373 16.0072 14.3373 18.0566V51.9518C14.3373 54.0012 16.0072 55.6711 18.0566 55.6711H51.9518C54.0012 55.6711 55.6711 54.0012 55.6711 51.9518V18.0566H55.6627ZM35 7.59036C35.7 7.59036 36.2651 7.0253 36.2651 6.3253V1.26506C36.2651 0.56506 35.7 0 35 0C34.3 0 33.7349 0.56506 33.7349 1.26506V6.3253C33.7349 7.0253 34.3 7.59036 35 7.59036ZM26.5663 7.59036C27.2663 7.59036 27.8313 7.0253 27.8313 6.3253V1.26506C27.8313 0.56506 27.2663 0 26.5663 0C25.8663 0 25.3012 0.56506 25.3012 1.26506V6.3253C25.3012 7.0253 25.8663 7.59036 26.5663 7.59036ZM18.1325 7.59036C18.8325 7.59036 19.3976 7.0253 19.3976 6.3253V1.26506C19.3976 0.56506 18.8325 0 18.1325 0C17.4325 0 16.8675 0.56506 16.8675 1.26506V6.3253C16.8675 7.0253 17.4325 7.59036 18.1325 7.59036ZM43.4337 7.59036C44.1337 7.59036 44.6988 7.0253 44.6988 6.3253V1.26506C44.6988 0.56506 44.1337 0 43.4337 0C42.7337 0 42.1687 0.56506 42.1687 1.26506V6.3253C42.1687 7.0253 42.7337 7.59036 43.4337 7.59036ZM51.8675 7.59036C52.5675 7.59036 53.1325 7.0253 53.1325 6.3253V1.26506C53.1325 0.56506 52.5675 0 51.8675 0C51.1675 0 50.6024 0.56506 50.6024 1.26506V6.3253C50.6024 7.0253 51.1675 7.59036 51.8675 7.59036ZM35 62.4096C34.3 62.4096 33.7349 62.9747 33.7349 63.6747V68.7349C33.7349 69.4349 34.3 70 35 70C35.7 70 36.2651 69.4349 36.2651 68.7349V63.6747C36.2651 62.9747 35.7 62.4096 35 62.4096ZM26.5663 62.4096C25.8663 62.4096 25.3012 62.9747 25.3012 63.6747V68.7349C25.3012 69.4349 25.8663 70 26.5663 70C27.2663 70 27.8313 69.4349 27.8313 68.7349V63.6747C27.8313 62.9747 27.2663 62.4096 26.5663 62.4096ZM18.1325 62.4096C17.4325 62.4096 16.8675 62.9747 16.8675 63.6747V68.7349C16.8675 69.4349 17.4325 70 18.1325 70C18.8325 70 19.3976 69.4349 19.3976 68.7349V63.6747C19.3976 62.9747 18.8325 62.4096 18.1325 62.4096ZM43.4337 62.4096C42.7337 62.4096 42.1687 62.9747 42.1687 63.6747V68.7349C42.1687 69.4349 42.7337 70 43.4337 70C44.1337 70 44.6988 69.4349 44.6988 68.7349V63.6747C44.6988 62.9747 44.1337 62.4096 43.4337 62.4096ZM51.8675 62.4096C51.1675 62.4096 50.6024 62.9747 50.6024 63.6747V68.7349C50.6024 69.4349 51.1675 70 51.8675 70C52.5675 70 53.1325 69.4349 53.1325 68.7349V63.6747C53.1325 62.9747 52.5675 62.4096 51.8675 62.4096ZM68.7349 33.7349H63.6747C62.9747 33.7349 62.4096 34.3 62.4096 35C62.4096 35.7 62.9747 36.2651 63.6747 36.2651H68.7349C69.4349 36.2651 70 35.7 70 35C70 34.3 69.4349 33.7349 68.7349 33.7349ZM68.7349 25.3012H63.6747C62.9747 25.3012 62.4096 25.8663 62.4096 26.5663C62.4096 27.2663 62.9747 27.8313 63.6747 27.8313H68.7349C69.4349 27.8313 70 27.2663 70 26.5663C70 25.8663 69.4349 25.3012 68.7349 25.3012ZM63.6747 19.3976H68.7349C69.4349 19.3976 70 18.8325 70 18.1325C70 17.4325 69.4349 16.8675 68.7349 16.8675H63.6747C62.9747 16.8675 62.4096 17.4325 62.4096 18.1325C62.4096 18.8325 62.9747 19.3976 63.6747 19.3976ZM68.7349 42.1687H63.6747C62.9747 42.1687 62.4096 42.7337 62.4096 43.4337C62.4096 44.1337 62.9747 44.6988 63.6747 44.6988H68.7349C69.4349 44.6988 70 44.1337 70 43.4337C70 42.7337 69.4349 42.1687 68.7349 42.1687ZM68.7349 50.6024H63.6747C62.9747 50.6024 62.4096 51.1675 62.4096 51.8675C62.4096 52.5675 62.9747 53.1325 63.6747 53.1325H68.7349C69.4349 53.1325 70 52.5675 70 51.8675C70 51.1675 69.4349 50.6024 68.7349 50.6024ZM6.3253 33.7349H1.26506C0.56506 33.7349 0 34.3 0 35C0 35.7 0.56506 36.2651 1.26506 36.2651H6.3253C7.0253 36.2651 7.59036 35.7 7.59036 35C7.59036 34.3 7.0253 33.7349 6.3253 33.7349ZM6.3253 25.3012H1.26506C0.56506 25.3012 0 25.8663 0 26.5663C0 27.2663 0.56506 27.8313 1.26506 27.8313H6.3253C7.0253 27.8313 7.59036 27.2663 7.59036 26.5663C7.59036 25.8663 7.0253 25.3012 6.3253 25.3012ZM6.3253 16.8675H1.26506C0.56506 16.8675 0 17.4325 0 18.1325C0 18.8325 0.56506 19.3976 1.26506 19.3976H6.3253C7.0253 19.3976 7.59036 18.8325 7.59036 18.1325C7.59036 17.4325 7.0253 16.8675 6.3253 16.8675ZM6.3253 42.1687H1.26506C0.56506 42.1687 0 42.7337 0 43.4337C0 44.1337 0.56506 44.6988 1.26506 44.6988H6.3253C7.0253 44.6988 7.59036 44.1337 7.59036 43.4337C7.59036 42.7337 7.0253 42.1687 6.3253 42.1687ZM6.3253 50.6024H1.26506C0.56506 50.6024 0 51.1675 0 51.8675C0 52.5675 0.56506 53.1325 1.26506 53.1325H6.3253C7.0253 53.1325 7.59036 52.5675 7.59036 51.8675C7.59036 51.1675 7.0253 50.6024 6.3253 50.6024ZM22.7711 20.6627C22.7711 21.8265 21.8265 22.7711 20.6627 22.7711C19.4988 22.7711 18.5542 21.8265 18.5542 20.6627C18.5542 19.4988 19.4988 18.5542 20.6627 18.5542C21.8265 18.5542 22.7711 19.4988 22.7711 20.6627ZM21.0843 20.6627C21.0843 20.4265 20.8988 20.241 20.6627 20.241C20.4265 20.241 20.241 20.4265 20.241 20.6627C20.241 20.8988 20.4265 21.0843 20.6627 21.0843C20.8988 21.0843 21.0843 20.8988 21.0843 20.6627Z" fill="#00A3E4"/>
</svg>
