<svg width="94" height="75" viewBox="0 0 94 75" fill="none" xmlns="http://www.w3.org/2000/svg">
<path d="M88.84 18.85H80.3L76.93 5.88C76.04 2.42 73.01 0 69.57 0H24.17C20.73 0 17.71 2.41 16.81 5.87L13.44 18.84H4.91C2.2 18.84 0 21.13 0 23.94V24.96C0 27.44 1.71 29.55 4.07 29.98L7.26 30.56L3.56 35.17C2.56 36.44 2 38.03 2 39.66V53.78C2 58.16 5.04 61.8 9.03 62.53V69.11C9.03 72.04 11.41 74.41 14.33 74.41H26.4C29.32 74.41 31.69 72.03 31.69 69.11V62.67H62.05V69.11C62.05 72.04 64.43 74.41 67.34 74.41H79.41C82.34 74.41 84.71 72.03 84.71 69.11V62.53C88.7 61.8 91.74 58.16 91.74 53.78V39.66C91.74 38.03 91.19 36.44 90.18 35.17L86.48 30.56L89.67 29.98C92.03 29.55 93.74 27.44 93.74 24.96V23.94C93.74 21.13 91.54 18.84 88.83 18.84H88.82L88.84 18.85ZM19.84 6.67C20.38 4.59 22.16 3.14 24.17 3.14H69.58C71.59 3.14 73.37 4.59 73.91 6.67L78.73 25.21C78.76 25.33 78.82 25.43 78.86 25.55C74.06 26.13 62.27 27.33 46.88 27.33C31.49 27.33 19.7 26.13 14.9 25.55C14.94 25.43 15 25.32 15.04 25.19L19.85 6.67H19.84ZM4.62 26.92C3.75 26.76 3.12 25.94 3.12 24.97V23.95C3.12 22.86 3.92 21.98 4.91 21.98H12.63L12.01 24.38C11.94 24.65 11.82 24.89 11.67 25.07L9.48 27.8L4.62 26.92ZM28.57 69.12C28.57 70.32 27.6 71.3 26.4 71.3H14.33C13.13 71.3 12.15 70.32 12.15 69.12V62.68H28.56V69.12H28.57ZM81.59 69.12C81.59 70.32 80.61 71.3 79.41 71.3H67.34C66.14 71.3 65.17 70.32 65.17 69.12V62.68H81.58V69.12H81.59ZM88.62 39.67V53.79C88.62 56.97 86.21 59.56 83.15 59.56H10.59C10.59 59.56 10.56 59.56 10.54 59.56C10.52 59.56 10.51 59.56 10.49 59.56C7.53 59.56 5.11 56.97 5.11 53.79V39.67C5.11 38.74 5.42 37.84 5.99 37.13L12.95 28.45C16.34 28.9 29.3 30.45 46.86 30.45C64.42 30.45 77.38 28.9 80.77 28.45L87.73 37.12C88.3 37.83 88.61 38.74 88.61 39.66L88.62 39.67ZM90.62 24.97C90.62 25.94 89.99 26.76 89.12 26.92L84.26 27.8L82.06 25.05C81.92 24.89 81.81 24.65 81.74 24.4L81.11 21.97H88.83C89.81 21.97 90.62 22.85 90.62 23.94V24.96V24.97Z" fill="#00A3E4"/>
<path d="M73.6297 36.71C69.1297 36.71 65.4697 40.37 65.4697 44.87C65.4697 49.37 69.1297 53.03 73.6297 53.03C78.1297 53.03 81.7897 49.37 81.7897 44.87C81.7897 40.37 78.1297 36.71 73.6297 36.71ZM73.6297 49.9C70.8597 49.9 68.5897 47.64 68.5897 44.86C68.5897 42.08 70.8497 39.82 73.6297 39.82C76.4097 39.82 78.6697 42.08 78.6697 44.86C78.6697 47.64 76.4097 49.9 73.6297 49.9Z" fill="#00A686"/>
<path d="M20.1102 36.71C15.6102 36.71 11.9502 40.37 11.9502 44.87C11.9502 49.37 15.6102 53.03 20.1102 53.03C24.6102 53.03 28.2702 49.37 28.2702 44.87C28.2702 40.37 24.6102 36.71 20.1102 36.71ZM20.1102 49.9C17.3402 49.9 15.0702 47.64 15.0702 44.86C15.0702 42.08 17.3302 39.82 20.1102 39.82C22.8902 39.82 25.1502 42.08 25.1502 44.86C25.1502 47.64 22.8902 49.9 20.1102 49.9Z" fill="#00A686"/>
<path d="M57.3597 40.23H36.3797C35.4897 40.23 34.6597 40.64 34.1097 41.35C33.5697 42.06 33.3897 42.97 33.6297 43.83L34.9397 48.59C35.2797 49.82 36.3997 50.68 37.6797 50.68H56.0397C57.3097 50.68 58.4397 49.82 58.7797 48.59L60.0897 43.83C60.3297 42.97 60.1497 42.06 59.6097 41.35C59.0697 40.64 58.2397 40.23 57.3397 40.23H57.3597ZM55.8397 47.56H37.9097L36.7497 43.36H56.9997L55.8397 47.56Z" fill="#00A3E4"/>
</svg>
