<svg width="76" height="48" viewBox="0 0 76 48" fill="none" xmlns="http://www.w3.org/2000/svg">
<path d="M71.1636 15.8909C68.4898 15.8909 66.3273 18.0535 66.3273 20.7273V21.7913L32.3484 18.8756C29.1633 18.5993 26.3582 20.9622 26.0818 24.1473C26.068 24.3131 26.0611 24.472 26.0611 24.6378V31.4502H22.9105C25.5084 28.7764 25.4462 24.5065 22.7724 21.9156C20.0985 19.3178 15.8287 19.38 13.2378 22.0538C10.6953 24.6724 10.6953 28.8385 13.2378 31.4502H9.67273V4.83636C9.67273 2.16255 7.51018 0 4.83636 0C2.16255 0 0 2.16255 0 4.83636V46.1389C0 46.7124 0.462909 47.1753 1.03636 47.1753H8.63636C9.20982 47.1753 9.67273 46.7124 9.67273 46.1389V38.9327H26.0611V42.5807C26.0611 43.1542 26.524 43.6171 27.0975 43.6171H66.3273V46.1389C66.3273 46.7124 66.7902 47.1753 67.3636 47.1753H74.9636C75.5371 47.1753 76 46.7124 76 46.1389V20.7273C76 18.0535 73.8375 15.8909 71.1636 15.8909ZM13.3898 26.7796C13.3898 24.2025 15.4833 22.1091 18.0604 22.1091C20.6375 22.1091 22.7309 24.2025 22.7309 26.7796C22.7309 29.3567 20.6375 31.4502 18.0604 31.4502C15.4833 31.4502 13.3967 29.3567 13.3898 26.7796ZM7.6 45.1025H2.07273V4.83636C2.07273 3.30945 3.30945 2.07273 4.83636 2.07273C6.36327 2.07273 7.6 3.30945 7.6 4.83636V45.1025ZM9.67273 36.86V33.5229H26.0611V36.86H9.67273ZM28.1338 41.5513V24.6378C28.12 23.5876 28.5622 22.5789 29.336 21.8742C30.1029 21.1695 31.1324 20.8171 32.1687 20.9069L66.3273 23.8709V41.5513H28.1338ZM73.9273 45.1025H68.4V20.7273C68.4 19.2004 69.6367 17.9636 71.1636 17.9636C72.6905 17.9636 73.9273 19.2004 73.9273 20.7273V45.1025Z" fill="#00A3E4"/>
</svg>
