<svg width="89" height="82" viewBox="0 0 89 82" fill="none" xmlns="http://www.w3.org/2000/svg">
<path d="M86.98 69.6752H84.52L84.68 69.3426C84.98 68.706 85.14 68.0219 85.14 67.3283V42.9852C85.18 40.3248 82.93 38.1299 80.14 38.0919H48.29C47.44 38.0919 46.6 38.3199 45.87 38.7285L45.81 38.757H38.4V37.2177L38.49 37.1417C41.16 35.1369 42.91 32.1439 43.3 28.9324L43.33 28.7043H43.57C46.35 28.8944 48.75 26.8705 48.92 24.2291C48.92 24.1341 48.92 24.039 48.93 23.9535V17.806C48.93 13.0457 46.98 8.57994 43.44 5.21638C39.9 1.85281 35.19 0 30.19 0C19.85 0.0095016 11.44 8.00034 11.44 17.8155V24.1911C11.54 25.3313 12.06 26.4334 12.9 27.2791C14.07 28.3433 15.68 28.8563 17.3 28.6758L17.55 28.6473L17.58 28.8848C17.97 32.3529 19.9 35.498 22.9 37.5218L23.01 37.5978V38.7665H17.51C9.47 38.7665 2.93 44.9996 2.92 52.6293V64.9149C2.92 66.4922 3.49 68.0504 4.5 69.3046L4.81 69.6847H1.34C0.6 69.6847 0 70.2548 0 70.9579V80.488C0 81.1911 0.6 81.7612 1.33 81.7612H86.97C87.71 81.7612 88.3 81.1911 88.3 80.4975V70.9674C88.3 70.2643 87.7 69.6942 86.97 69.6942M45.96 69.4377C45.96 69.1811 45.96 43.4698 45.96 42.9852C45.92 41.7215 46.96 40.6668 48.28 40.6193H80.14C81.47 40.6668 82.51 41.7215 82.47 42.9852V67.3283C82.51 68.573 81.47 69.6372 80.15 69.6847H45.96V69.4472V69.4377ZM44.15 26.1769C44.07 26.1769 43.99 26.1864 43.91 26.1864H43.39V21.7777L43.61 21.7492C44.23 21.6826 44.84 21.8442 45.33 22.2147C45.82 22.5853 46.13 23.1079 46.2 23.7065C46.35 24.9227 45.43 26.0344 44.14 26.1769H44.15ZM17.5 26.0914L17.29 26.1294C17.11 26.1579 16.94 26.1769 16.76 26.1769C16.06 26.1769 15.37 25.9489 14.81 25.5118C13.88 24.5996 13.91 23.1744 14.85 22.3192C15.36 21.8537 16.07 21.6256 16.77 21.7016H17.5V26.1009V26.0914ZM16.73 19.1457C15.95 19.1172 15.17 19.2502 14.46 19.5353L14.15 19.6588L14.12 19.3357C13.7 15.2691 14.97 11.2879 17.71 8.12386C20.44 4.96933 24.3 3.0025 28.59 2.61294C37.42 1.7863 45.33 7.95284 46.19 16.3522C46.24 16.8273 46.26 17.3119 46.27 17.7965V19.7253L45.93 19.5923C45.03 19.2502 44.05 19.1077 43.08 19.1932H42.94L38.26 12.9887C37.83 12.4186 36.98 12.2951 36.38 12.7036C36.24 12.7986 36.12 12.9222 36.02 13.0742C33.02 16.9699 28.21 19.2217 23.16 19.1362H16.75L16.73 19.1457ZM20.17 27.5546V21.6921H23.18C23.18 21.6921 23.25 21.6921 23.29 21.6921C28.43 21.6921 33.39 19.6588 36.91 16.0957L37.12 15.8867L40.72 20.6755V27.5641C40.52 34.1962 35.26 37.2177 30.45 37.2272C25.65 37.2272 20.38 34.2057 20.18 27.5736L20.17 27.5546ZM33.39 44.6765C32.57 45.1801 31.62 45.4271 30.68 45.4271C29.74 45.4271 28.88 45.1991 28.09 44.743C26.31 43.7168 25.44 41.712 25.68 39.2701L25.71 38.9565L26.02 39.0706C29.06 40.1632 32.39 40.0967 35.38 38.89L35.69 38.7665L35.73 39.0801C36.03 41.5505 35.19 43.5933 33.4 44.686L33.39 44.6765ZM43.42 41.769C43.2 43.1087 43.25 52.5248 43.28 57.6842C43.31 62.511 43.3 62.9481 43.27 63.0526L43.21 63.2141H35.97L35.9 63.1381C33.69 60.8862 30.56 59.594 27.32 59.594H13.55C12.81 59.594 12.21 60.1641 12.21 60.8672C12.21 61.5703 12.81 62.1404 13.55 62.1404H25.95V69.6752H10.57C7.82 69.6562 5.58 67.5183 5.58 64.9054V52.6198C5.58 46.3773 10.94 41.3034 17.5 41.2939H23.07L23.09 41.503C23.56 45.4841 27.34 48.3631 31.54 47.926C35.12 47.546 37.9 44.9045 38.29 41.503L38.31 41.2939H43.15M43.29 65.751V69.6752H39.12L39.09 69.4662C38.93 68.2975 38.58 67.1573 38.05 66.0931L37.88 65.751H43.29ZM36.44 69.6752H28.63V62.2355L28.92 62.283C30.79 62.5965 32.48 63.4422 33.82 64.7154C35.15 65.9981 36.04 67.6133 36.39 69.3902L36.44 69.6752ZM85.64 79.1958H2.67V72.2121H2.92C24.92 72.2121 85.39 72.2121 85.39 72.2121H85.64V79.1958Z" fill="#00A3E4"/>
<path d="M64.2105 62.4732C69.0005 62.3212 71.1905 58.9006 71.1905 55.7841C71.1905 52.6676 69.0005 49.2375 64.2005 49.095C59.4205 49.2375 57.2305 52.6676 57.2305 55.7841C57.2305 58.9006 59.4105 62.3307 64.2105 62.4732ZM61.1205 52.8386C61.9505 52.05 63.0405 51.6224 64.2105 51.6224C65.3805 51.6414 66.4705 52.0975 67.2805 52.8956C68.0905 53.6937 68.5305 54.7484 68.5005 55.8506C68.4605 58.093 66.5705 59.8888 64.2105 59.9268C61.7905 59.9268 59.8305 58.0645 59.8305 55.7746C59.8305 54.6629 60.2905 53.6177 61.1105 52.8386H61.1205Z" fill="#00A686"/>
</svg>
