<svg width="70" height="78" viewBox="0 0 70 78" fill="none" xmlns="http://www.w3.org/2000/svg">
<path d="M60.5005 39.3686C60.5005 39.3257 60.5005 39.2829 60.4919 39.2401C60.4919 39.2315 60.4919 39.2229 60.4919 39.2058C60.4919 39.1716 60.4748 39.1373 60.4662 39.103C60.4662 39.103 60.4662 39.0945 60.4662 39.0859C60.4577 39.0431 60.4405 39.0002 60.4234 38.966C60.4234 38.966 60.4234 38.9574 60.4148 38.9488C60.3977 38.9146 60.3806 38.8803 60.3634 38.8546C60.3634 38.8546 60.3634 38.8461 60.3634 38.8375L57.7766 34.7602C57.4767 34.2976 56.86 34.152 56.3974 34.4518C55.9349 34.7516 55.7893 35.3683 56.0891 35.8309L57.6995 38.3749H50.4099L47.6603 32.533C47.4205 32.0362 46.8294 31.8221 46.324 32.0533C45.8272 32.2932 45.6131 32.8842 45.8443 33.3896L48.1914 38.3749H40.7477L37.2528 27.6334H37.4927C38.0494 27.6334 38.4949 27.188 38.4949 26.6312C38.4949 26.0744 38.0494 25.629 37.4927 25.629H15.5042V18.8705C15.5042 18.3395 15.941 17.9026 16.4721 17.9026H33.7494C34.3062 17.9026 34.7516 17.4572 34.7516 16.9004C34.7516 16.3436 34.3062 15.8982 33.7494 15.8982H16.4721C14.836 15.8982 13.4998 17.2345 13.4998 18.8705V22.3654H11.1698C10.8272 22.3654 10.5103 22.5367 10.3218 22.8279L0.154185 38.8375C0.154185 38.8375 0.154185 38.8461 0.154185 38.8546C0.137053 38.8889 0.119922 38.9231 0.10279 38.9488C0.10279 38.9488 0.10279 38.9574 0.0942242 38.966C0.0770925 39.0088 0.0599608 39.0431 0.051395 39.0859C0.051395 39.0859 0.051395 39.0945 0.051395 39.103C0.0428292 39.1373 0.0342633 39.1716 0.0256975 39.2058C0.0256975 39.2144 0.0256975 39.223 0.0256975 39.2401C0 39.2829 0 39.3257 0 39.3686C0 41.7156 1.3791 43.7371 3.36637 44.6794V70.8138H1.0022C0.453989 70.8138 0 71.2592 0 71.816V76.0989C0 76.6557 0.445423 77.1011 1.0022 77.1011H59.4983C60.0465 77.1011 60.5005 76.6557 60.5005 76.0989V71.816C60.5005 71.2677 60.0551 70.8138 59.4983 70.8138H57.1341V44.6794C59.1214 43.7371 60.5005 41.707 60.5005 39.3686ZM54.6243 43.2403C52.8341 43.2403 51.3265 42.024 50.8811 40.3708H58.3676C57.9222 42.024 56.4146 43.2403 54.6243 43.2403ZM29.2523 38.3664H21.8857L25.3806 27.6248H29.2523V38.3664ZM19.7699 38.3664H12.3262L17.3886 27.6248H23.2734L19.7785 38.3664H19.7699ZM19.3674 40.3708C18.9219 42.024 17.4143 43.2403 15.6241 43.2403C13.8338 43.2403 12.3262 42.024 11.8808 40.3708H19.3674ZM29.1153 40.3708C28.6698 42.024 27.1623 43.2403 25.372 43.2403C23.5817 43.2403 22.0742 42.024 21.6287 40.3708H29.1153ZM48.6197 40.3708C48.1743 42.024 46.6667 43.2403 44.8764 43.2403C43.0861 43.2403 41.5786 42.024 41.1331 40.3708H48.6197ZM38.6233 38.3664H31.2567V27.6248H35.1285L38.6233 38.3664ZM38.8632 40.3708C38.4178 42.024 36.9102 43.2403 35.1199 43.2403C33.3297 43.2403 31.8221 42.024 31.3767 40.3708H38.8632ZM11.7009 24.3612H13.4741V26.6226C13.4741 26.8882 13.5768 27.1451 13.7653 27.3336C13.9537 27.522 14.2107 27.6248 14.4763 27.6248H15.1701L10.1077 38.3664H2.81816L11.7009 24.3612ZM2.13289 40.3708H9.61943C9.17401 42.024 7.66642 43.2403 5.87616 43.2403C4.0859 43.2403 2.57832 42.024 2.13289 40.3708ZM58.4961 75.0967H2.00441V72.8182H58.4961V75.0967ZM25.7746 70.8223H9.85071V50.1872H25.7832V70.8223H25.7746ZM55.1297 70.8223H27.779V49.185C27.779 48.6282 27.3336 48.1828 26.7768 48.1828H8.84851C8.29173 48.1828 7.8463 48.6282 7.8463 49.185V70.8223H5.37078V45.2276C5.53353 45.2447 5.70485 45.2533 5.87616 45.2533C7.90626 45.2533 9.69652 44.2168 10.7501 42.6579C11.8037 44.2254 13.594 45.2533 15.6241 45.2533C17.6542 45.2533 19.4444 44.2168 20.498 42.6579C21.5516 44.2254 23.3419 45.2533 25.372 45.2533C27.4021 45.2533 29.1924 44.2168 30.246 42.6579C31.2996 44.2254 33.0898 45.2533 35.1199 45.2533C37.15 45.2533 38.9403 44.2168 39.9939 42.6579C41.0475 44.2254 42.8377 45.2533 44.8678 45.2533C46.8979 45.2533 48.6882 44.2168 49.7418 42.6579C50.7954 44.2254 52.5857 45.2533 54.6158 45.2533C54.7871 45.2533 54.9498 45.2533 55.1211 45.2276V70.8223H55.1297ZM51.652 48.1828H33.7237C33.1669 48.1828 32.7215 48.6282 32.7215 49.185V58.0678C32.7215 58.616 33.1669 59.07 33.7237 59.07H51.652C52.2002 59.07 52.6542 58.6246 52.6542 58.0678V49.185C52.6542 48.6282 52.2088 48.1828 51.652 48.1828ZM50.6498 57.0656H34.7173V50.1872H50.6498V57.0656ZM68.1755 12.3776H66.8306C66.6079 11.6924 66.3338 11.0328 66.0083 10.3904L66.9591 9.43955C67.6701 8.72859 67.6701 7.5722 66.9591 6.86123L63.1388 3.04087C62.7961 2.69824 62.3421 2.50979 61.8539 2.50979C61.3656 2.50979 60.9116 2.69824 60.569 3.04087L59.6182 3.99168C58.9758 3.66618 58.3162 3.39207 57.6309 3.16936V1.82452C57.6309 0.82232 56.8086 0 55.8064 0H50.4099C49.4077 0 48.5854 0.813754 48.5854 1.82452V3.16936C47.9087 3.39207 47.2406 3.66618 46.5981 3.99168L45.6473 3.04087C44.9364 2.32991 43.78 2.32991 43.069 3.04087L39.2487 6.86123C38.5377 7.5722 38.5377 8.72859 39.2487 9.43955L40.1995 10.3904C39.874 11.0328 39.5999 11.6924 39.3771 12.3776H38.0323C37.0301 12.3776 36.2078 13.1914 36.2078 14.2022V19.5986C36.2078 20.6008 37.0215 21.4232 38.0323 21.4232H39.3771C39.5999 22.1084 39.874 22.768 40.1995 23.4104L39.2487 24.3612C38.5377 25.0722 38.5377 26.2286 39.2487 26.9395L43.069 30.7599C43.78 31.4709 44.9364 31.4709 45.6473 30.7599L46.5981 29.8091C47.2406 30.1346 47.9001 30.4087 48.5854 30.6314V31.9763C48.5854 32.9785 49.3992 33.8008 50.4099 33.8008H55.8064C56.8086 33.8008 57.6309 32.987 57.6309 31.9763V30.6314C58.3076 30.4087 58.9758 30.1346 59.6182 29.8091L60.569 30.7599C60.9116 31.1025 61.3656 31.291 61.8539 31.291C62.3421 31.291 62.7961 31.1025 63.1388 30.7599L66.9591 26.9395C67.3018 26.5969 67.4902 26.1344 67.4902 25.6547C67.4902 25.175 67.3018 24.7124 66.9591 24.3698L66.0083 23.419C66.3338 22.7766 66.6079 22.117 66.8306 21.4317H68.1755C69.1777 21.4317 70 20.618 70 19.6072V14.2107C70 13.2085 69.1862 12.3862 68.184 12.3862L68.1755 12.3776ZM67.9956 19.4187H66.0854C65.6314 19.4187 65.2374 19.7186 65.1175 20.1554C64.8434 21.1747 64.4322 22.1598 63.9011 23.0849C63.6784 23.479 63.7384 23.9672 64.0639 24.2927L65.4173 25.6461L61.8539 29.2095L60.5091 27.8561C60.1921 27.5392 59.6953 27.4706 59.3013 27.6933C58.3762 28.2244 57.3911 28.6356 56.3718 28.9097C55.9349 29.0296 55.6351 29.4236 55.6351 29.8776V31.7792H50.5984V29.8691C50.5984 29.4151 50.2986 29.021 49.8617 28.9011C48.8424 28.627 47.8488 28.2159 46.9322 27.6848C46.5382 27.4621 46.0499 27.522 45.7244 27.8475L44.371 29.2009L40.8076 25.6375L42.161 24.2841C42.478 23.9672 42.5465 23.4704 42.3238 23.0764C41.7927 22.1512 41.3815 21.1662 41.1074 20.1468C40.9875 19.71 40.5935 19.4102 40.1395 19.4102H38.2379V14.3735H40.1481C40.6021 14.3735 40.9961 14.0737 41.116 13.6368C41.3901 12.6175 41.8013 11.6324 42.3324 10.7073C42.5551 10.3133 42.4951 9.82501 42.1696 9.49951L40.8162 8.15467L44.3796 4.59129L45.733 5.94469C46.0499 6.26162 46.5467 6.33015 46.9408 6.10744C47.8659 5.57636 48.851 5.1652 49.8703 4.89109C50.3071 4.77117 50.6069 4.37714 50.6069 3.92315V2.01297H55.6437V3.92315C55.6437 4.37714 55.9435 4.77117 56.3803 4.89109C57.3997 5.1652 58.3933 5.57636 59.3098 6.10744C59.7039 6.33015 60.2007 6.27019 60.5176 5.94469L61.871 4.59129L65.4344 8.15467L64.0896 9.49951C63.7726 9.81645 63.7041 10.3133 63.9268 10.7073C64.4579 11.6324 64.8691 12.6175 65.1432 13.6368C65.2631 14.0737 65.6571 14.3735 66.1111 14.3735H68.0127V19.4102L67.9956 19.4187ZM56.92 18.9219C56.92 20.3439 55.7464 21.5002 54.1104 21.8429V22.0656C54.1104 22.6224 53.665 23.0678 53.1082 23.0678C52.5514 23.0678 52.106 22.6224 52.106 22.0656V21.8343C51.0866 21.6202 50.2215 21.0805 49.7332 20.3267C49.4334 19.8642 49.5619 19.2474 50.0245 18.9391C50.487 18.6393 51.1038 18.7677 51.4121 19.2303C51.6434 19.5815 52.2602 19.9413 53.1167 19.9413C54.1532 19.9413 54.9241 19.4016 54.9241 18.9219C54.9241 18.4422 54.1532 17.9026 53.1167 17.9026C50.9838 17.9026 49.3135 16.5749 49.3135 14.8789C49.3135 13.4569 50.487 12.3005 52.1231 11.9579V11.7352C52.1231 11.1784 52.5685 10.733 53.1253 10.733C53.6821 10.733 54.1275 11.1784 54.1275 11.7352V11.9665C55.1468 12.1806 56.012 12.7203 56.5002 13.4741C56.8 13.9366 56.6716 14.5534 56.209 14.8617C55.7465 15.1615 55.1297 15.033 54.8213 14.5705C54.5901 14.2193 53.9733 13.8595 53.1167 13.8595C52.0803 13.8595 51.3093 14.3992 51.3093 14.8789C51.3093 15.3585 52.0803 15.8982 53.1167 15.8982C55.2496 15.8982 56.9285 17.2259 56.9285 18.9219H56.92ZM53.1082 7.55507C47.9601 7.55507 43.7714 11.7438 43.7714 16.8918C43.7714 22.0399 47.9601 26.2286 53.1082 26.2286C58.2562 26.2286 62.4449 22.0399 62.4449 16.8918C62.4449 11.7438 58.2562 7.55507 53.1082 7.55507ZM53.1082 24.2327C49.0651 24.2327 45.7673 20.9435 45.7673 16.8918C45.7673 12.8402 49.0565 9.55091 53.1082 9.55091C57.1598 9.55091 60.4491 12.8402 60.4491 16.8918C60.4491 20.9435 57.1598 24.2327 53.1082 24.2327Z" fill="#00A3E4"/>
</svg>
