<svg width="40" height="63" viewBox="0 0 40 63" fill="none" xmlns="http://www.w3.org/2000/svg">
<path d="M33.8622 7.90561H31.755V1.22874C31.755 1.22874 31.7305 1.19198 31.7305 1.17973C31.7305 0.959211 31.6692 0.726439 31.5345 0.530421C31.1547 -0.0208806 30.3828 -0.167894 29.8315 0.224142L27.0138 2.18433L24.196 0.224142C23.7795 -0.0698853 23.2159 -0.0698853 22.7994 0.224142L19.9939 2.18433L17.1761 0.224142C16.7596 -0.0698853 16.196 -0.0698853 15.7672 0.224142L12.9617 2.18433L10.1562 0.224142C9.6049 -0.167894 8.83308 -0.0331318 8.45329 0.530421C8.31853 0.726439 8.26952 0.959211 8.25727 1.17973C8.25727 1.19198 8.23277 1.21649 8.23277 1.22874V7.90561H6.12557C2.74426 7.90561 0 10.6499 0 14.0312V32.0771C0 35.1154 1.0781 38.0679 3.03828 40.3834C4.61868 42.2578 5.48851 44.6591 5.48851 47.1338V56.3222C5.48851 59.7035 8.23277 62.4477 11.6141 62.4477H28.3737C31.755 62.4477 34.4992 59.7035 34.4992 56.3222V47.1338C34.4992 44.6591 35.3691 42.2701 36.9617 40.3834C38.9219 38.0679 40 35.1154 40 32.0771V14.0312C40 10.6499 37.2435 7.90561 33.8744 7.90561H33.8622ZM13.6723 4.68356L16.4778 2.72338L19.2833 4.68356C19.4916 4.83057 19.7366 4.90408 19.9816 4.90408C20.2266 4.90408 20.4717 4.83057 20.6799 4.68356L23.4855 2.72338L26.3032 4.68356C26.7198 4.97759 27.2833 4.97759 27.6998 4.68356L29.2925 3.58096V13.1124H10.6708V3.58096L12.2511 4.68356C12.6799 4.97759 13.2312 4.97759 13.66 4.68356H13.6723ZM37.5375 32.0771C37.5375 34.5396 36.6677 36.9286 35.075 38.8153C33.1149 41.1307 32.0368 44.0955 32.0368 47.1338V56.3222C32.0368 58.3436 30.3828 59.9975 28.3614 59.9975H11.6018C9.5804 59.9975 7.92649 58.3436 7.92649 56.3222V47.1338C7.92649 44.0833 6.84839 41.1307 4.88821 38.8153C3.30781 36.9408 2.43798 34.5396 2.43798 32.0771V14.0312C2.43798 12.0097 4.09188 10.3558 6.11332 10.3558H8.22052V13.1124H7.87749C7.20367 13.1124 6.65237 13.6637 6.65237 14.3375C6.65237 15.0113 7.20367 15.5626 7.87749 15.5626H32.0858C32.7596 15.5626 33.3109 15.0113 33.3109 14.3375C33.3109 13.6637 32.7596 13.1124 32.0858 13.1124H31.7427V10.3558H33.8499C35.8714 10.3558 37.5253 12.0097 37.5253 14.0312V32.0771H37.5375Z" fill="#00A3E4"/>
<path d="M29.5122 17.8291H10.4739C7.9624 17.8291 5.92871 19.8628 5.92871 22.3743V32.0404C5.92871 34.5397 7.9624 36.5856 10.4739 36.5856H29.5122C32.0237 36.5856 34.0573 34.5519 34.0573 32.0404V22.3743C34.0573 19.875 32.0237 17.8291 29.5122 17.8291ZM31.6071 32.0404C31.6071 33.192 30.6638 34.1354 29.5122 34.1354H10.4739C9.32228 34.1354 8.37894 33.192 8.37894 32.0404V22.3743C8.37894 21.2227 9.32228 20.2793 10.4739 20.2793H29.5122C30.6638 20.2793 31.6071 21.2227 31.6071 22.3743V32.0404Z" fill="#00A3E4"/>
<path d="M13.8067 40.6162H11.479C10.8052 40.6162 10.2539 41.1675 10.2539 41.8413C10.2539 42.5151 10.8052 43.0664 11.479 43.0664H13.8067C14.4806 43.0664 15.0319 42.5151 15.0319 41.8413C15.0319 41.1675 14.4806 40.6162 13.8067 40.6162Z" fill="#00A3E4"/>
<path d="M28.5079 40.6162H26.1802C25.5064 40.6162 24.9551 41.1675 24.9551 41.8413C24.9551 42.5151 25.5064 43.0664 26.1802 43.0664H28.5079C29.1817 43.0664 29.733 42.5151 29.733 41.8413C29.733 41.1675 29.1817 40.6162 28.5079 40.6162Z" fill="#00A3E4"/>
<path d="M21.1573 40.6162H18.8296C18.1558 40.6162 17.6045 41.1675 17.6045 41.8413C17.6045 42.5151 18.1558 43.0664 18.8296 43.0664H21.1573C21.8311 43.0664 22.3824 42.5151 22.3824 41.8413C22.3824 41.1675 21.8311 40.6162 21.1573 40.6162Z" fill="#00A3E4"/>
<path d="M13.8067 46.6436H11.479C10.8052 46.6436 10.2539 47.1949 10.2539 47.8687C10.2539 48.5425 10.8052 49.0938 11.479 49.0938H13.8067C14.4806 49.0938 15.0319 48.5425 15.0319 47.8687C15.0319 47.1949 14.4806 46.6436 13.8067 46.6436Z" fill="#00A3E4"/>
<path d="M28.5079 46.6436H26.1802C25.5064 46.6436 24.9551 47.1949 24.9551 47.8687C24.9551 48.5425 25.5064 49.0938 26.1802 49.0938H28.5079C29.1817 49.0938 29.733 48.5425 29.733 47.8687C29.733 47.1949 29.1817 46.6436 28.5079 46.6436Z" fill="#00A3E4"/>
<path d="M21.1573 46.6436H18.8296C18.1558 46.6436 17.6045 47.1949 17.6045 47.8687C17.6045 48.5425 18.1558 49.0938 18.8296 49.0938H21.1573C21.8311 49.0938 22.3824 48.5425 22.3824 47.8687C22.3824 47.1949 21.8311 46.6436 21.1573 46.6436Z" fill="#00A3E4"/>
<path d="M13.8067 52.6714H11.479C10.8052 52.6714 10.2539 53.2227 10.2539 53.8965C10.2539 54.5703 10.8052 55.1216 11.479 55.1216H13.8067C14.4806 55.1216 15.0319 54.5703 15.0319 53.8965C15.0319 53.2227 14.4806 52.6714 13.8067 52.6714Z" fill="#00A3E4"/>
<path d="M28.5079 52.6714H26.1802C25.5064 52.6714 24.9551 53.2227 24.9551 53.8965C24.9551 54.5703 25.5064 55.1216 26.1802 55.1216H28.5079C29.1817 55.1216 29.733 54.5703 29.733 53.8965C29.733 53.2227 29.1817 52.6714 28.5079 52.6714Z" fill="#00A3E4"/>
<path d="M21.1573 52.6714H18.8296C18.1558 52.6714 17.6045 53.2227 17.6045 53.8965C17.6045 54.5703 18.1558 55.1216 18.8296 55.1216H21.1573C21.8311 55.1216 22.3824 54.5703 22.3824 53.8965C22.3824 53.2227 21.8311 52.6714 21.1573 52.6714Z" fill="#00A3E4"/>
</svg>
