<svg width="70" height="48" viewBox="0 0 70 48" fill="none" xmlns="http://www.w3.org/2000/svg">
<path d="M67.5234 39.0838H66.1157V3.04872C66.1157 1.37004 64.7457 0 63.0595 0H6.94053C5.26186 0 3.89182 1.37004 3.89182 3.05624V12.9552C3.89182 13.58 4.39617 14.0843 5.02097 14.0843C5.64577 14.0843 6.15012 13.58 6.15012 12.9552V3.05624C6.15012 2.61964 6.50393 2.26584 6.94053 2.26584H63.067C63.5036 2.26584 63.8574 2.61964 63.8574 3.05624V39.0838H6.15012V22.4325C6.15012 21.8077 5.64577 21.3034 5.02097 21.3034C4.39617 21.3034 3.89182 21.8077 3.89182 22.4325V39.0838H2.48414C1.1141 39.0838 0 40.1979 0 41.5679C0 44.7672 2.59705 47.3642 5.79632 47.3642H64.2037C67.4029 47.3642 70 44.7597 70 41.5679C70 40.1979 68.8859 39.0838 67.5159 39.0838H67.5234ZM42.3282 41.3421V45.1059H27.6718V41.3421H42.3282ZM2.25831 41.5604C2.25831 41.4399 2.35617 41.3346 2.48414 41.3346H25.421V45.0984H5.79632C3.84665 45.0984 2.25831 43.5101 2.25831 41.5604ZM64.2037 45.1059H44.5865V41.3421H67.5234C67.6438 41.3421 67.7492 41.4399 67.7492 41.5679C67.7492 43.5176 66.1609 45.1059 64.2112 45.1059H64.2037ZM24.5026 8.86009H19.9484C19.3236 8.86009 18.8192 9.36445 18.8192 9.98925C18.8192 10.614 19.3236 11.1184 19.9484 11.1184H24.5026C24.9016 11.1184 25.2253 11.4421 25.2253 11.8411V22.0486H25.007C22.7261 22.0486 20.8668 23.9079 20.8668 26.1888C20.8668 28.4697 22.6885 30.2839 24.9392 30.3215C25.1049 32.4443 26.8739 34.1381 29.0418 34.1381C31.2098 34.1381 32.9713 32.4594 33.1444 30.3366H37.1793C37.3524 32.4594 39.1139 34.1381 41.2819 34.1381C43.5627 34.1381 45.4146 32.2863 45.4146 30.0054C45.4146 27.7245 43.5627 25.8727 41.2819 25.8727C39.701 25.8727 38.3461 26.776 37.646 28.0783H32.6777C31.9776 26.776 30.6226 25.8727 29.0418 25.8727C27.461 25.8727 26.106 26.776 25.406 28.0783H24.9995C23.9606 28.0783 23.1175 27.2352 23.1175 26.1964C23.1175 25.1575 23.9606 24.3144 24.9995 24.3144H43.2541C43.766 24.3144 44.2177 23.9682 44.3456 23.4713L46.7771 13.994C46.8674 13.6552 46.7921 13.2939 46.5738 13.0229C46.3555 12.7444 46.0318 12.5863 45.678 12.5863H27.461V11.8636C27.461 10.2226 26.1211 8.88268 24.4801 8.88268L24.5026 8.86009ZM41.2819 28.1159C42.3207 28.1159 43.1563 28.959 43.1563 29.9903C43.1563 31.0216 42.3132 31.8647 41.2819 31.8647C40.2506 31.8647 39.4075 31.0216 39.4075 29.9903C39.4075 28.959 40.2506 28.1159 41.2819 28.1159ZM29.0418 28.1159C30.0807 28.1159 30.9162 28.959 30.9162 29.9903C30.9162 31.0216 30.0731 31.8647 29.0418 31.8647C28.0105 31.8647 27.1674 31.0216 27.1674 29.9903C27.1674 28.959 28.0105 28.1159 29.0418 28.1159ZM42.3884 22.0411H27.4761V14.822H44.2402L42.3809 22.0411H42.3884ZM3.89182 17.7955C3.89182 17.1631 4.38864 16.6663 5.00591 16.6663C5.62319 16.6663 6.13507 17.1631 6.13507 17.7955C6.13507 18.4278 5.63824 18.9096 5.00591 18.9096C4.37359 18.9096 3.89182 18.4127 3.89182 17.7955Z" fill="#00A3E4"/>
</svg>
