<svg width="96" height="78" viewBox="0 0 96 78" fill="none" xmlns="http://www.w3.org/2000/svg">
<path d="M95.7122 27L82.1522 0.73C81.9222 0.28 81.4522 0 80.9522 0H14.9122C14.4022 0 13.9422 0.28 13.7122 0.73L0.152227 27C-0.0677731 27.42 -0.0477731 27.92 0.202227 28.33C0.452227 28.73 0.882227 28.98 1.36223 28.98H1.52223V31.66C1.52223 33.94 2.61223 35.96 4.30223 37.24V76.43C4.30223 77.18 4.91223 77.79 5.66223 77.79H89.6722C90.4222 77.79 91.0322 77.18 91.0322 76.43V37.61C93.0222 36.38 94.3622 34.17 94.3622 31.66V28.98H94.5222C94.9922 28.98 95.4322 28.73 95.6822 28.33C95.9322 27.93 95.9422 27.42 95.7322 27H95.7122ZM15.7422 2.71H80.1222L92.2822 26.27H79.1322V9.6C79.1322 8.85 78.5222 8.24 77.7722 8.24H18.0922C17.3422 8.24 16.7322 8.85 16.7322 9.6V26.27H3.58223L15.7422 2.71ZM15.4922 28.98H24.0422V31.66C24.0422 34.02 22.1222 35.94 19.7622 35.94C17.4022 35.94 15.4822 34.02 15.4822 31.66V28.98H15.4922ZM76.4122 26.27H19.4422V10.95H76.4122V26.27ZM26.7522 28.98H35.3022V31.66C35.3022 34.02 33.3822 35.94 31.0222 35.94C28.6622 35.94 26.7422 34.02 26.7422 31.66V28.98H26.7522ZM38.0222 28.98H46.5722V31.66C46.5722 34.02 44.6522 35.94 42.2922 35.94C39.9322 35.94 38.0122 34.02 38.0122 31.66V28.98H38.0222ZM49.2822 28.98H57.8322V31.66C57.8322 34.02 55.9122 35.94 53.5522 35.94C51.1922 35.94 49.2722 34.02 49.2722 31.66V28.98H49.2822ZM60.5522 28.98H69.1022V31.66C69.1022 34.02 67.1822 35.94 64.8222 35.94C62.4622 35.94 60.5422 34.02 60.5422 31.66V28.98H60.5522ZM71.8122 28.98H80.3622V31.66C80.3622 34.02 78.4422 35.94 76.0822 35.94C73.7222 35.94 71.8022 34.02 71.8022 31.66V28.98H71.8122ZM4.22223 28.98H12.7722V31.66C12.7722 34.02 10.8522 35.94 8.49223 35.94C6.13223 35.94 4.21223 34.02 4.21223 31.66V28.98H4.22223ZM29.7322 75.07H17.7622V51.87H29.7322V75.07ZM88.3022 75.07H32.4422V50.52C32.4422 49.77 31.8322 49.16 31.0822 49.16H16.4022C15.6522 49.16 15.0422 49.77 15.0422 50.52V75.07H7.01223V38.49C7.49223 38.6 7.99223 38.65 8.50223 38.65C10.8122 38.65 12.8622 37.52 14.1322 35.79C15.4022 37.52 17.4522 38.65 19.7622 38.65C22.0722 38.65 24.1222 37.52 25.3922 35.79C26.6622 37.52 28.7122 38.65 31.0222 38.65C33.3322 38.65 35.3822 37.52 36.6522 35.79C37.9222 37.52 39.9722 38.65 42.2822 38.65C44.5922 38.65 46.6422 37.52 47.9122 35.79C49.1822 37.52 51.2322 38.65 53.5422 38.65C55.8522 38.65 57.9022 37.52 59.1722 35.79C60.4422 37.52 62.4922 38.65 64.8022 38.65C67.1122 38.65 69.1622 37.52 70.4322 35.79C71.7022 37.52 73.7522 38.65 76.0622 38.65C78.3722 38.65 80.4222 37.52 81.6922 35.79C82.9622 37.52 85.0122 38.65 87.3222 38.65C87.6422 38.65 87.9622 38.63 88.2722 38.58V75.07H88.3022ZM91.6322 31.66C91.6322 34.02 89.7122 35.94 87.3522 35.94C84.9922 35.94 83.0722 34.02 83.0722 31.66V28.98H91.6222V31.66H91.6322Z" fill="#00A3E4"/>
<path d="M55.8217 49.1599H39.8717C39.1217 49.1599 38.5117 49.7699 38.5117 50.5199V66.4699C38.5117 67.2199 39.1217 67.8299 39.8717 67.8299H55.8217C56.5717 67.8299 57.1817 67.2199 57.1817 66.4699V50.5199C57.1817 49.7699 56.5717 49.1599 55.8217 49.1599ZM54.4617 65.1099H41.2217V51.8699H54.4617V65.1099Z" fill="#00A686"/>
<path d="M78.4428 49.1599H62.4928C61.7428 49.1599 61.1328 49.7699 61.1328 50.5199V66.4699C61.1328 67.2199 61.7428 67.8299 62.4928 67.8299H78.4428C79.1928 67.8299 79.8028 67.2199 79.8028 66.4699V50.5199C79.8028 49.7699 79.1928 49.1599 78.4428 49.1599ZM77.0828 65.1099H63.8428V51.8699H77.0828V65.1099Z" fill="#00A686"/>
</svg>
