<svg width="86" height="78" viewBox="0 0 86 78" fill="none" xmlns="http://www.w3.org/2000/svg">
<path d="M51.72 1.66993C49.77 1.00993 47.7 0.939927 45.75 1.39993C43.77 1.84993 41.97 2.86993 40.52 4.30993L30.77 14.0599L17.13 13.0099C16.68 12.9799 16.22 13.1299 15.91 13.4599L10.38 18.9899C9.96 19.3999 9.82 20.0199 9.99 20.5699C10.16 21.1299 10.65 21.5399 11.22 21.6299L21.49 23.3299L12.11 32.7099L4.13 30.7099C3.6 30.5699 3.04 30.7299 2.65 31.1199L0.45 33.3199C0.15 33.6199 0 34.0099 0 34.4299C0 34.8499 0.17 35.2399 0.45 35.5399L5.98 41.0699C8.04 43.1299 10.79 44.2699 13.71 44.2699C16.63 44.2699 19.38 43.1299 21.44 41.0699L30.92 31.5899L33.15 45.7299C33.24 46.3099 33.65 46.7899 34.21 46.9799C34.37 47.0299 34.54 47.0599 34.69 47.0599C35.1 47.0599 35.5 46.8999 35.8 46.6099L41.33 41.0799C41.61 40.7999 41.77 40.4399 41.78 40.0499L42.66 19.8599L53.47 9.04993C54.56 7.95993 55.02 6.38993 54.66 4.87993C54.3 3.36993 53.21 2.15993 51.74 1.65993L51.71 1.67993L51.72 1.66993ZM14.74 19.0699L17.62 16.1899L27.89 16.9899L24.23 20.6499L14.76 19.0699H14.74ZM51.26 6.84993L40.01 18.0999C39.73 18.3799 39.57 18.7399 39.56 19.1299L38.68 39.3199L35.76 42.2399L33.53 28.0999C33.44 27.5199 33.03 27.0399 32.47 26.8499C32.31 26.7999 32.14 26.7699 31.99 26.7699C31.58 26.7699 31.18 26.9299 30.88 27.2199L19.22 38.8799C17.75 40.3499 15.78 41.1599 13.69 41.1599C11.6 41.1599 9.64 40.3499 8.16 38.8799L3.74 34.4599L4.22 33.9799L12.2 35.9799C12.73 36.1199 13.29 35.9599 13.68 35.5699L42.74 6.52993C43.77 5.49993 45.05 4.77993 46.49 4.44993C47.88 4.10993 49.37 4.16993 50.74 4.63993C51.38 4.85993 51.57 5.38993 51.62 5.60993C51.67 5.82993 51.74 6.37993 51.26 6.85993V6.83993V6.84993Z" fill="#00A3E4"/>
<path d="M78.01 40.0152V30.4852C78.01 25.3152 73.81 21.1052 68.63 21.1052C63.45 21.1052 59.25 25.3052 59.25 30.4852V40.0152C55.69 40.7352 53 43.8952 53 47.6752V66.4252C53 70.7352 56.5 74.2352 60.81 74.2352V77.3552H63.93V74.2352H73.31V77.3552H76.43V74.2352C80.74 74.2352 84.24 70.7352 84.24 66.4252V47.6752C84.24 43.9052 81.55 40.7552 77.99 40.0152H78.01ZM62.39 30.4852C62.39 27.0352 65.19 24.2352 68.64 24.2352C72.09 24.2352 74.89 27.0352 74.89 30.4852V39.8652H62.39V30.4852ZM81.14 66.4252C81.14 69.0052 79.03 71.1152 76.45 71.1152H60.83C58.25 71.1152 56.14 69.0052 56.14 66.4252V47.6752C56.14 45.0952 58.25 42.9852 60.83 42.9852H76.45C79.03 42.9852 81.14 45.0952 81.14 47.6752V66.4252Z" fill="#00A3E4"/>
<path d="M60.8203 47.6653H76.4403V50.7853H60.8203V47.6653Z" fill="#00A686"/>
<path d="M60.8203 55.4851H76.4403V58.6051H60.8203V55.4851Z" fill="#00A686"/>
<path d="M60.8203 63.2952H76.4403V66.4152H60.8203V63.2952Z" fill="#00A686"/>
<path d="M70.9898 3.70975C70.0498 3.18975 69.0798 2.68975 68.1098 2.23975L66.7998 5.07975C67.7098 5.49975 68.5998 5.95975 69.4698 6.43975L70.9898 3.70975Z" fill="#00A3E4"/>
<path d="M65.1202 1C64.1402 0.62 63.0902 0.3 62.0602 0L61.2002 3C62.1702 3.28 63.1202 3.59 64.0402 3.94L65.1302 1H65.1102H65.1202Z" fill="#00A3E4"/>
<path d="M76.72 11.6699C77.45 12.3399 78.17 13.0499 78.84 13.7599L81.12 11.6199C80.39 10.8399 79.62 10.0699 78.82 9.34985L76.71 11.6599L76.72 11.6699Z" fill="#00A3E4"/>
<path d="M76.3705 7.26988C75.5305 6.60988 74.6405 5.96988 73.7505 5.37988L72.0205 7.98988C72.8505 8.53988 73.6605 9.12988 74.4605 9.73988L76.3805 7.26988H76.3705Z" fill="#00A3E4"/>
<path d="M85.1901 16.6598C84.5801 15.7798 83.9401 14.9098 83.2701 14.0698L80.8301 16.0198C81.4501 16.7998 82.0501 17.5998 82.6101 18.4298L85.1901 16.6598Z" fill="#00A3E4"/>
<path d="M27.2006 63.8254C28.1406 64.3454 29.1106 64.8454 30.0806 65.2954L31.3906 62.4554C30.4806 62.0354 29.5906 61.5754 28.7206 61.0954L27.2006 63.8254Z" fill="#00A3E4"/>
<path d="M33.0702 66.5352C34.0502 66.9152 35.1002 67.2352 36.1302 67.5352L36.9902 64.5352C36.0202 64.2552 35.0702 63.9452 34.1502 63.5952L33.0602 66.5352L33.0802 66.5352L33.0702 66.5352Z" fill="#00A3E4"/>
<path d="M21.4705 55.8653C20.7405 55.1953 20.0205 54.4853 19.3505 53.7753L17.0705 55.9153C17.8005 56.6953 18.5705 57.4653 19.3705 58.1853L21.4805 55.8753L21.4705 55.8653Z" fill="#00A3E4"/>
<path d="M21.8199 60.2653C22.6599 60.9253 23.5499 61.5653 24.4399 62.1553L26.1699 59.5453C25.3399 58.9953 24.5299 58.4053 23.7299 57.7953L21.8099 60.2653L21.8199 60.2653Z" fill="#00A3E4"/>
<path d="M13.0004 50.8753C13.6104 51.7553 14.2503 52.6253 14.9203 53.4653L17.3604 51.5153C16.7404 50.7353 16.1403 49.9353 15.5803 49.1053L13.0004 50.8753Z" fill="#00A3E4"/>
</svg>
