<svg width="60" height="60" viewBox="0 0 60 60" fill="none" xmlns="http://www.w3.org/2000/svg">
<path d="M21.3327 53.333H17.8327C17.1894 53.333 16.666 53.8938 16.666 54.583C16.666 55.2722 17.1894 55.833 17.8327 55.833H21.3327C21.9759 55.833 22.4993 55.2722 22.4993 54.583C22.4993 53.8938 21.9759 53.333 21.3327 53.333Z" fill="#00A3E4"/>
<path d="M22.4993 7.08301C22.4993 6.39382 21.9759 5.83301 21.3327 5.83301H17.8327C17.1894 5.83301 16.666 6.39382 16.666 7.08301C16.666 7.7722 17.1894 8.33301 17.8327 8.33301H21.3327C21.9759 8.33301 22.4993 7.7722 22.4993 7.08301Z" fill="#00A3E4"/>
<path d="M55.8835 10.5909H38.8269V5.8831C38.8269 2.63659 36.1906 0 32.9444 0H5.88248C2.63632 0 0 2.63659 0 5.8831V52.9416C0 56.8297 3.16358 60 7.0577 60H31.7628C35.6506 60 38.8205 56.8361 38.8205 52.9416V37.6493H55.8835C58.1514 37.6493 60 35.8005 60 33.5324V14.7078C60 12.4396 58.1514 10.5909 55.8835 10.5909ZM21.1731 17.6493H57.6432V20H21.1731V17.6493ZM57.6432 14.7078V15.2986H21.1731V14.7078C21.1731 13.7357 21.9672 12.9416 22.9391 12.9416H55.8772C56.8555 12.9416 57.6432 13.7357 57.6432 14.7078ZM31.7628 57.6493H7.0577C4.4595 57.6493 2.35045 55.54 2.35045 52.9416V50.5908H36.4637V52.9416C36.4637 55.5337 34.3547 57.6493 31.7565 57.6493H31.7628ZM36.4701 48.2402H2.35045V5.8831C2.35045 3.93901 3.93224 2.35705 5.87613 2.35705H32.9317C34.8756 2.35705 36.4574 3.93901 36.4574 5.8831V10.5909H22.9328C20.6649 10.5909 18.8163 12.4396 18.8163 14.7078V33.5324C18.8163 35.8005 20.6649 37.6493 22.9328 37.6493H36.4637V48.2402H36.4701ZM55.8835 35.2986H22.9455C21.9735 35.2986 21.1795 34.5044 21.1795 33.5324V22.357H57.6496V33.5324C57.6496 34.5044 56.8555 35.2986 55.8835 35.2986Z" fill="#00A3E4"/>
<path d="M54.6532 25.833H42.8455C42.1952 25.833 41.666 26.3933 41.666 27.0819V32.0841C41.666 32.7727 42.1952 33.333 42.8455 33.333H54.6532C55.3035 33.333 55.8327 32.7727 55.8327 32.0841V27.0819C55.8327 26.3933 55.3035 25.833 54.6532 25.833ZM53.4673 30.8353H44.0186V28.3375H53.4673V30.8353Z" fill="#00A3E4"/>
<path d="M38.0562 30.833H36.9451C36.3325 30.833 35.834 31.3938 35.834 32.083C35.834 32.7722 36.3325 33.333 36.9451 33.333H38.0562C38.6688 33.333 39.1673 32.7722 39.1673 32.083C39.1673 31.3938 38.6688 30.833 38.0562 30.833Z" fill="#00A3E4"/>
<path d="M32.2222 30.833H31.1111C30.4985 30.833 30 31.3938 30 32.083C30 32.7722 30.4985 33.333 31.1111 33.333H32.2222C32.8348 33.333 33.3333 32.7722 33.3333 32.083C33.3333 31.3938 32.8348 30.833 32.2222 30.833Z" fill="#00A3E4"/>
<path d="M26.1118 30.833H24.7229C23.9571 30.833 23.334 31.3938 23.334 32.083C23.334 32.7722 23.9571 33.333 24.7229 33.333H26.1118C26.8775 33.333 27.5007 32.7722 27.5007 32.083C27.5007 31.3938 26.8775 30.833 26.1118 30.833Z" fill="#00A3E4"/>
</svg>
