<svg width="80" height="83" viewBox="0 0 80 83" fill="none" xmlns="http://www.w3.org/2000/svg">
<path d="M64.9286 7.46067L57.1325 11.0084C56.89 11.1162 56.6475 11.206 56.414 11.2509C56.1715 11.3048 55.92 11.3318 55.6595 11.3318H42.4834C42.2319 11.3318 41.9984 11.3767 41.8008 11.4575L41.7649 11.4755C41.5762 11.5563 41.3966 11.6821 41.2349 11.8527L35.1903 17.8974C35.0106 18.077 34.8849 18.2656 34.7951 18.4632L34.7771 18.4992C34.7052 18.6878 34.6693 18.9033 34.6693 19.1458V25.6216H38.9177V23.7355C38.9177 22.972 39.1512 22.2625 39.5733 21.6697C39.9865 21.0859 40.5883 20.6278 41.3158 20.3763L47.9443 18.077C48.6628 17.8255 49.4083 17.8076 50.0909 18.0142C50.7825 18.2028 51.4022 18.6159 51.8782 19.2177L54.5817 22.5858C55.1116 23.2505 55.3541 24.0319 55.3452 24.8133C55.3272 25.6127 55.0488 26.421 54.5458 27.0946L48.8963 34.5764C48.5909 34.9806 48.4383 35.4476 48.4562 35.9057C48.4742 36.3099 48.6269 36.714 48.9412 37.0284L49.2646 37.3517C49.5699 37.6481 49.9562 37.8637 50.3424 37.9266C50.6298 37.9715 50.9262 37.9266 51.1597 37.7649L56.6475 33.8668C57.7972 33.1034 58.2552 32.5555 59.1175 31.5316L59.5845 30.9837L65.9975 22.5858C66.3028 22.1906 66.6621 21.8942 67.0753 21.6877L67.1291 21.6607C67.5423 21.4631 67.9914 21.3464 68.4584 21.3104L68.6291 21.2925L64.9286 7.48762V7.46067ZM71.4493 24.8672C71.5122 25.1097 71.6739 25.2983 71.8625 25.4151C72.0511 25.5228 72.2936 25.5678 72.5271 25.5139L77.5569 24.1666C77.7994 24.1037 77.988 23.9421 78.1048 23.7535C78.2215 23.5648 78.2575 23.3134 78.1946 23.0708L72.6798 2.47584C72.617 2.23333 72.4553 2.04471 72.2667 1.92795C72.0781 1.82017 71.8355 1.77526 71.602 1.82915L66.5723 3.17641C66.3298 3.23928 66.1412 3.40095 66.0244 3.58956C65.9076 3.78716 65.8717 4.02967 65.9346 4.27217C67.7758 11.1342 69.6081 18.0052 71.4493 24.8672ZM69.0961 23.0259L68.5932 23.0619C68.3417 23.0798 68.1171 23.1337 67.9195 23.2325L67.8836 23.2505C67.704 23.3493 67.5423 23.475 67.4076 23.6457C65.1442 26.6096 62.8718 29.5556 60.5905 32.5016C60.7342 32.6633 60.824 32.8699 60.824 33.1034V54.8391C60.824 56.0786 60.321 57.1923 59.5037 58.0096C58.6864 58.827 57.5636 59.3299 56.3332 59.3299H9.97866C8.74817 59.3299 7.62545 58.827 6.80812 58.0096C5.99079 57.1923 5.48781 56.0696 5.48781 54.8391V30.0855C5.48781 28.8551 5.99079 27.7323 6.80812 26.915C7.62545 26.0977 8.74817 25.5947 9.97866 25.5947H32.882V19.1189C32.882 18.6608 32.9628 18.2207 33.1245 17.8076L33.1424 17.7537C33.3221 17.3315 33.5825 16.9453 33.9149 16.604L39.9595 10.5594C40.2829 10.236 40.6511 9.98453 41.0643 9.80489L41.1092 9.78693C41.5403 9.6073 41.9894 9.51748 42.4744 9.51748H55.6505C55.7853 9.51748 55.911 9.5085 56.0278 9.48155C56.1535 9.45461 56.2703 9.41868 56.3781 9.36479L64.4526 5.69128L64.1921 4.72126C64.0035 4.0117 64.1203 3.27521 64.4616 2.68241C64.8029 2.08962 65.3777 1.61359 66.0962 1.42498L71.144 0.0777243C71.8445 -0.0929278 72.5541 0.0238342 73.1379 0.365138C73.7307 0.706442 74.2067 1.28127 74.3953 1.99981L79.9101 22.5948C80.0987 23.3044 79.9819 24.0409 79.6406 24.6337C79.2993 25.2265 78.7245 25.7025 78.006 25.8911L72.9583 27.2473C72.2577 27.418 71.5481 27.3012 70.9643 26.9599C70.3715 26.6186 69.8955 26.0438 69.7069 25.3253L69.0872 23.0259H69.0961ZM2.69451 63.713H6.46682C7.2123 63.713 7.88592 64.0184 8.37093 64.5034C8.66733 64.7998 8.90085 65.168 9.0266 65.5812H10.311C10.9217 65.0243 11.6313 64.5842 12.3768 64.2699C13.248 63.9106 14.2001 63.713 15.1521 63.713C16.1042 63.713 17.0562 63.9016 17.9275 64.2699C18.6819 64.5842 19.3825 65.0243 19.9932 65.5812H29.451C30.421 65.5812 31.3102 65.9764 31.9479 66.6141C32.5856 67.2518 32.9808 68.141 32.9808 69.111C32.9808 70.081 32.5856 70.9702 31.9479 71.6079C31.3102 72.2456 30.421 72.6408 29.451 72.6408H19.643C19.149 72.6408 18.7448 72.2366 18.7448 71.7426C18.7448 71.2486 19.149 70.8445 19.643 70.8445H29.451C29.927 70.8445 30.3581 70.6469 30.6725 70.3325C30.9868 70.0181 31.1844 69.587 31.1844 69.111C31.1844 68.635 30.9868 68.2038 30.6725 67.8895C30.3581 67.5751 29.927 67.3775 29.451 67.3775H19.643C19.3735 67.3775 19.131 67.2608 18.9693 67.0721C18.4664 66.5781 17.8825 66.1919 17.2448 65.9315C16.5892 65.662 15.8796 65.5183 15.1611 65.5183C14.4426 65.5183 13.724 65.662 13.0773 65.9315C12.4217 66.2009 11.8199 66.6051 11.3079 67.1171C11.1283 67.2967 10.9038 67.3775 10.6702 67.3775H9.1703V78.5148H34.4178L51.3034 68.7427C51.7166 68.5092 51.995 68.114 52.1028 67.6829C52.2106 67.2697 52.1746 66.8027 51.9591 66.3985L51.9411 66.3626C51.6986 65.9494 51.3124 65.671 50.8813 65.5632C50.4681 65.4554 50.0011 65.4914 49.5969 65.7069L35.9806 73.5749C35.5495 73.8174 35.0016 73.6737 34.7591 73.2515C34.5166 72.8204 34.6603 72.2725 35.0825 72.03L48.7257 64.1531C49.552 63.695 50.4951 63.6052 51.3483 63.8298C52.2195 64.0633 53.0009 64.6291 53.4949 65.4734L53.5219 65.5273C53.98 66.3536 54.0698 67.2967 53.8452 68.1499C53.6117 69.0212 53.0459 69.8026 52.2016 70.2876L35.1094 80.1764C34.9657 80.2573 34.813 80.2932 34.6603 80.2932H9.11641C9.01762 80.8411 8.74817 81.3261 8.37093 81.7033C7.88592 82.1883 7.2123 82.4937 6.46682 82.4937H2.69451C1.94903 82.4937 1.2754 82.1883 0.790389 81.7033C0.305377 81.2183 0 80.5447 0 79.7992V66.3985C0 65.653 0.305377 64.9794 0.790389 64.4944C1.2754 64.0094 1.94903 63.704 2.69451 63.704V63.713ZM6.46682 65.5093H2.69451C2.452 65.5093 2.22746 65.6081 2.05681 65.7698C1.89514 65.9315 1.79634 66.156 1.79634 66.4075V79.8082C1.79634 80.0507 1.89514 80.2752 2.05681 80.4459C2.21848 80.6075 2.44302 80.7063 2.69451 80.7063H6.46682C6.70932 80.7063 6.93386 80.6075 7.10452 80.4459C7.26619 80.2842 7.36498 80.0597 7.36498 79.8082V66.4075C7.36498 66.165 7.26619 65.9405 7.10452 65.7698C6.94285 65.6081 6.7183 65.5093 6.46682 65.5093ZM34.5166 49.971C35.0106 49.971 35.4148 50.3752 35.4148 50.8692C35.4148 51.3632 35.0106 51.7673 34.5166 51.7673H31.2114C30.7174 51.7673 30.3132 51.3632 30.3132 50.8692C30.3132 50.3752 30.7174 49.971 31.2114 49.971H34.5166ZM37.265 51.7673C36.771 51.7673 36.3669 51.3632 36.3669 50.8692C36.3669 50.3752 36.771 49.971 37.265 49.971H53.0728C53.5668 49.971 53.971 50.3752 53.971 50.8692C53.971 51.3632 53.5668 51.7673 53.0728 51.7673H37.265ZM17.9364 47.6268C18.8346 47.6268 19.6519 47.995 20.2357 48.5788C20.8196 49.1627 21.1878 49.98 21.1878 50.8782C21.1878 51.7763 20.8196 52.5937 20.2357 53.1775C19.6519 53.7613 18.8346 54.1295 17.9364 54.1295C17.5233 54.1295 17.1281 54.0487 16.7598 53.914C16.3916 54.0577 15.9964 54.1295 15.5832 54.1295C14.6851 54.1295 13.8677 53.7613 13.2839 53.1775C12.7001 52.5937 12.3319 51.7763 12.3319 50.8782C12.3319 49.98 12.7001 49.1627 13.2839 48.5788C13.8677 47.995 14.6851 47.6268 15.5832 47.6268C15.9964 47.6268 16.3916 47.7076 16.7598 47.8423C17.1281 47.6986 17.5233 47.6268 17.9364 47.6268ZM14.9635 52.1805C14.7839 51.7763 14.6851 51.3362 14.6851 50.8692C14.6851 50.4021 14.7839 49.953 14.9635 49.5578C14.8108 49.6297 14.6761 49.7285 14.5593 49.8453C14.2988 50.1057 14.1372 50.474 14.1372 50.8692C14.1372 51.2644 14.2988 51.6326 14.5593 51.8931C14.6761 52.0098 14.8108 52.1086 14.9635 52.1805ZM18.9603 49.8453C18.8436 49.7285 18.7089 49.6297 18.5562 49.5578C18.7358 49.962 18.8346 50.4021 18.8346 50.8692C18.8346 51.3362 18.7358 51.7853 18.5562 52.1805C18.7089 52.1086 18.8436 52.0098 18.9603 51.8931C19.2208 51.6326 19.3825 51.2644 19.3825 50.8692C19.3825 50.474 19.2208 50.1057 18.9603 49.8453ZM16.7598 50.0159C16.5802 50.2584 16.4814 50.5458 16.4814 50.8692C16.4814 51.1925 16.5802 51.4799 16.7598 51.7224C16.9395 51.4799 17.0383 51.1925 17.0383 50.8692C17.0383 50.5458 16.9305 50.2584 16.7598 50.0159ZM52.013 40.4324C52.3004 40.0283 52.8572 39.9295 53.2614 40.2169C53.6656 40.5043 53.7644 41.0612 53.477 41.4653C53.2345 41.8156 52.9021 42.112 52.5159 42.3096L52.4531 42.3456C52.0938 42.5252 51.6986 42.615 51.2854 42.615H40.7859C40.0404 42.615 39.3667 42.3096 38.8817 41.8246C38.3967 41.3396 38.0913 40.666 38.0913 39.9205V33.1842C38.0913 32.4387 38.3967 31.7651 38.8817 31.2801C39.3667 30.7951 40.0404 30.4897 40.7859 30.4897H47.2976C47.7916 30.4897 48.1957 30.8939 48.1957 31.3879C48.1957 31.8819 47.7916 32.2861 47.2976 32.2861H40.7859C40.5433 32.2861 40.3188 32.3849 40.1482 32.5465C39.9865 32.7082 39.8877 32.9327 39.8877 33.1842V39.9205C39.8877 40.163 39.9865 40.3875 40.1482 40.5582C40.3098 40.7199 40.5344 40.8187 40.7859 40.8187H51.2854C51.4202 40.8187 51.5459 40.7917 51.6537 40.7378L51.6986 40.7109C51.8243 40.648 51.9411 40.5492 52.0219 40.4324H52.013ZM9.96069 27.409C9.21521 27.409 8.54159 27.7144 8.05658 28.1994C7.57156 28.6844 7.26619 29.367 7.26619 30.1035V54.857C7.26619 55.6025 7.57156 56.2761 8.05658 56.7612C8.54159 57.2462 9.22419 57.5516 9.96069 57.5516H56.3332C57.0786 57.5516 57.7523 57.2462 58.2373 56.7612C58.7223 56.2761 59.0277 55.6025 59.0277 54.857V34.262C58.6504 34.6123 58.2193 34.9446 57.6355 35.3398L52.1836 39.2109C51.528 39.678 50.7735 39.8037 50.037 39.678C49.2825 39.5522 48.555 39.1571 47.9981 38.6002L47.6748 38.2768C47.0191 37.6302 46.6958 36.8038 46.6599 35.9506C46.624 35.0883 46.9024 34.2081 47.4592 33.4806L52.0489 27.418H9.96069V27.409ZM40.705 25.6127H53.3423C53.477 25.3432 53.5488 25.0558 53.5488 24.7774C53.5488 24.4001 53.4411 24.0229 53.1806 23.6996L50.4771 20.3314C50.2346 20.035 49.9292 19.8285 49.5969 19.7297C49.2556 19.6309 48.8873 19.6398 48.5281 19.7656L41.8906 22.0649C41.5313 22.1906 41.2349 22.4152 41.0284 22.7026C40.8308 22.99 40.714 23.3403 40.714 23.7265V25.6127H40.705Z" fill="#00A3E4"/>
</svg>
