<svg width="70" height="66" viewBox="0 0 70 66" fill="none" xmlns="http://www.w3.org/2000/svg">
<path fill-rule="evenodd" clip-rule="evenodd" d="M18.874 19.6124C18.874 19.0994 19.2937 18.6796 19.8068 18.6796C20.3198 18.6796 20.7396 19.0994 20.7396 19.6124C20.7396 20.0167 20.9028 20.382 21.1671 20.6463C21.4314 20.9106 21.7968 21.0738 22.201 21.0738C22.6052 21.0738 22.9628 20.9106 23.2271 20.6463C23.4992 20.3742 23.6624 20.0089 23.6702 19.5969C23.6857 18.6563 22.854 18.4076 22.0067 18.1588C20.4831 17.7079 18.9284 17.2415 18.874 14.8318C18.874 14.7074 18.874 14.8473 18.874 14.7618C18.874 13.8601 19.2471 13.0516 19.8379 12.4609C20.2265 12.0722 20.724 11.7768 21.2682 11.6213V10.6807C21.2682 10.1677 21.688 9.74792 22.201 9.74792C22.714 9.74792 23.1338 10.1677 23.1338 10.6807V11.6213C23.678 11.7768 24.1599 12.0722 24.5564 12.4686C25.1549 13.0672 25.528 13.8989 25.528 14.824C25.528 15.337 25.1083 15.7568 24.5952 15.7568C24.0822 15.7568 23.6624 15.337 23.6624 14.824C23.6624 14.4198 23.4992 14.0544 23.2349 13.7901C22.9706 13.5258 22.6052 13.3626 22.201 13.3626H22.1621C22.1621 13.3626 22.1466 13.3626 22.1388 13.3626C21.7579 13.3781 21.4081 13.5414 21.1516 13.7901C20.8951 14.0389 20.7396 14.3887 20.7396 14.7773C20.7396 14.8939 20.7396 14.7152 20.7396 14.8084C20.7629 15.8656 21.6569 16.1299 22.5353 16.3865C24.0589 16.8373 25.5514 17.2804 25.528 19.6202C25.5125 20.5375 25.1471 21.3692 24.5486 21.9678C24.1599 22.3565 23.678 22.6519 23.1338 22.8073V23.7479C23.1338 24.261 22.714 24.6807 22.201 24.6807C21.688 24.6807 21.2682 24.261 21.2682 23.7479V22.8073C20.724 22.6519 20.2421 22.3565 19.8456 21.9678C19.2471 21.3692 18.874 20.5375 18.874 19.6124ZM52.9062 45.7079C52.9062 45.1949 53.3259 44.7751 53.839 44.7751C54.352 44.7751 54.7718 45.1949 54.7718 45.7079C54.7718 46.221 54.9739 46.6641 55.3082 46.9983C55.6346 47.3248 56.0933 47.5269 56.5908 47.5347C57.0883 47.5347 57.5391 47.3326 57.8656 47.0061C58.1999 46.6718 58.4098 46.2132 58.4098 45.7079C58.4253 44.5186 57.4225 44.2232 56.4042 43.92C54.7018 43.4148 52.9683 42.9017 52.9062 40.2276C52.9062 40.0955 52.9062 40.2199 52.9062 40.1499C52.9062 39.1549 53.3182 38.261 53.9789 37.608C54.4375 37.1494 55.0205 36.8151 55.658 36.6519V35.4159C55.658 35.4159 55.658 35.4003 55.658 35.3926L55.6735 35.2993V35.276C55.6735 35.276 55.6813 35.2604 55.6891 35.2526L55.7124 35.1671L55.7512 35.0816C55.7512 35.0816 55.7513 35.0661 55.759 35.0583L55.7746 35.0194L55.8368 34.9262C55.8368 34.9262 55.8445 34.9106 55.8523 34.9106L55.8679 34.8951L55.8834 34.8795C55.8834 34.8795 55.8989 34.8562 55.9145 34.8484L55.9767 34.7862C55.9767 34.7862 56 34.7707 56.0078 34.7551C56.0078 34.7551 56.0233 34.7474 56.0233 34.7396L56.0389 34.724L56.1088 34.6774C56.1088 34.6774 56.1244 34.6696 56.1244 34.6619L56.1399 34.6463H56.1632L56.1866 34.6308H56.2099L56.2721 34.5919H56.2954L56.3187 34.5763H56.342C56.342 34.5763 56.3576 34.5686 56.3654 34.5608H56.3887C56.3887 34.5608 56.4042 34.553 56.412 34.5452H56.4353L56.4586 34.5375H56.5286C56.5286 34.5375 56.5441 34.5297 56.5519 34.5219H56.6219C56.6219 34.5219 56.6374 34.5219 56.6452 34.5219C56.653 34.5219 56.6607 34.5219 56.6685 34.5219H56.7152L56.7618 34.5375H56.7851C56.7851 34.5375 56.8007 34.5453 56.8084 34.553H56.8318L56.8551 34.5686H56.8784L56.9017 34.5841L56.9639 34.6152H56.9872C56.9872 34.6152 57.0028 34.6308 57.0105 34.6308H57.0339L57.0572 34.6541L57.0727 34.6696L57.0883 34.6852L57.1038 34.7007L57.1427 34.724C57.1427 34.724 57.1582 34.7318 57.1582 34.7396L57.1971 34.7707C57.1971 34.7707 57.2204 34.7862 57.2282 34.8018L57.2904 34.864C57.2904 34.864 57.3059 34.8873 57.3215 34.8951C57.3215 34.8951 57.3293 34.9106 57.337 34.9106L57.3992 35.0039C57.3992 35.0039 57.407 35.0194 57.4148 35.0194L57.4303 35.035L57.4614 35.0972V35.1205L57.5003 35.1827L57.5158 35.2215C57.5158 35.2215 57.5158 35.2371 57.5158 35.2449V35.2682C57.5158 35.2682 57.5236 35.2837 57.5314 35.2915V35.3148L57.5469 35.4081C57.5469 35.4159 57.5469 35.4237 57.5469 35.4314V36.6674C58.1921 36.8306 58.7673 37.1727 59.2182 37.6235C59.8867 38.2921 60.2987 39.2093 60.2987 40.2276C60.2987 40.7407 59.879 41.1605 59.3659 41.1605C58.8529 41.1605 58.4331 40.7407 58.4331 40.2276C58.4331 39.7146 58.231 39.2715 57.8967 38.9373C57.5702 38.6108 57.1116 38.4087 56.6141 38.4009H56.5441C56.0622 38.4164 55.6269 38.6185 55.3082 38.9373C54.9894 39.256 54.7951 39.6835 54.7951 40.1655C54.7951 40.2743 54.7951 40.111 54.7951 40.2043C54.8262 41.518 55.9067 41.8368 56.9639 42.1477C58.6663 42.653 60.3298 43.1505 60.2987 45.7313C60.2832 46.7496 59.8712 47.6669 59.2104 48.3354C58.7596 48.7862 58.1843 49.1283 57.5469 49.2915V50.5275C57.5469 50.5275 57.5469 50.543 57.5469 50.5508L57.5314 50.6441V50.6674C57.5314 50.6674 57.5236 50.683 57.5158 50.6907L57.4925 50.7762L57.4536 50.8617C57.4536 50.8617 57.4536 50.8773 57.4459 50.8851L57.4303 50.9239L57.3681 51.0172C57.3681 51.0172 57.3604 51.0328 57.3526 51.0328L57.337 51.0483L57.3215 51.0639C57.3215 51.0639 57.3059 51.0872 57.2904 51.0949L57.2282 51.1571C57.2282 51.1571 57.2049 51.1727 57.1971 51.1882C57.1971 51.1882 57.1816 51.196 57.1816 51.2038L57.166 51.2193L57.1505 51.2349L57.0961 51.2737C57.0961 51.2737 57.0805 51.2815 57.0805 51.2893L57.065 51.3048L57.0261 51.3204L56.9173 51.367L56.8784 51.3826C56.8784 51.3826 56.8629 51.3826 56.8551 51.3826H56.8318C56.8318 51.3826 56.8162 51.3903 56.8084 51.3981H56.7851L56.7618 51.4059H56.6918C56.6918 51.4059 56.6763 51.4137 56.6685 51.4214H56.5986C56.5986 51.4214 56.583 51.4214 56.5752 51.4214C56.5675 51.4214 56.5597 51.4214 56.5519 51.4214H56.5053L56.4586 51.4059H56.4353C56.4353 51.4059 56.4198 51.3981 56.412 51.3903H56.3887L56.3498 51.3748H56.3265L56.2876 51.3515L56.2487 51.3359C56.2487 51.3359 56.2332 51.3359 56.2254 51.3281H56.2021L56.1788 51.3048L56.0855 51.2426C56.0855 51.2426 56.07 51.2349 56.07 51.2271L56.0311 51.196C56.0311 51.196 56.0078 51.1805 56 51.1649L55.9378 51.1027C55.9378 51.1027 55.9223 51.0794 55.9067 51.0716C55.9067 51.0716 55.8989 51.0561 55.8912 51.0561L55.829 50.9628C55.829 50.9628 55.8212 50.9473 55.8134 50.9473L55.7979 50.9317L55.7668 50.8695V50.8462L55.7279 50.784L55.7124 50.7451C55.7124 50.7451 55.7124 50.7296 55.7124 50.7218V50.6985C55.7124 50.6985 55.7046 50.683 55.6968 50.6752V50.6519L55.6813 50.5586C55.6813 50.5508 55.6813 50.543 55.6813 50.5353V49.2993C55.0361 49.136 54.4609 48.794 54.01 48.3431C53.3415 47.6746 52.9295 46.7574 52.9295 45.739L52.9062 45.7079ZM1.85786 5.47252V15.9356H9.0794V5.47252C9.0794 3.75458 8.16213 2.65852 6.98057 2.18434C6.50638 1.99778 5.99334 1.9045 5.46474 1.9045C4.93615 1.9045 4.4231 1.99778 3.94892 2.18434C2.76735 2.65852 1.85008 3.75458 1.85008 5.47252H1.85786ZM64.7296 34.8251C62.6463 32.7418 59.7701 31.4514 56.5908 31.4514C53.4114 31.4514 50.5353 32.7418 48.4597 34.8251C46.3765 36.9084 45.0861 39.7846 45.0861 42.9639C45.0861 46.1433 46.3765 49.0194 48.4597 51.1027C50.543 53.186 53.4192 54.4764 56.5908 54.4764C59.7624 54.4764 62.6463 53.186 64.7218 51.1027C66.8051 49.0194 68.0955 46.1433 68.0955 42.9639C68.0955 39.7846 66.8051 36.9084 64.7218 34.8251H64.7296ZM57.5236 29.6247V5.37146C57.5236 3.8945 56.9173 2.55747 55.9534 1.57801C54.9817 0.60633 53.6369 0 52.1599 0L5.6824 0.0388673C5.61244 0.0388673 5.54248 0.0388673 5.46474 0.0388673C4.71849 0.0388673 3.96446 0.17879 3.26485 0.458634C1.43032 1.19711 0 2.86841 0 5.47252V16.8684C0 17.3815 0.419767 17.8012 0.932815 17.8012H9.0794V61.1616C9.0794 61.4647 9.2271 61.7601 9.49917 61.9389L14.1244 64.9706C14.4275 65.1805 14.8318 65.196 15.1582 64.9783L19.2937 62.2732L23.4137 64.9706C23.7168 65.1805 24.121 65.196 24.4475 64.9783L28.583 62.2732L32.7029 64.9706C33.0061 65.1805 33.4103 65.196 33.7368 64.9783L37.8723 62.2732L41.9922 64.9706C42.2954 65.1805 42.6996 65.196 43.0261 64.9783L47.1616 62.2732L51.2971 64.9783C51.6002 65.1727 52.0044 65.1805 52.3232 64.9706L57.0805 61.7912C57.3681 61.6358 57.5625 61.3248 57.5625 60.975V56.2876C60.8817 56.0622 63.8667 54.6163 66.0822 52.4087C68.4997 49.9911 70 46.6485 70 42.9561C70 39.2637 68.4997 35.9212 66.0822 33.5036C63.8667 31.2882 60.8817 29.8501 57.5625 29.6169L57.5236 29.6247ZM22.201 28.2099C21.688 28.2099 21.2682 27.7901 21.2682 27.2771C21.2682 26.764 21.688 26.3443 22.201 26.3443H49.4392C49.9522 26.3443 50.372 26.764 50.372 27.2771C50.372 27.7901 49.9522 28.2099 49.4392 28.2099H22.201ZM22.201 53.5436C21.688 53.5436 21.2682 53.1238 21.2682 52.6108C21.2682 52.0977 21.688 51.678 22.201 51.678H46.4697C45.3504 50.3798 44.4797 48.864 43.92 47.2082H22.201C21.688 47.2082 21.2682 46.7884 21.2682 46.2754C21.2682 45.7624 21.688 45.3426 22.201 45.3426H43.4381C43.2982 44.5652 43.2282 43.7723 43.2282 42.9561C43.2282 42.2487 43.2826 41.5569 43.3914 40.8728H22.201C21.688 40.8728 21.2682 40.4531 21.2682 39.94C21.2682 39.427 21.688 39.0072 22.201 39.0072H43.819C44.3243 37.3592 45.1482 35.8434 46.2054 34.5375H22.201C21.688 34.5375 21.2682 34.1177 21.2682 33.6047C21.2682 33.0916 21.688 32.6718 22.201 32.6718H48.0478C50.1388 30.9306 52.774 29.8112 55.658 29.6169V5.37146C55.658 4.40755 55.2615 3.52915 54.6241 2.89173C53.9867 2.2543 53.116 1.86563 52.1521 1.86563L9.70128 1.89672C10.4631 2.7829 10.9373 3.97224 10.9373 5.48029V60.6641L14.6452 63.0894L18.7651 60.392C19.0683 60.1821 19.4725 60.1666 19.799 60.3842L23.9345 63.0894L28.0544 60.392C28.3576 60.1821 28.7618 60.1666 29.0883 60.3842L33.2238 63.0894L37.3437 60.392C37.6469 60.1821 38.0511 60.1666 38.3776 60.3842L42.513 63.0894L46.633 60.392C46.9361 60.1821 47.3404 60.1666 47.6669 60.3842L51.7946 63.0894L55.6813 60.4931V56.3032C52.9683 56.1166 50.4808 55.1216 48.452 53.5514H22.201V53.5436ZM31.0394 21.8823C30.5264 21.8823 30.1066 21.4625 30.1066 20.9495C30.1066 20.4364 30.5264 20.0167 31.0394 20.0167H49.447C49.96 20.0167 50.3798 20.4364 50.3798 20.9495C50.3798 21.4625 49.96 21.8823 49.447 21.8823H31.0394ZM31.0394 15.5469C30.5264 15.5469 30.1066 15.1272 30.1066 14.6141C30.1066 14.1011 30.5264 13.6813 31.0394 13.6813H49.447C49.96 13.6813 50.3798 14.1011 50.3798 14.6141C50.3798 15.1272 49.96 15.5469 49.447 15.5469H31.0394ZM17.5836 28.2099C17.0705 28.2099 16.6507 27.7901 16.6507 27.2771C16.6507 26.764 17.0705 26.3443 17.5836 26.3443H17.9023C18.4153 26.3443 18.8351 26.764 18.8351 27.2771C18.8351 27.7901 18.4153 28.2099 17.9023 28.2099H17.5836ZM17.5836 34.5452C17.0705 34.5452 16.6507 34.1255 16.6507 33.6124C16.6507 33.0994 17.0705 32.6796 17.5836 32.6796H17.9023C18.4153 32.6796 18.8351 33.0994 18.8351 33.6124C18.8351 34.1255 18.4153 34.5452 17.9023 34.5452H17.5836ZM17.5836 40.8806C17.0705 40.8806 16.6507 40.4609 16.6507 39.9478C16.6507 39.4348 17.0705 39.015 17.5836 39.015H17.9023C18.4153 39.015 18.8351 39.4348 18.8351 39.9478C18.8351 40.4609 18.4153 40.8806 17.9023 40.8806H17.5836ZM17.5836 47.216C17.0705 47.216 16.6507 46.7962 16.6507 46.2832C16.6507 45.7701 17.0705 45.3504 17.5836 45.3504H17.9023C18.4153 45.3504 18.8351 45.7701 18.8351 46.2832C18.8351 46.7962 18.4153 47.216 17.9023 47.216H17.5836ZM17.5836 53.5514C17.0705 53.5514 16.6507 53.1316 16.6507 52.6185C16.6507 52.1055 17.0705 51.6857 17.5836 51.6857H17.9023C18.4153 51.6857 18.8351 52.1055 18.8351 52.6185C18.8351 53.1316 18.4153 53.5514 17.9023 53.5514H17.5836Z" fill="#00A3E4"/>
</svg>
