<svg width="104" height="69" viewBox="0 0 104 69" fill="none" xmlns="http://www.w3.org/2000/svg">
<path d="M53.2288 13.49C41.8288 13.49 32.5488 22.77 32.5488 34.17C32.5488 45.57 41.8288 54.85 53.2288 54.85C64.6288 54.85 73.9088 45.58 73.9088 34.17C73.9088 22.76 64.6288 13.49 53.2288 13.49ZM53.2288 51.69C43.5588 51.69 35.6988 43.83 35.6988 34.16C35.6988 24.49 43.5588 16.63 53.2288 16.63C62.8988 16.63 70.7588 24.5 70.7588 34.16C70.7588 43.83 62.8988 51.69 53.2288 51.69Z" fill="#00A686"/>
<path d="M53.2284 0.840088C34.8484 0.840088 19.8984 15.7901 19.8984 34.1601C19.8984 52.5301 34.8484 67.4801 53.2184 67.4801C71.5884 67.4801 86.5384 52.5301 86.5384 34.1601C86.5384 15.7901 71.5884 0.840088 53.2184 0.840088H53.2284ZM53.2284 64.3401C36.5784 64.3401 23.0484 50.8101 23.0484 34.1601C23.0484 17.5101 36.5784 3.99009 53.2284 3.99009C69.8784 3.99009 83.4084 17.5301 83.4084 34.1701C83.4084 50.8101 69.8684 64.3501 53.2284 64.3501V64.3401Z" fill="#00A3E4"/>
<path d="M20.578 19.0501C20.508 17.4401 20.368 15.8301 20.228 14.2301L20.178 13.6901C20.048 12.1401 19.908 10.1201 19.778 8.23007C19.608 5.71007 19.448 3.38007 19.318 2.52007C19.198 1.66007 18.378 1.06007 17.548 1.18007C16.688 1.31007 16.088 2.10007 16.208 2.96007C16.328 3.78007 16.468 6.02007 16.638 8.44007C16.748 10.0501 16.868 11.6901 16.978 13.1201H11.878V2.74007C11.878 1.87007 11.168 1.17007 10.308 1.17007C9.44801 1.17007 8.73801 1.88007 8.73801 2.74007V13.1201H3.61801C3.73801 11.6901 3.84801 10.0501 3.96801 8.44007C4.12801 6.02007 4.27801 3.78007 4.39801 2.95007C4.51801 2.09007 3.91801 1.30007 3.05801 1.18007C2.21801 1.06007 1.39801 1.66007 1.28801 2.52007C1.16801 3.38007 1.00801 5.70007 0.838014 8.22007C0.708014 10.1201 0.568014 12.1301 0.438014 13.6901L0.358014 14.6001C0.228014 16.0801 0.0980137 17.5601 0.0280137 19.0501C-0.171986 23.7901 0.608014 26.4401 5.34801 28.4901C5.41801 28.5701 5.50801 28.7801 5.52801 28.8501L5.22801 36.2101C4.90801 44.1201 4.43801 55.9701 4.29801 59.3001C4.20801 61.4401 4.06801 64.6701 6.00801 66.7001C7.04801 67.7901 8.48801 68.3401 10.318 68.3501C12.128 68.3501 13.578 67.7901 14.608 66.7101C16.548 64.6801 16.418 61.4501 16.328 59.3001C16.208 56.5301 15.858 47.8901 15.568 40.5201C15.328 34.4601 15.118 29.2501 15.098 28.8901C15.118 28.7901 15.178 28.5801 15.068 28.6301C20.018 26.4401 20.798 23.8001 20.598 19.0601L20.578 19.0501ZM13.768 25.7501C12.618 26.2601 11.878 27.8701 11.928 28.9901C11.948 29.4101 12.158 34.6001 12.398 40.6501C12.688 48.0301 13.038 56.6701 13.158 59.4301C13.228 61.0401 13.328 63.4801 12.308 64.5401C11.448 65.4401 9.10802 65.4301 8.25801 64.5401C7.24801 63.4801 7.35801 60.9501 7.41801 59.4401C7.55801 56.1101 8.02801 44.2501 8.34801 36.3501L8.63801 29.0101C8.70801 27.8901 7.95801 26.2701 6.79801 25.7601C3.54801 24.3301 2.96801 23.2801 3.14801 19.2001C3.19801 18.2201 3.27801 17.2401 3.35801 16.2701H17.198C17.278 17.2501 17.368 18.2301 17.408 19.2001C17.588 23.2901 17.008 24.3301 13.758 25.7601L13.768 25.7501Z" fill="#00A3E4"/>
<path d="M103.938 59.3C103.868 57.63 103.918 31.12 103.958 15.29L103.978 4.02C103.978 1.06 102.248 0 100.628 0C99.298 0 97.988 0.67 97.208 1.3C91.548 5.82 89.508 20.04 88.408 27.68L88.118 29.68C87.478 33.87 87.238 38.08 91.898 39.48C92.518 39.66 92.868 39.96 92.828 40.42C92.628 45.39 92.378 50.28 92.178 54.05C92.058 56.27 91.968 58.1 91.918 59.32C91.838 61.46 91.698 64.69 93.638 66.73C94.678 67.81 96.118 68.36 97.928 68.37H97.938C99.748 68.37 101.198 67.81 102.228 66.73C104.168 64.69 104.028 61.45 103.938 59.32V59.3ZM99.958 64.53C99.528 64.97 98.868 65.19 97.938 65.2C96.998 65.2 96.338 64.97 95.908 64.53C94.888 63.48 94.998 61.04 95.068 59.43C95.118 58.24 95.218 56.44 95.328 54.26C95.528 50.48 95.788 45.54 95.958 40.73C96.158 39.63 95.738 37.32 92.818 36.45C91.458 36.05 90.388 35.73 91.238 30.14L91.538 28.12C92.498 21.43 94.498 7.49 99.188 3.75C99.608 3.41 100.238 3.14 100.688 3.11C100.688 3.11 100.838 3.32 100.838 4.01L100.818 15.28C100.778 36.74 100.738 57.83 100.798 59.44C100.868 60.95 100.978 63.47 99.958 64.54V64.53Z" fill="#00A3E4"/>
</svg>
