<svg width="120" height="79" viewBox="0 0 120 79" fill="none" xmlns="http://www.w3.org/2000/svg">
<path d="M21.0013 33.8198H16.7901C15.2904 33.8198 14.0732 35.037 14.0732 36.5367V75.823C14.0732 77.3227 15.2904 78.5399 16.7901 78.5399H21.0013C22.5011 78.5399 23.7182 77.3227 23.7182 75.823V67.5093C23.7182 67.2105 23.9627 66.9659 24.2616 66.9659H94.9009C95.1997 66.9659 95.4442 67.2105 95.4442 67.5093V75.823C95.4442 77.3227 96.6614 78.5399 98.1611 78.5399H102.356C103.856 78.5399 105.073 77.3227 105.073 75.823V57.3481H105.046C104.453 46.2686 95.3084 37.5854 84.2126 37.5691H43.8124C42.8615 37.5691 42.0899 38.3462 42.0953 39.2971C42.0953 39.5253 42.1442 39.7535 42.2311 39.9654L42.2855 40.0904C44.5894 45.5405 44.5677 51.697 42.2366 57.1362C42.2366 57.2123 42.1931 57.2884 42.1714 57.3644H24.2616C23.9627 57.3644 23.7182 57.1199 23.7182 56.8211V36.5367C23.7182 35.037 22.5011 33.8198 21.0013 33.8198ZM44.5296 39.7209H84.2506C94.1456 39.7372 102.318 47.4478 102.905 57.3264H44.5133C46.7466 51.6644 46.7466 45.3666 44.5133 39.7046L44.5351 39.7209H44.5296ZM24.2616 59.4999H102.916V75.8013C102.916 76.1001 102.671 76.3447 102.372 76.3447H98.1611C97.8623 76.3447 97.6178 76.1001 97.6178 75.8013V67.5093C97.6178 66.0096 96.4006 64.7924 94.9009 64.7924H24.2616C22.7619 64.7924 21.5447 66.0096 21.5447 67.5093V75.823C21.5447 76.1219 21.3002 76.3664 21.0013 76.3664H16.7901C16.4913 76.3664 16.2468 76.1219 16.2468 75.823V36.5367C16.2468 36.2379 16.4913 35.9933 16.7901 35.9933H21.0013C21.3002 35.9933 21.5447 36.2379 21.5447 36.5367V56.7993C21.5556 58.2936 22.7673 59.4999 24.2616 59.4999Z" fill="#00A3E4"/>
<path d="M42.193 48.4913C42.193 44.2257 38.7316 40.7644 34.4661 40.7644C30.2006 40.7644 26.7393 44.2257 26.7393 48.4913C26.7393 52.7568 30.2006 56.2181 34.4661 56.2181C38.7316 56.2181 42.1875 52.7568 42.193 48.4913ZM28.9182 48.4913C28.9182 45.4266 31.4069 42.9379 34.4715 42.9379C37.5362 42.9379 40.0249 45.4266 40.0249 48.4913C40.0249 51.5559 37.5362 54.0446 34.4715 54.0446C31.4069 54.0446 28.9236 51.5559 28.9236 48.4913H28.9182Z" fill="#00A686"/>
<path d="M116.169 24.1749L61.5811 0.380365L61.4616 0.336895C61.2986 0.271689 61.1301 0.211918 60.9617 0.163014C60.7824 0.11411 60.5976 0.0652055 60.4183 0.0326027H60.2499L59.9401 0H59.2609L58.9675 0.0271689H58.8153L58.7121 0.0597717C58.5436 0.0923744 58.3752 0.135845 58.1687 0.184749C58.0111 0.233653 57.8535 0.287991 57.7014 0.353196H57.6308L2.99402 24.1749C1.1737 24.9683 0 26.7668 0 28.7502C0 29.4348 0.141279 30.1141 0.418402 30.7389C1.52146 33.2548 4.45571 34.4068 6.97698 33.32L58.4947 10.8676C59.1903 10.5687 59.9727 10.5687 60.6683 10.8676L112.175 33.32C114.729 34.347 117.636 33.1081 118.663 30.5542C119.652 28.0981 118.549 25.2997 116.153 24.1749H116.169ZM116.544 29.7826C115.973 31.0867 114.452 31.679 113.148 31.1139L61.6463 8.66689C60.3314 8.09635 58.8425 8.09635 57.5275 8.66689L6.02064 31.103C4.71653 31.6681 3.2005 31.0758 2.61909 29.7772C2.47781 29.4511 2.40717 29.0979 2.40173 28.7393C2.40173 27.7123 3.01032 26.7777 3.95036 26.3702L58.4947 2.59735L58.5817 2.56475L58.8208 2.47781C58.9349 2.44521 59.049 2.41804 59.1685 2.3963H59.375C59.5 2.39087 59.625 2.39087 59.7499 2.3963H59.8478L60.0271 2.42347C60.114 2.43977 60.1955 2.45607 60.277 2.48324L60.5541 2.58105L60.6356 2.61365L115.185 26.3919C116.126 26.7994 116.734 27.7286 116.734 28.7556C116.745 29.1088 116.68 29.4566 116.544 29.7826Z" fill="#00A3E4"/>
</svg>
