<svg width="47" height="82" viewBox="0 0 47 82" fill="none" xmlns="http://www.w3.org/2000/svg">
<path d="M32.057 48.6344C30.8655 48.6344 29.7223 48.1756 28.877 47.3222L24.2881 42.7333C23.9741 42.4193 23.4106 42.4193 23.0805 42.7333L18.4755 47.3383C17.6302 48.1836 16.5031 48.6506 15.2955 48.6506H14.3857L20.1983 54.4632C22.0098 56.2746 24.9644 56.2746 26.7758 54.4632L32.6045 48.6344H32.057Z" fill="#00A3E4"/>
<path d="M15.2955 32.4043C16.487 32.4043 17.6302 32.8632 18.4755 33.7166L23.0805 38.3216C23.4106 38.6517 23.958 38.6517 24.2881 38.3216L28.877 33.7327C29.7223 32.8874 30.8494 32.4204 32.057 32.4204H32.6045L26.7758 26.5917C24.9644 24.7803 22.0098 24.7803 20.1983 26.5917L14.3857 32.4043H15.2955Z" fill="#00A3E4"/>
<path d="M37.4352 37.243L33.909 33.7168C33.8365 33.749 33.7479 33.7732 33.6674 33.7732H32.0734C31.2361 33.7732 30.4311 34.1032 29.8434 34.6909L25.2545 39.2798C24.8197 39.7146 24.2642 39.9239 23.7007 39.9239C23.1371 39.9239 22.5816 39.7065 22.1469 39.2798L17.5419 34.6748C16.9542 34.0871 16.1491 33.757 15.3118 33.757H13.3394C13.2509 33.757 13.1784 33.7409 13.1059 33.7168L9.56363 37.2591C7.75223 39.0705 7.75223 42.0251 9.56363 43.8365L13.1059 47.3788C13.1784 47.3466 13.267 47.3386 13.3394 47.3386H15.3118C16.1491 47.3386 16.9542 47.0085 17.5419 46.4208L22.1469 41.8158C22.9842 40.9785 24.4333 40.9785 25.2545 41.8158L29.8434 46.4047C30.4311 46.9924 31.2361 47.3225 32.0734 47.3225H33.6674C33.756 47.3225 33.8365 47.3386 33.909 47.3627L37.4352 43.8365C39.2466 42.009 39.2466 39.0705 37.4352 37.243Z" fill="#00A3E4"/>
<path d="M41.767 81.3282C44.6572 81.3282 46.992 78.9854 47 76.0952V5.23296C47 2.34275 44.6572 0.0080507 41.767 0H5.23296C2.34275 0 0 2.34275 0 5.23296V76.0791C0 78.9693 2.34275 81.304 5.23296 81.3121L41.767 81.3282ZM32.1545 2.43131L31.2689 4.04145C31.0194 4.49229 30.5363 4.77407 30.0211 4.77407H16.9789C16.4637 4.77407 15.9806 4.49229 15.7311 4.04145L14.8455 2.43131H32.1545ZM2.41521 76.0791V5.23296C2.41521 3.67917 3.67917 2.41521 5.23296 2.41521H12.0841L13.6218 5.16855C14.298 6.38421 15.5862 7.14097 16.9789 7.14097H30.0211C31.4138 7.14097 32.702 6.38421 33.3782 5.16855L34.9159 2.41521H41.767C43.3208 2.41521 44.5848 3.67917 44.5848 5.23296V76.0791C44.5848 77.6329 43.3208 78.8969 41.767 78.8969H5.23296C3.67917 78.8969 2.41521 77.6329 2.41521 76.0791Z" fill="#00A3E4"/>
<path d="M27.5251 71.7561H19.4744C18.5851 71.7561 17.8643 72.477 17.8643 73.3662C17.8643 74.2555 18.5851 74.9764 19.4744 74.9764H27.5251C28.4144 74.9764 29.1352 74.2555 29.1352 73.3662C29.1352 72.477 28.4144 71.7561 27.5251 71.7561Z" fill="#00A3E4"/>
</svg>
