<svg width="89" height="58" viewBox="0 0 89 58" fill="none" xmlns="http://www.w3.org/2000/svg">
<path d="M60.5804 57.2587C44.9121 57.2587 32.1611 44.4144 32.1611 28.6216C32.1611 12.8287 44.9121 0 60.5804 0C76.2487 0 88.9997 12.8443 88.9997 28.6216C88.9997 44.3988 76.2487 57.2587 60.5804 57.2587ZM60.5804 3.11188C46.6236 3.11188 35.273 14.5558 35.273 28.6216C35.273 42.6873 46.6236 54.1468 60.5804 54.1468C74.5372 54.1468 85.8878 42.695 85.8878 28.6216C85.8878 14.5481 74.5372 3.11188 60.5804 3.11188Z" fill="#00A3E4"/>
<path d="M12.0042 1.77368C11.1406 1.77368 10.4404 2.46608 10.4404 3.32962C10.4404 3.32962 10.4404 3.3374 10.4404 3.34518C10.4404 4.20873 11.1484 4.90113 12.0042 4.90113H31.7102C32.5737 4.90113 33.2739 4.20873 33.2739 3.34518C33.2739 2.48164 32.5815 1.78146 31.7179 1.78146C31.7179 1.78146 31.7102 1.78146 31.7024 1.78146H12.0042V1.77368Z" fill="#00A3E4"/>
<path d="M60.2932 10.1602C59.4297 10.1602 58.7373 10.8681 58.7373 11.7239V31.0954C58.7373 31.9589 59.4297 32.6591 60.2932 32.6669H71.4338C72.2973 32.6669 72.9975 31.9745 72.9975 31.1109C72.9975 31.1109 72.9975 31.1031 72.9975 31.0954C72.9975 30.2318 72.2896 29.5394 71.4338 29.5394H61.8414V11.7317C61.8414 10.8681 61.149 10.1679 60.2855 10.1679L60.2932 10.1602Z" fill="#00A3E4"/>
<path d="M4.49634 14.4314C3.63279 14.4314 2.93262 15.1238 2.93262 15.9873C2.93262 16.8509 3.64057 17.5433 4.49634 17.5433H24.2023C25.0659 17.5433 25.7661 16.8509 25.7661 15.9873C25.7661 15.1238 25.0581 14.4314 24.2023 14.4314H4.49634Z" fill="#00A3E4"/>
<path d="M1.56372 27.0734C0.707954 27.0656 0 27.7658 0 28.6216C0 29.4851 0.692394 30.1853 1.55594 30.1853C1.55594 30.1853 1.56372 30.1853 1.5715 30.1853H21.2775C22.1411 30.1853 22.8412 29.4929 22.8412 28.6294C22.8412 28.6294 22.8412 28.6216 22.8412 28.6138C22.8412 27.7503 22.1333 27.0579 21.2775 27.0579H1.56372V27.0734Z" fill="#00A3E4"/>
<path d="M4.49634 39.708C3.63279 39.708 2.93262 40.4004 2.93262 41.2639C2.93262 42.1275 3.62501 42.8276 4.48856 42.8276C4.48856 42.8276 4.49634 42.8276 4.50412 42.8276H24.2101C25.0737 42.8276 25.7738 42.1352 25.7738 41.2717C25.7738 41.2717 25.7738 41.2639 25.7738 41.2561C25.7738 40.3926 25.0659 39.7002 24.2101 39.7002H4.49634V39.708Z" fill="#00A3E4"/>
<path d="M12.0042 52.3498C11.1406 52.3498 10.4404 53.0422 10.4404 53.9058C10.4404 54.7693 11.1328 55.4695 11.9964 55.4695C11.9964 55.4695 12.0042 55.4695 12.0119 55.4695H31.7179C32.5815 55.4695 33.2817 54.7771 33.2817 53.9135C33.2817 53.9135 33.2817 53.9058 33.2817 53.898C33.2817 53.0344 32.5737 52.342 31.7179 52.342H12.0042V52.3498Z" fill="#00A3E4"/>
</svg>
