<svg width="87" height="83" viewBox="0 0 87 83" fill="none" xmlns="http://www.w3.org/2000/svg">
<path d="M85.156 44.6973C84.2121 43.2671 82.7247 42.2946 81.0371 42.0086C79.2447 41.6844 77.395 42.1039 75.9172 43.1718L59.6705 55.0422C57.3822 52.6776 52.9296 51.7432 48.2387 50.7707C44.587 50.008 40.8114 49.2262 38.7043 47.7483C30.5619 42.0372 21.7807 43.4006 12.599 51.7909C10.5777 49.7982 7.47902 49.3978 5.01914 50.8089L3.62711 51.6098C0.623768 53.3546 -0.40595 57.1969 1.31978 60.2194L12.2367 79.1261C13.0662 80.5754 14.4487 81.6337 16.06 82.0532C16.5939 82.1962 17.1565 82.2725 17.7095 82.2725C18.8059 82.2725 19.8833 81.9769 20.8368 81.4335L22.2288 80.6326C24.5838 79.2596 25.7947 76.5328 25.2417 73.8631C25.4896 73.7106 25.7375 73.5485 26.014 73.3769C27.425 72.4711 29.351 71.2221 30.5237 71.3937C32.0969 71.6225 34.0133 71.9753 36.0346 72.3567C40.9067 73.272 46.7895 74.3875 52.0048 74.3875C56.1427 74.3875 59.8707 73.6915 62.3306 71.6416L83.7068 53.8504C86.4813 51.6479 87.1106 47.6911 85.1751 44.7259L85.156 44.6973ZM23.1727 76.2563C22.8867 77.3432 22.1716 78.2776 21.1991 78.8401L19.807 79.641C17.7762 80.8042 15.1828 80.1082 14.0006 78.0869L3.09319 59.1896C1.92998 57.1588 2.626 54.5654 4.6473 53.3832L6.03932 52.5823C6.67813 52.2104 7.40275 52.0197 8.14643 52.0197C8.52781 52.0197 8.89965 52.0674 9.26196 52.1628C10.3489 52.4488 11.2833 53.1639 11.8458 54.1364L22.7627 73.0432C23.3252 74.0157 23.4778 75.1789 23.1822 76.2658L23.1727 76.2563ZM82.3815 52.2486L61.0053 70.0398C56.1809 74.0538 44.7491 71.899 36.4065 70.3259C34.3566 69.9445 32.4306 69.5726 30.8098 69.3438C28.8743 69.0673 26.6718 70.4879 24.8984 71.6321L24.4789 71.9086L13.8194 53.4499C22.3718 45.5554 30.1328 44.2397 37.5315 49.4264C39.9819 51.1426 43.9673 51.9721 47.8192 52.773C52.4434 53.7359 57.2106 54.7275 58.6789 57.073C59.1842 57.9502 59.2986 59.0085 58.9745 59.9715C58.7933 60.9916 58.1831 61.8879 57.3059 62.4313C55.1607 63.6518 51.4137 62.5362 48.4008 61.64C47.6666 61.4207 46.9706 61.2109 46.3318 61.0489C45.7788 60.9154 45.2258 61.2586 45.0923 61.8021C44.9589 62.3455 45.283 62.889 45.8265 63.032C46.4176 63.1846 47.1041 63.3848 47.8192 63.6041C51.2039 64.6147 55.4181 65.8637 58.3261 64.2143C59.6991 63.3943 60.6621 62.0404 60.9767 60.4768C61.339 59.2468 61.2818 57.9406 60.8242 56.7488L77.1471 44.8308C78.1673 44.0966 79.4449 43.8011 80.6844 44.0299C81.819 44.2206 82.8201 44.8689 83.4589 45.8319C84.8223 47.9295 84.3551 50.7135 82.391 52.2581L82.3815 52.2486Z" fill="#00A3E4"/>
<path d="M17.7092 82.7399C17.1085 82.7399 16.5174 82.6636 15.9358 82.5015C14.21 82.0439 12.7131 80.8997 11.8169 79.3456L0.899979 60.4484C-0.959234 57.2162 0.156294 53.0592 3.37893 51.1905L4.77096 50.3896C7.27851 48.9499 10.4249 49.274 12.5987 51.1333C21.8471 42.8383 30.7237 41.5607 38.9805 47.3481C40.9923 48.7592 44.7107 49.5315 48.3052 50.2847C52.9294 51.2477 57.2675 52.1534 59.7274 54.4131L75.6499 42.7811C77.2231 41.637 79.2253 41.1888 81.1322 41.5321C82.9342 41.8372 84.5551 42.8955 85.5657 44.4305C87.6633 47.6246 86.9864 51.8197 84.0021 54.1938L62.6354 71.9755C60.3186 73.9015 56.848 74.8358 52.0045 74.8358C46.7511 74.8358 40.7634 73.7108 35.9485 72.805C34.0321 72.4427 32.0394 72.0709 30.4567 71.842C29.4556 71.6895 27.5392 72.9385 26.2711 73.7585C26.0804 73.8824 25.9183 73.9873 25.7753 74.0826C26.2139 76.8476 24.9172 79.6126 22.4764 81.0332L21.0844 81.8341C20.0642 82.4253 18.901 82.7399 17.7187 82.7399H17.7092ZM8.14615 50.4468C7.15457 50.4468 6.15345 50.6947 5.24768 51.2191L3.85565 52.02C1.08113 53.6313 0.127691 57.1971 1.72947 59.9717L12.6464 78.8784C13.4092 80.2037 14.6963 81.1953 16.1837 81.5862C17.6615 81.9867 19.2824 81.7769 20.5981 81.0142L21.9901 80.2133C24.1735 78.9452 25.2891 76.4281 24.7742 73.9587L24.7075 73.6345L24.9935 73.4629C25.2223 73.3199 25.4511 73.1673 25.699 73.0148C27.3008 71.9755 29.2268 70.7265 30.5902 70.9267C32.192 71.1556 34.1847 71.5369 36.1202 71.8992C40.8874 72.7955 46.8273 73.9205 51.995 73.9205C56.6097 73.9205 59.88 73.0529 62.0157 71.2795L83.3919 53.4883C84.4788 52.6206 85.2129 51.486 85.5753 50.2465L82.8961 52.4776C82.8389 52.5348 82.7721 52.5825 82.7054 52.6302L61.3292 70.4309C56.3332 74.5879 44.7774 72.4046 36.3395 70.8218L35.7674 70.717C33.9368 70.3737 32.211 70.0496 30.7523 69.8398C28.9884 69.5824 26.8718 70.9553 25.1651 72.0518L24.3165 72.5953L13.2089 53.3738L13.4854 53.1164C22.2285 45.0407 30.1802 43.7155 37.7982 49.0547C40.1628 50.7137 44.1005 51.5337 47.9047 52.3251C52.6338 53.3071 57.5059 54.3273 59.0791 56.8444C59.6607 57.855 59.7846 59.0564 59.4223 60.1433C59.2316 61.2302 58.5451 62.2409 57.544 62.8606C55.2081 64.1859 51.3466 63.0418 48.2575 62.1169C47.5233 61.8976 46.8273 61.6879 46.1981 61.5353C46.0646 61.5067 45.912 61.5353 45.7881 61.6021C45.6641 61.6783 45.5783 61.8023 45.5402 61.9453C45.4734 62.2409 45.6451 62.5269 45.9311 62.6032C46.4936 62.7462 47.142 62.9369 47.8284 63.1371L47.9429 63.1657C51.2418 64.1477 55.3511 65.3682 58.078 63.8236C59.3174 63.0799 60.2041 61.8309 60.4997 60.4007C60.8334 59.2375 60.7857 58.0266 60.3662 56.9302L60.2327 56.5869L76.8512 44.4592C77.9763 43.6487 79.3969 43.3246 80.7604 43.5724C82.0094 43.7822 83.1344 44.5164 83.84 45.5747C84.9078 47.2146 84.965 49.2168 84.1451 50.8472L85.5943 50.1226C86.052 48.4255 85.7945 46.5567 84.7553 44.974C83.8877 43.6583 82.5052 42.7525 80.9511 42.4855C79.2921 42.1804 77.5568 42.5809 76.1934 43.5629L59.613 55.6716L59.327 55.3761C57.1436 53.1069 52.7673 52.2011 48.1335 51.2381C44.4056 50.4563 40.6013 49.665 38.4275 48.1394C30.4948 42.5713 21.9139 43.9252 12.9134 52.1439L12.5797 52.449L12.2555 52.1344C11.14 51.0284 9.64305 50.4563 8.14615 50.4563V50.4468ZM30.3042 68.8292C30.4949 68.8292 30.6855 68.8387 30.8762 68.8673C32.3541 69.077 34.0893 69.4012 35.9295 69.7445L36.492 69.8493C44.7488 71.4035 56.0471 73.5296 60.6999 69.6682L78.9107 54.518L78.4149 54.7659L82.0856 51.8769C83.8686 50.4754 84.2786 47.9869 83.0486 46.0895C82.4956 45.2505 81.5994 44.6689 80.5983 44.4973C79.4827 44.2971 78.3291 44.5545 77.4138 45.2124L61.3769 56.9207C61.7583 58.1125 61.7773 59.4091 61.4245 60.6105C61.0908 62.2599 60.042 63.7378 58.5642 64.6245C55.4655 66.3788 51.1464 65.0917 47.6759 64.0619L47.5615 64.0333C46.8941 63.8331 46.2553 63.6424 45.6927 63.4994C44.8918 63.2801 44.4247 62.4888 44.6153 61.6974C44.7107 61.3065 44.949 60.9728 45.2923 60.763C45.6355 60.5533 46.036 60.4865 46.4269 60.5819C47.0752 60.744 47.7808 60.9537 48.5245 61.173C51.4515 62.0406 55.0937 63.1276 57.0578 62.012C57.811 61.5448 58.3354 60.763 58.4975 59.8763C58.793 58.9801 58.6977 58.0648 58.2591 57.302C56.9148 55.1472 52.2429 54.1747 47.7236 53.2308C43.8049 52.4204 39.7719 51.5718 37.2548 49.808C30.1421 44.8215 22.6671 46.0419 14.4198 53.5359L24.6407 71.2318C26.3092 70.1544 28.3496 68.8292 30.3042 68.8292ZM17.6996 80.6805C16.0597 80.6805 14.4675 79.8319 13.5903 78.3254L2.68292 59.4282C1.39577 57.1781 2.16806 54.2796 4.40865 52.9734L5.80068 52.1725C6.86853 51.5528 8.18428 51.3811 9.38562 51.7053C10.587 52.02 11.6357 52.8208 12.2555 53.8982L23.1724 72.805C23.7921 73.8824 23.9638 75.1886 23.6396 76.39C23.325 77.5913 22.5241 78.6401 21.4467 79.2598L20.0546 80.0607C19.311 80.4802 18.5101 80.6805 17.7092 80.6805H17.6996ZM8.14615 52.4871C7.48827 52.4871 6.83993 52.6588 6.2774 52.9925L4.88537 53.7934C3.0929 54.8326 2.47316 57.1495 3.50288 58.9515L14.4198 77.8487C15.4591 79.6412 17.7759 80.2609 19.5779 79.2312L20.97 78.4303C21.8281 77.9345 22.4669 77.105 22.7243 76.1421C22.9817 75.1791 22.8482 74.1398 22.3524 73.2817L11.4355 54.375C10.9397 53.5169 10.1007 52.878 9.14726 52.6206C8.82309 52.5348 8.48939 52.4871 8.15568 52.4871H8.14615Z" fill="#00A3E4"/>
<path d="M46.3232 18.0676C46.3232 15.255 48.8689 12.919 52.1678 12.5091V10.8596C52.1869 10.2971 52.6541 9.84895 53.2262 9.86802C53.7696 9.88709 54.2082 10.3161 54.2177 10.8596V12.5091C56.0388 12.6902 57.7264 13.5674 58.9182 14.9499C59.2615 15.398 59.1757 16.0463 58.7275 16.3896C58.2985 16.7233 57.6787 16.6565 57.326 16.2466C56.2677 15.0929 54.7612 14.4541 53.188 14.5018C50.5279 14.5018 48.3636 16.1035 48.3636 18.0676C48.3636 20.0317 50.5279 21.6335 53.188 21.6335C56.9732 21.6335 60.0624 24.1506 60.0624 27.2493C60.0624 30.0619 57.5167 32.3979 54.2177 32.8079V34.4573C54.2368 35.0198 53.7887 35.4966 53.2262 35.5156C52.6636 35.5347 52.1869 35.0866 52.1678 34.524C52.1678 34.505 52.1678 34.4859 52.1678 34.4573V32.8079C50.3468 32.6267 48.6592 31.7495 47.4674 30.367C47.1241 29.9189 47.2099 29.2706 47.6581 28.9273C48.0871 28.5936 48.7068 28.6604 49.0596 29.0704C50.1179 30.224 51.6244 30.8628 53.1976 30.8152C55.8577 30.8152 58.022 29.2134 58.022 27.2493C58.022 25.2852 55.8577 23.6834 53.1976 23.6834C49.4029 23.6834 46.3232 21.1663 46.3232 18.0676Z" fill="#00A3E4"/>
<path d="M53.1975 35.9926C52.3871 35.9926 51.7197 35.3442 51.6911 34.5338V33.2181C49.9081 32.9416 48.2968 32.0453 47.105 30.6724C46.5806 29.9954 46.7045 29.0515 47.3624 28.5462C47.9917 28.0599 48.8975 28.1553 49.4219 28.7559C50.3753 29.7952 51.7673 30.3959 53.1784 30.3387C55.5906 30.3387 57.5357 28.9562 57.5357 27.2495C57.5357 25.5428 55.5906 24.1604 53.188 24.1604C49.1358 24.1604 45.8369 21.424 45.8369 18.0679C45.8369 15.1885 48.3254 12.6809 51.6815 12.0993V10.8598C51.7101 10.0208 52.368 9.36292 53.2261 9.39152C54.0175 9.42013 54.6563 10.0589 54.6849 10.8503V12.0993C56.4678 12.3758 58.0887 13.272 59.2709 14.6545C59.5284 14.9978 59.6428 15.3887 59.5856 15.7891C59.5379 16.1896 59.3281 16.5423 59.0135 16.7807C58.3747 17.267 57.4785 17.1716 56.9541 16.5709C56.0006 15.5317 54.6277 14.9406 53.1975 14.9882C50.7853 14.9882 48.8403 16.3707 48.8403 18.0774C48.8403 19.784 50.7853 21.1665 53.188 21.1665C57.2401 21.1665 60.539 23.9029 60.539 27.259C60.539 30.1384 58.0505 32.646 54.6944 33.2276V34.4671C54.7039 34.858 54.5609 35.2394 54.2844 35.5254C54.0079 35.821 53.6361 35.983 53.2356 36.0021C53.2166 36.0021 53.207 36.0021 53.188 36.0021L53.1975 35.9926ZM48.2777 29.185C48.1633 29.185 48.0489 29.2231 47.944 29.2994C47.7057 29.4806 47.658 29.8333 47.8391 30.0717C48.9451 31.3493 50.4993 32.1597 52.2059 32.3314L52.635 32.3695V34.4575C52.6445 34.8103 52.9115 35.0487 53.1975 35.0391C53.5026 35.0391 53.741 34.7722 53.7314 34.4766V32.3886L54.1509 32.3409C57.2496 31.9595 59.576 29.7761 59.576 27.259C59.576 24.4273 56.7062 22.12 53.1784 22.12C50.2609 22.12 47.8773 20.3084 47.8773 18.0774C47.8773 15.8463 50.2514 14.0348 53.1784 14.0348C54.8756 13.9871 56.5155 14.6736 57.6691 15.9321C57.8694 16.161 58.2031 16.1991 58.4319 16.018C58.5463 15.9321 58.6226 15.7987 58.6417 15.6556C58.6607 15.5126 58.6226 15.3696 58.5368 15.2457C57.4308 13.968 55.8767 13.1576 54.1605 12.986L53.7314 12.9479V10.8598C53.7314 10.5833 53.4931 10.3545 53.1975 10.345C52.9115 10.3259 52.6445 10.5738 52.635 10.8789V12.9383L52.2154 12.986C49.1168 13.3674 46.7904 15.5508 46.7904 18.0679C46.7904 20.8996 49.6602 23.2069 53.188 23.2069C56.1055 23.2069 58.4891 25.0185 58.4891 27.2495C58.4891 29.4806 56.115 31.2921 53.188 31.2921C51.5004 31.3588 49.8509 30.6533 48.6972 29.3948C48.5828 29.2613 48.4207 29.1945 48.2682 29.1945L48.2777 29.185Z" fill="#00A3E4"/>
<path d="M53.1878 0.476807C40.9361 0.476807 31.0107 10.4021 31.0107 22.6539C31.0203 34.8961 40.9456 44.8214 53.1878 44.831C65.4396 44.831 75.3649 34.9056 75.3649 22.6539C75.3649 10.4021 65.4396 0.476807 53.1878 0.476807ZM53.1878 42.9145C41.9944 42.9145 32.9272 33.8473 32.9272 22.6539C32.9367 11.47 42.0039 2.40276 53.1878 2.39323C64.3812 2.39323 73.4485 11.47 73.4485 22.6539C73.4485 33.8378 64.3812 42.9145 53.1878 42.9145Z" fill="#00A3E4"/>
<path d="M53.187 45.3076C40.7064 45.2981 30.5427 35.1344 30.5332 22.6538C30.5332 10.1637 40.6969 0 53.187 0C65.6771 0 75.8408 10.1637 75.8408 22.6538C75.8408 35.1439 65.6771 45.3076 53.187 45.3076ZM53.187 0.953443C41.2213 0.953443 31.4866 10.6881 31.4866 22.6538C31.4962 34.61 41.2404 44.3446 53.187 44.3542C65.1527 44.3542 74.8874 34.6195 74.8874 22.6538C74.8874 10.6881 65.1623 0.953443 53.187 0.953443ZM53.187 43.3912C41.7552 43.3912 32.4496 34.0856 32.4496 22.6538C32.4592 11.2316 41.7648 1.92595 53.187 1.91642C64.6188 1.91642 73.9244 11.222 73.9244 22.6538C73.9244 34.0856 64.6188 43.3912 53.187 43.3912ZM53.187 2.86986C42.2892 2.8794 33.4126 11.756 33.4031 22.6538C33.4031 33.5612 42.2796 42.4377 53.187 42.4377C64.0944 42.4377 72.971 33.5612 72.971 22.6538C72.971 11.7464 64.1039 2.86986 53.187 2.86986Z" fill="#00A3E4"/>
</svg>
