<svg width="102" height="69" viewBox="0 0 102 69" fill="none" xmlns="http://www.w3.org/2000/svg">
<path d="M71.5029 18.7391C71.5029 16.0517 73.9353 13.8198 77.0873 13.428V11.852C77.1055 11.3146 77.5519 10.8864 78.0985 10.9046C78.6177 10.9228 79.0368 11.3328 79.0459 11.852V13.428C80.7859 13.6011 82.3983 14.4392 83.5371 15.7602C83.865 16.1883 83.783 16.8078 83.3549 17.1358C82.9449 17.4546 82.3528 17.3908 82.0157 16.9991C81.0045 15.8968 79.5652 15.2865 78.062 15.332C75.5204 15.332 73.4524 16.8625 73.4524 18.7391C73.4524 20.6157 75.5204 22.1462 78.062 22.1462C81.6787 22.1462 84.6303 24.5512 84.6303 27.5119C84.6303 30.1993 82.1979 32.4312 79.0459 32.823V34.399C79.0641 34.9364 78.636 35.3919 78.0985 35.4102C77.561 35.4284 77.1055 35.0002 77.0873 34.4627C77.0873 34.4445 77.0873 34.4263 77.0873 34.399V32.823C75.3473 32.6499 73.7349 31.8118 72.5961 30.4908C72.2682 30.0627 72.3501 29.4432 72.7783 29.1152C73.1883 28.7964 73.7804 28.8602 74.1175 29.2519C75.1287 30.3542 76.568 30.9645 78.0711 30.919C80.6128 30.919 82.6807 29.3885 82.6807 27.5119C82.6807 25.6353 80.6128 24.1048 78.0711 24.1048C74.4454 24.1048 71.5029 21.6998 71.5029 18.7391Z" fill="#00A3E4"/>
<path d="M78.0719 35.8657C77.7075 35.8657 77.3613 35.7291 77.088 35.474C76.8056 35.2098 76.6507 34.8546 76.6325 34.4719V34.4537V34.3808V33.2239C74.929 32.9597 73.3803 32.1034 72.2507 30.7916C71.7496 30.1448 71.8681 29.2429 72.4966 28.76C73.0979 28.2954 73.9633 28.3865 74.4644 28.9605C75.3754 29.9534 76.6872 30.5183 78.0537 30.4727C80.3585 30.4727 82.2169 29.1518 82.2169 27.5211C82.2169 25.8904 80.3585 24.5695 78.0628 24.5695C74.1911 24.5695 71.0391 21.955 71.0391 18.7483C71.0391 15.9971 73.4167 13.6012 76.6234 13.0455V11.8612C76.6325 11.4604 76.7965 11.1051 77.0789 10.8409C77.3613 10.5768 77.7166 10.4583 78.1083 10.4492C78.8644 10.4674 79.4748 11.0869 79.5021 11.843V13.0364C81.2057 13.3006 82.7544 14.1569 83.884 15.4779C84.1299 15.8058 84.2393 16.1793 84.1846 16.5619C84.1299 16.9446 83.9386 17.2816 83.638 17.5094C83.0368 17.974 82.1713 17.8829 81.6794 17.3089C80.7684 16.316 79.4475 15.7512 78.0901 15.7967C75.7853 15.7967 73.9269 17.1176 73.9269 18.7483C73.9269 20.379 75.7853 21.6999 78.081 21.6999C81.9527 21.6999 85.1047 24.3144 85.1047 27.5211C85.1047 30.2723 82.727 32.6682 79.5203 33.2239V34.4082C79.5295 34.7817 79.3928 35.1461 79.1286 35.4194C78.8644 35.6927 78.5092 35.8566 78.1265 35.8749C78.1083 35.8749 78.0992 35.8749 78.081 35.8749L78.0719 35.8657ZM73.3712 29.3704C73.2619 29.3704 73.1526 29.4069 73.0523 29.4797C72.8246 29.6528 72.779 29.9899 72.9521 30.2176C74.0089 31.4384 75.4938 32.2127 77.1245 32.3767L77.5344 32.4131V34.4082C77.5344 34.5995 77.5982 34.727 77.6984 34.8181C77.7986 34.9092 77.9261 34.9548 78.0719 34.9639C78.2085 34.9639 78.3452 34.9001 78.4363 34.7999C78.5274 34.6997 78.582 34.563 78.582 34.4264V32.4313L78.9829 32.3858C81.9436 32.0214 84.1664 29.9352 84.1664 27.5302C84.1664 24.8246 81.4243 22.62 78.0537 22.62C75.266 22.62 72.9886 20.8891 72.9886 18.7574C72.9886 16.6257 75.2569 14.8948 78.0537 14.8948C79.6661 14.8493 81.2421 15.5052 82.3444 16.7077C82.5357 16.9354 82.8546 16.9628 83.0732 16.7897C83.1825 16.7077 83.2554 16.5802 83.2736 16.4435C83.2918 16.3069 83.2554 16.1702 83.1734 16.0518C82.1167 14.8311 80.6317 14.0567 78.992 13.8927L78.582 13.8563V11.8612C78.582 11.5971 78.3543 11.3784 78.0719 11.3693C77.9352 11.3693 77.7986 11.4149 77.6984 11.5151C77.5982 11.6153 77.5344 11.7428 77.5344 11.8795V13.8472L77.1336 13.8927C74.1729 14.2571 71.95 16.3433 71.95 18.7483C71.95 21.4539 74.6921 23.6585 78.0628 23.6585C80.8504 23.6585 83.1279 25.3894 83.1279 27.5211C83.1279 29.6528 80.8595 31.3837 78.0628 31.3837C76.4503 31.4292 74.8743 30.7733 73.772 29.5708C73.6627 29.4433 73.5078 29.3795 73.3621 29.3795L73.3712 29.3704Z" fill="#00A3E4"/>
<path d="M78.0726 0.4646C65.5556 0.4646 55.4072 10.613 55.4072 23.1299C55.4254 35.6378 65.5556 45.7771 78.0726 45.7953C90.5895 45.7953 100.738 35.6469 100.738 23.1299C100.738 10.613 90.5895 0.4646 78.0726 0.4646ZM78.0726 43.8276C66.6397 43.8276 57.375 34.5628 57.375 23.1208C57.3841 11.688 66.6488 2.43233 78.0726 2.41411C89.5055 2.41411 98.7702 11.688 98.7702 23.1208C98.7702 34.5537 89.5055 43.8276 78.0726 43.8276Z" fill="#00A3E4"/>
<path d="M78.072 46.2417C65.3364 46.2326 54.9694 35.8564 54.9512 23.1208C54.9512 10.3761 65.3182 0 78.072 0C90.8258 0 101.193 10.367 101.193 23.1208C101.193 35.8747 90.8258 46.2417 78.072 46.2417ZM78.072 0.920097C65.8284 0.920097 55.8622 10.8863 55.8622 23.13C55.8804 35.3645 65.8375 45.3216 78.072 45.3398C90.3157 45.3398 100.282 35.3736 100.282 23.13C100.282 10.8863 90.3157 0.920097 78.072 0.920097ZM78.072 44.2831C66.4023 44.2831 56.9189 34.7906 56.9189 23.1208C56.9371 11.4693 66.4205 1.97684 78.072 1.95862C89.7418 1.95862 99.2342 11.4511 99.2342 23.1208C99.2342 34.7906 89.7418 44.2831 78.072 44.2831ZM78.072 2.87872C66.9215 2.88783 57.839 11.9704 57.8299 23.1208C57.8299 34.2804 66.9124 43.3721 78.072 43.3721C89.2316 43.3721 98.3232 34.2895 98.3232 23.1208C98.3232 11.9521 89.2316 2.87872 78.072 2.87872Z" fill="#00A3E4"/>
<path d="M17.2824 61.1457H10.9966C10.1311 61.1457 9.42969 60.4442 9.42969 59.5788V48.5832H12.5726V58.0119H15.7155V42.2974H18.8584V59.5788C18.8584 60.4442 18.1569 61.1457 17.2915 61.1457H17.2824Z" fill="#00A3E4"/>
<path d="M29.8537 61.1454H23.5679C22.7024 61.1454 22.001 60.4439 22.001 59.5785V45.4399H25.1439V58.0116H28.2868V48.5828H31.4297V59.5785C31.4297 60.4439 30.7282 61.1454 29.8628 61.1454H29.8537Z" fill="#00A3E4"/>
<path d="M42.425 61.1456H36.1392C35.2737 61.1456 34.5723 60.4441 34.5723 59.5787V43.8642H37.7152V58.0027H40.8581V37.5784H44.001V59.5787C44.001 60.4441 43.2995 61.1456 42.4341 61.1456H42.425Z" fill="#00A3E4"/>
<path d="M73.8537 68.9983H7.85271C3.51641 68.9983 0 65.4819 0 61.1456V10.8591C0 6.51372 3.51641 2.99731 7.85271 2.99731H54.9963V6.14022H7.85271C5.24728 6.14022 3.1429 8.25371 3.1429 10.85V61.1365C3.1429 63.7419 5.25639 65.8463 7.85271 65.8463H73.8537C76.4591 65.8463 78.5635 63.7328 78.5635 61.1365V53.2838H81.7064V61.1365C81.7064 65.4728 78.19 68.9892 73.8537 68.9892V68.9983Z" fill="#00A3E4"/>
<path d="M8.77229 44.7659L6.55859 42.5522L17.6544 31.4563C18.2648 30.846 19.2577 30.846 19.8681 31.4563L28.2947 39.8647L47.1522 21.0073L49.3659 23.221L29.4061 43.1899C28.7958 43.8002 27.8028 43.8002 27.1924 43.1899L18.7658 34.7632L8.77229 44.7567V44.7659Z" fill="#00A3E4"/>
<path d="M50.2861 29.5068H47.1432V23.221H40.8574V20.0781H48.7101C49.5756 20.0781 50.277 20.7796 50.277 21.645V29.4977L50.2861 29.5068Z" fill="#00A3E4"/>
<path d="M9.42823 13.9927C10.2936 13.9927 10.9951 13.2912 10.9951 12.4258C10.9951 11.5604 10.2936 10.8589 9.42823 10.8589C8.56285 10.8589 7.86133 11.5604 7.86133 12.4258C7.86133 13.2912 8.56285 13.9927 9.42823 13.9927Z" fill="#00A3E4"/>
<path d="M14.1382 13.9927C15.0036 13.9927 15.7051 13.2912 15.7051 12.4258C15.7051 11.5604 15.0036 10.8589 14.1382 10.8589C13.2728 10.8589 12.5713 11.5604 12.5713 12.4258C12.5713 13.2912 13.2728 13.9927 14.1382 13.9927Z" fill="#00A3E4"/>
<path d="M18.8579 13.9927C19.7233 13.9927 20.4248 13.2912 20.4248 12.4258C20.4248 11.5604 19.7233 10.8589 18.8579 10.8589C17.9925 10.8589 17.291 11.5604 17.291 12.4258C17.291 13.2912 17.9925 13.9927 18.8579 13.9927Z" fill="#00A3E4"/>
<path d="M54.9963 61.1455H48.7105C47.845 61.1455 47.1436 60.4441 47.1436 59.5786V50.1499H50.2865V58.0026H53.4294V50.1499H56.5723V59.5786C56.5723 60.4441 55.8708 61.1455 55.0054 61.1455H54.9963Z" fill="#00A3E4"/>
<path d="M67.5675 61.1456H61.2817C60.4163 61.1456 59.7148 60.4441 59.7148 59.5787V54.8689H62.8577V58.0118H66.0006V54.8689H69.1436V59.5787C69.1436 60.4441 68.4421 61.1456 67.5767 61.1456H67.5675Z" fill="#00A3E4"/>
</svg>
