<svg width="230" height="82" viewBox="0 0 230 82" fill="none" xmlns="http://www.w3.org/2000/svg">
<path fill-rule="evenodd" clip-rule="evenodd" d="M94.6549 77.1289C95.2712 77.1289 95.7708 76.6293 95.7708 76.013V29.3793C95.7708 21.4108 102.217 14.964 110.185 14.9625C110.186 14.9625 110.187 14.9625 110.188 14.9625L123.939 14.9981C131.87 14.9981 138.285 21.4421 138.285 29.3793V39.3188C138.285 47.2883 131.837 53.7357 123.868 53.7357H104.452C103.836 53.7357 103.336 54.2353 103.336 54.8515C103.336 55.4678 103.836 55.9674 104.452 55.9674H123.868C133.07 55.9674 140.516 48.5208 140.516 39.3188V29.3793C140.516 20.2163 133.109 12.7664 123.939 12.7664L110.191 12.7308H110.188C100.986 12.7308 93.5391 20.1773 93.5391 29.3793V76.013C93.5391 76.6293 94.0387 77.1289 94.6549 77.1289Z" fill="#939598"/>
<path fill-rule="evenodd" clip-rule="evenodd" d="M155.635 56.1938C156.251 56.1938 156.751 55.6943 156.751 55.078V20.2363C156.751 16.0931 153.401 12.7435 149.258 12.7435H143.273C142.657 12.7435 142.157 13.2431 142.157 13.8593C142.157 14.4756 142.657 14.9752 143.273 14.9752H149.258C152.169 14.9752 154.519 17.3256 154.519 20.2363V55.078C154.519 55.6943 155.019 56.1938 155.635 56.1938Z" fill="#939598"/>
<path d="M154.336 8.46451L151.629 5.75697C150.952 5.08008 150.952 4.01132 151.629 3.33444L154.336 0.626904C155.013 -0.0499802 156.118 -0.0499802 156.759 0.626904L159.466 3.33444C160.143 4.01132 160.143 5.08008 159.466 5.75697L156.759 8.46451C156.082 9.14139 155.013 9.14139 154.336 8.46451Z" fill="#32BCAD"/>
<path fill-rule="evenodd" clip-rule="evenodd" d="M200.66 30.2465C199.314 31.592 197.099 31.592 195.754 30.2465L181.895 16.3882C179.547 14.0401 176.342 12.7125 172.984 12.7125H167.07C166.454 12.7125 165.954 13.2121 165.954 13.8284C165.954 14.4447 166.454 14.9443 167.07 14.9443H172.984C175.753 14.9443 178.39 16.0392 180.317 17.9662L194.176 31.8245C196.393 34.0416 200.021 34.0416 202.238 31.8245L216.025 18.0375C217.952 16.1105 220.589 15.0155 223.358 15.0155H228.168C228.784 15.0155 229.283 14.5159 229.283 13.8996C229.283 13.2834 228.784 12.7838 228.168 12.7838H223.358C220 12.7838 216.795 14.1113 214.447 16.4594L200.66 30.2465Z" fill="#939598"/>
<path fill-rule="evenodd" clip-rule="evenodd" d="M165.954 54.7518C165.954 55.3681 166.454 55.8677 167.07 55.8677H172.984C176.342 55.8677 179.547 54.5401 181.895 52.1921L195.754 38.3338C197.099 36.9882 199.314 36.9882 200.66 38.3338L214.447 52.1208C216.795 54.4689 220 55.7964 223.358 55.7964H228.168C228.784 55.7964 229.283 55.2968 229.283 54.6806C229.283 54.0643 228.784 53.5647 228.168 53.5647H223.358C220.589 53.5647 217.952 52.4697 216.025 50.5427L202.238 36.7557C200.021 34.5386 196.393 34.5386 194.176 36.7557L180.317 50.614C178.39 52.541 175.753 53.636 172.984 53.636H167.07C166.454 53.636 165.954 54.1355 165.954 54.7518Z" fill="#939598"/>
<path d="M59.3526 63.5991C56.3956 63.5991 53.5812 62.4591 51.4793 60.3572L40.1148 48.9927C39.331 48.2089 37.9417 48.2089 37.1223 48.9927L25.7221 60.3928C23.6202 62.4947 20.8414 63.6348 17.8489 63.6348H15.6045L29.9972 78.0274C34.486 82.5162 41.7892 82.5162 46.278 78.0274L60.7063 63.5991H59.3526Z" fill="#32BCAD"/>
<path d="M17.8684 23.4138C20.8253 23.4138 23.6398 24.5538 25.7417 26.6557L37.1418 38.0559C37.9612 38.8753 39.315 38.8753 40.1343 38.0559L51.4989 26.6913C53.6008 24.5894 56.3796 23.4494 59.3721 23.4494H60.7259L46.2975 9.02112C41.8087 4.53231 34.5055 4.53231 30.0167 9.02112L15.624 23.4138H17.8684Z" fill="#32BCAD"/>
<path d="M72.6563 35.3918L63.9281 26.6636C63.75 26.7349 63.5362 26.8061 63.3225 26.8061H59.368C57.3018 26.8061 55.3067 27.6255 53.8461 29.0861L42.4816 40.4507C41.4128 41.5194 40.0234 42.0538 38.634 42.0538C37.2446 42.0538 35.8552 41.5194 34.7865 40.4507L23.3863 29.0505C21.9257 27.5899 19.9307 26.7705 17.8644 26.7705H12.9837C12.7699 26.7705 12.5918 26.7349 12.4137 26.6636L3.64981 35.4275C-0.838999 39.9163 -0.838999 47.2195 3.64981 51.7083L12.4137 60.4722C12.5918 60.4009 12.8056 60.3653 12.9837 60.3653H17.8644C19.9307 60.3653 21.9257 59.5459 23.3863 58.0853L34.7865 46.6851C36.8527 44.6188 40.4509 44.6188 42.4816 46.6851L53.8461 58.0496C55.3067 59.5103 57.3018 60.3297 59.368 60.3297H63.3225C63.5362 60.3297 63.75 60.3653 63.9281 60.4365L72.6563 51.7083C77.1451 47.1839 77.1451 39.9163 72.6563 35.3918Z" fill="#32BCAD"/>
<path d="M106.49 72.0517C105.849 72.0517 105.1 72.1942 104.352 72.3723V75.2223C104.851 75.4004 105.457 75.5073 106.027 75.5073C107.452 75.5073 108.129 75.0442 108.129 73.7617C108.093 72.586 107.559 72.0517 106.49 72.0517ZM103.854 77.3242V71.6954H104.245L104.281 71.9448C104.958 71.8023 105.849 71.5885 106.49 71.5885C107.024 71.5885 107.523 71.6598 107.95 72.016C108.449 72.4079 108.592 73.0492 108.592 73.7617C108.592 74.5098 108.342 75.1867 107.665 75.5786C107.202 75.8279 106.561 75.9348 106.027 75.9348C105.457 75.9348 104.887 75.8279 104.317 75.6854V77.3242H103.854Z" fill="#939598"/>
<path d="M112.207 72.0338C110.782 72.0338 110.141 72.497 110.141 73.7439C110.141 74.9551 110.782 75.4895 112.207 75.4895C113.632 75.4895 114.273 75.062 114.273 73.7795C114.238 72.6038 113.632 72.0338 112.207 72.0338ZM114.024 75.5251C113.561 75.8814 112.92 75.9526 112.207 75.9526C111.459 75.9526 110.818 75.8458 110.355 75.5251C109.82 75.1689 109.606 74.5632 109.606 73.8151C109.606 73.067 109.82 72.4613 110.355 72.0695C110.818 71.7488 111.459 71.642 112.207 71.642C112.955 71.642 113.561 71.7488 114.024 72.0695C114.558 72.4613 114.772 73.067 114.772 73.7795C114.772 74.5276 114.558 75.1333 114.024 75.5251Z" fill="#939598"/>
<path d="M120.782 75.8203L119.179 72.4003H119.144L117.576 75.8203H117.148L115.438 71.7234H115.973L117.398 75.1791H117.434L118.965 71.7234H119.393L120.96 75.1791H120.996L122.385 71.7234H122.884L121.174 75.8203H120.782Z" fill="#939598"/>
<path d="M125.98 72.0265C124.662 72.0265 124.198 72.5965 124.127 73.4515H127.832C127.761 72.5253 127.298 72.0265 125.98 72.0265ZM125.944 75.9453C125.16 75.9453 124.626 75.8384 124.234 75.4822C123.771 75.0547 123.593 74.449 123.593 73.7722C123.593 73.0953 123.807 72.4184 124.341 72.0265C124.804 71.7059 125.374 71.599 125.944 71.599C126.478 71.599 127.084 71.6703 127.583 71.9909C128.188 72.3828 128.295 73.0953 128.295 73.879H124.092C124.092 74.734 124.377 75.4822 125.98 75.4822C126.728 75.4822 127.44 75.3753 128.117 75.2328V75.6603C127.44 75.8028 126.692 75.9453 125.944 75.9453Z" fill="#939598"/>
<path d="M129.711 75.8208V71.7239H130.103L130.138 71.9733C130.993 71.7595 131.421 71.617 132.169 71.617H132.24V72.0801H132.133C131.492 72.0801 131.1 72.1514 130.21 72.4008V75.8564H129.711V75.8208Z" fill="#939598"/>
<path d="M135.031 72.026C133.713 72.026 133.25 72.596 133.179 73.451H136.884C136.813 72.5248 136.35 72.026 135.031 72.026ZM134.996 75.9448C134.212 75.9448 133.678 75.8379 133.286 75.4817C132.823 75.0542 132.645 74.4486 132.645 73.7717C132.645 73.0948 132.858 72.4179 133.393 72.026C133.856 71.7054 134.426 71.5985 134.996 71.5985C135.53 71.5985 136.136 71.6698 136.635 71.9904C137.24 72.3823 137.347 73.0948 137.347 73.8785H133.143C133.143 74.7336 133.428 75.4817 135.031 75.4817C135.78 75.4817 136.492 75.3748 137.169 75.2323V75.6598C136.492 75.8023 135.744 75.9448 134.996 75.9448Z" fill="#939598"/>
<path d="M142.649 72.312C142.15 72.1339 141.545 72.027 140.975 72.027C139.55 72.027 138.873 72.5258 138.873 73.7726C138.873 74.9483 139.443 75.4827 140.512 75.4827C141.153 75.4827 141.901 75.3402 142.649 75.162V72.312ZM142.72 75.8389L142.685 75.5895C142.008 75.732 141.117 75.9458 140.476 75.9458C139.942 75.9458 139.443 75.8746 139.015 75.5183C138.517 75.1264 138.374 74.4852 138.374 73.7726C138.374 73.0245 138.623 72.3476 139.3 71.9557C139.763 71.6707 140.405 71.5639 140.975 71.5639C141.545 71.5639 142.115 71.6707 142.685 71.8132V69.9251H143.148V75.7677H142.72V75.8389Z" fill="#939598"/>
<path d="M150.172 72.0514C149.531 72.0514 148.783 72.1939 148.035 72.372V75.2221C148.569 75.4002 149.139 75.5071 149.709 75.5071C151.134 75.5071 151.811 75.0439 151.811 73.7614C151.776 72.5858 151.241 72.0514 150.172 72.0514ZM151.384 75.5783C150.921 75.8277 150.279 75.9346 149.745 75.9346C149.139 75.9346 148.534 75.8277 147.892 75.6139L147.857 75.7921H147.536V69.9495H147.999V71.9089C148.676 71.7664 149.531 71.5526 150.172 71.5526C150.707 71.5526 151.206 71.6239 151.633 71.9801C152.132 72.372 152.274 73.0133 152.274 73.7258C152.31 74.5096 152.061 75.1864 151.384 75.5783Z" fill="#939598"/>
<path d="M152.951 77.3988V76.9357C153.2 76.9713 153.414 76.9713 153.556 76.9713C154.162 76.9713 154.518 76.7932 154.839 76.1163L154.981 75.7957L152.844 71.6988H153.414L155.266 75.2613H155.302L157.048 71.6988H157.582L155.266 76.3301C154.839 77.1851 154.376 77.4345 153.556 77.4345C153.343 77.4701 153.129 77.4345 152.951 77.3988Z" fill="#939598"/>
<path d="M164.195 73.4754H162.592V74.9004H164.195C165.299 74.9004 165.727 74.7935 165.727 74.1879C165.691 73.5466 165.121 73.4754 164.195 73.4754ZM163.874 71.1597H162.556V72.6204H163.874C164.943 72.6204 165.406 72.4779 165.406 71.8722C165.406 71.231 164.872 71.1597 163.874 71.1597ZM166.368 75.4348C165.798 75.8267 165.085 75.8267 163.767 75.8267H161.345V70.2335H163.732C164.836 70.2335 165.549 70.2335 166.119 70.5897C166.51 70.8391 166.689 71.1954 166.689 71.6941C166.689 72.2641 166.439 72.656 165.798 72.941V72.9766C166.51 73.1548 166.974 73.511 166.974 74.2948C166.974 74.8648 166.76 75.1854 166.368 75.4348Z" fill="#939598"/>
<path d="M171.841 74.0938C171.378 74.0581 170.879 74.0225 170.345 74.0225C169.49 74.0225 169.205 74.2006 169.205 74.5925C169.205 74.9488 169.454 75.1625 170.096 75.1625C170.63 75.1625 171.271 75.0557 171.806 74.9132L171.841 74.0938ZM172.091 75.8394L172.055 75.59C171.343 75.7682 170.523 75.9463 169.811 75.9463C169.383 75.9463 168.884 75.875 168.564 75.6613C168.243 75.4475 168.101 75.0913 168.101 74.6638C168.101 74.2006 168.314 73.7731 168.777 73.5594C169.205 73.3456 169.775 73.3456 170.309 73.3456C170.737 73.3456 171.307 73.3813 171.806 73.4169V73.3456C171.806 72.7044 171.378 72.4906 170.238 72.4906C169.775 72.4906 169.241 72.5262 168.706 72.5619V71.7425C169.276 71.7069 169.953 71.6712 170.487 71.6712C171.2 71.6712 171.948 71.7425 172.411 72.0631C172.874 72.3837 172.981 72.8469 172.981 73.4881V75.9107L172.091 75.8394Z" fill="#939598"/>
<path d="M178.358 75.8213V73.5413C178.358 72.7931 177.966 72.5081 177.289 72.5081C176.79 72.5081 176.149 72.6506 175.615 72.7575V75.7857H174.475V71.7244H175.401L175.436 71.9738C176.149 71.7956 176.968 71.6175 177.645 71.6175C178.144 71.6175 178.678 71.6888 179.07 72.045C179.391 72.33 179.533 72.7575 179.533 73.3275V75.8569H178.358V75.8213Z" fill="#939598"/>
<path d="M182.741 75.9341C182.206 75.9341 181.636 75.8628 181.209 75.5066C180.71 75.1147 180.567 74.4734 180.567 73.7609C180.567 73.1197 180.781 72.4072 181.422 72.0153C181.921 71.6947 182.562 71.6234 183.239 71.6234C183.702 71.6234 184.166 71.659 184.7 71.6947V72.5853C184.272 72.5497 183.774 72.514 183.382 72.514C182.277 72.514 181.779 72.8703 181.779 73.7966C181.779 74.6872 182.171 75.0791 183.061 75.0791C183.596 75.0791 184.201 74.9722 184.771 74.8653V75.7203C184.094 75.8272 183.382 75.9341 182.741 75.9341Z" fill="#939598"/>
<path d="M188.134 72.4569C187.03 72.4569 186.567 72.8132 186.567 73.7395C186.567 74.6657 187.03 75.0576 188.134 75.0576C189.203 75.0576 189.702 74.737 189.702 73.7751C189.666 72.8845 189.203 72.4569 188.134 72.4569ZM190.094 75.5207C189.595 75.877 188.918 75.9482 188.134 75.9482C187.315 75.9482 186.638 75.8414 186.139 75.5207C185.569 75.1289 185.355 74.5232 185.355 73.7751C185.355 73.027 185.569 72.4213 186.139 72.0294C186.638 71.7088 187.279 71.6019 188.134 71.6019C188.954 71.6019 189.595 71.7088 190.094 72.0294C190.664 72.4213 190.842 73.027 190.842 73.7751C190.842 74.5232 190.664 75.1289 190.094 75.5207Z" fill="#939598"/>
<path d="M197.497 75.9346C196.821 75.9346 196.072 75.8277 195.502 75.3646C194.826 74.7946 194.647 73.9395 194.647 73.0489C194.647 72.2295 194.897 71.2676 195.787 70.662C196.464 70.2345 197.319 70.1276 198.139 70.1276C198.744 70.1276 199.386 70.1632 200.098 70.2345V71.232C199.493 71.1964 198.78 71.1251 198.21 71.1251C196.607 71.1251 195.93 71.7308 195.93 73.0133C195.93 74.3314 196.571 74.9014 197.747 74.9014C198.495 74.9014 199.35 74.7589 200.241 74.5808V75.5783C199.314 75.7564 198.388 75.9346 197.497 75.9346Z" fill="#939598"/>
<path d="M203.558 72.3276C202.596 72.3276 202.24 72.6839 202.168 73.2895H204.947C204.876 72.6483 204.484 72.3276 203.558 72.3276ZM203.38 75.9614C202.703 75.9614 202.097 75.8902 201.634 75.4983C201.135 75.1064 200.957 74.4652 200.957 73.7883C200.957 73.147 201.171 72.4701 201.741 72.0426C202.24 71.6864 202.881 71.6151 203.558 71.6151C204.128 71.6151 204.84 71.6864 205.339 72.0426C206.016 72.5058 206.051 73.2183 206.051 74.0733H202.133C202.168 74.7145 202.489 75.1064 203.665 75.1064C204.377 75.1064 205.196 74.9995 205.838 74.8927V75.712C205.054 75.8189 204.199 75.9614 203.38 75.9614Z" fill="#939598"/>
<path d="M211.171 75.8213V73.5413C211.171 72.7931 210.779 72.5081 210.102 72.5081C209.604 72.5081 208.962 72.6506 208.428 72.7575V75.7857H207.288V71.7244H208.214L208.25 71.9738C208.962 71.7956 209.782 71.6175 210.459 71.6175C210.958 71.6175 211.492 71.6888 211.884 72.045C212.204 72.33 212.347 72.7575 212.347 73.3275V75.8569H211.171V75.8213Z" fill="#939598"/>
<path d="M215.58 75.9346C215.01 75.9346 214.511 75.7921 214.262 75.3646C214.048 75.0796 213.977 74.6877 213.977 74.1177V72.5858H213.157V71.7308H213.977L214.083 70.4839H215.117V71.7308H216.72V72.5858H215.117V73.9039C215.117 74.2245 215.152 74.4739 215.224 74.6877C215.33 74.9727 215.615 75.0796 215.972 75.0796C216.257 75.0796 216.577 75.0439 216.791 75.0083V75.8277C216.399 75.8633 215.936 75.9346 215.58 75.9346Z" fill="#939598"/>
<path d="M217.823 75.8208V71.7239H218.75L218.785 71.9732C219.533 71.7595 220.103 71.617 220.816 71.617C220.851 71.617 220.887 71.617 220.958 71.617V72.5789C220.816 72.5789 220.673 72.5789 220.566 72.5789C219.996 72.5789 219.569 72.6501 218.963 72.7926V75.8208H217.823Z" fill="#939598"/>
<path d="M225.155 74.0943C224.692 74.0586 224.193 74.023 223.658 74.023C222.803 74.023 222.518 74.2011 222.518 74.593C222.518 74.9493 222.768 75.163 223.409 75.163C223.943 75.163 224.585 75.0561 225.119 74.9136L225.155 74.0943ZM225.404 75.8399L225.368 75.5905C224.656 75.7687 223.837 75.9468 223.124 75.9468C222.697 75.9468 222.198 75.8755 221.877 75.6618C221.557 75.448 221.414 75.0918 221.414 74.6643C221.414 74.2011 221.628 73.7736 222.091 73.5599C222.518 73.3461 223.088 73.3461 223.623 73.3461C224.05 73.3461 224.62 73.3817 225.119 73.4174V73.3461C225.119 72.7049 224.692 72.4911 223.552 72.4911C223.088 72.4911 222.554 72.5267 222.02 72.5624V71.743C222.59 71.7073 223.267 71.6717 223.801 71.6717C224.513 71.6717 225.262 71.743 225.725 72.0636C226.188 72.3842 226.295 72.8474 226.295 73.4886V75.9112L225.404 75.8399Z" fill="#939598"/>
<path d="M227.765 69.9782H228.905V75.8208H227.765V69.9782Z" fill="#939598"/>
</svg>
