<svg width="107" height="75" viewBox="0 0 107 75" fill="none" xmlns="http://www.w3.org/2000/svg">
<path d="M93.26 67.9531C96.24 67.1003 98.33 64.1156 98.33 60.682V55.2286C99.42 54.9369 100.51 54.6451 101.61 54.3309C104.59 53.4781 106.67 50.4934 106.67 47.071V7.49476C106.67 5.18325 105.75 3.05128 104.13 1.62622C102.5 0.189938 100.4 -0.326225 98.38 0.234822C71.6 7.5172 43.22 7.49476 16.62 0.21238C14.62 -0.326225 12.54 0.167496 10.92 1.60378C9.29 3.04005 8.36 5.18325 8.36 7.50598V13.857L8.27 13.8346C6.27 13.2848 4.18 13.7897 2.56 15.226C0.93 16.6623 0 18.8055 0 21.117V60.6932C0 64.1268 2.05 67.1116 4.99 67.9531C19.46 72.1273 34.32 74.2481 49.15 74.2481C63.97 74.2481 78.8 72.1385 93.24 67.9756L93.26 67.9531ZM11.92 7.49476C11.92 6.40633 12.36 5.39645 13.12 4.72319C13.68 4.22947 14.35 3.97139 15.04 3.97139C15.29 3.97139 15.54 4.00505 15.79 4.07238C42.93 11.5006 71.9 11.5231 99.23 4.09482C100.19 3.83674 101.18 4.07238 101.94 4.75686C102.7 5.41889 103.13 6.41755 103.13 7.49476V47.071C103.13 48.6756 102.15 50.0782 100.73 50.4821C99.32 50.8973 97.93 51.2676 96.55 51.6267L96.16 51.7277C69.26 58.6285 41.09 58.2021 14.26 50.4597C12.89 50.0557 11.94 48.6756 11.94 47.071V16.3705V7.49476H11.92ZM5.9 64.0707C4.53 63.678 3.58 62.2753 3.58 60.6707V21.0945C3.58 20.0173 4.02 19.0187 4.77 18.3454C5.33 17.8517 6 17.5936 6.69 17.5936C6.94 17.5936 7.19 17.6273 7.45 17.6946L8.37 17.9414V47.071C8.37 50.4821 10.42 53.4669 13.36 54.3197C15.09 54.8134 16.83 55.2847 18.56 55.7223C19.33 55.9131 20.1 56.0814 20.88 56.2721C21.83 56.4966 22.78 56.7322 23.74 56.9454C24.77 57.1698 25.8 57.3718 26.83 57.5738C27.51 57.7084 28.18 57.8431 28.86 57.9777C30.07 58.2021 31.28 58.3929 32.49 58.5949C32.97 58.6734 33.46 58.752 33.95 58.8305C35.31 59.0325 36.67 59.2232 38.03 59.3916C38.35 59.4364 38.67 59.4813 39 59.515C40.49 59.6945 41.98 59.8404 43.47 59.975C43.65 59.9863 43.83 60.0087 44 60.0199C45.6 60.1546 47.21 60.278 48.82 60.3678C48.87 60.3678 48.91 60.3678 48.96 60.3678C51.81 60.5249 54.67 60.6259 57.51 60.6259C61.42 60.6259 65.34 60.4576 69.25 60.1658C69.37 60.1658 69.48 60.1434 69.6 60.1321C71.1 60.0199 72.6 59.8853 74.09 59.7282C74.43 59.6945 74.77 59.6496 75.1 59.616C76.37 59.4813 77.63 59.313 78.9 59.1447C79.43 59.0774 79.96 58.9988 80.49 58.9203C81.57 58.7632 82.65 58.5949 83.73 58.4153C84.4 58.3031 85.07 58.1909 85.74 58.0675C86.69 57.8992 87.63 57.7084 88.58 57.5289C89.34 57.383 90.09 57.2147 90.85 57.0576C91.73 56.8669 92.61 56.6649 93.49 56.4629C93.92 56.3619 94.35 56.2834 94.77 56.1712V60.7044C94.77 62.309 93.79 63.7116 92.38 64.1043C64.06 72.262 34.24 72.2507 5.89 64.0707H5.9Z" fill="#6B7072"/>
<path d="M16.89 44.2321C17.97 44.4902 18.72 45.5338 18.72 46.7681C18.72 47.7106 19.31 48.5297 20.13 48.7317C32.34 51.6267 44.92 53.0967 57.52 53.0967C70.12 53.0967 82.72 51.6267 94.94 48.7317C95.77 48.5297 96.36 47.7106 96.35 46.7568C96.35 45.5562 97.11 44.5014 98.16 44.2433C98.97 44.0414 99.56 43.2335 99.56 42.2909V16.0788C99.56 15.4841 99.32 14.9118 98.91 14.5303C98.5 14.1488 97.95 14.0029 97.43 14.1264C96.75 14.2835 96.06 14.0815 95.52 13.599C94.98 13.1053 94.67 12.3759 94.67 11.5904C94.67 10.9957 94.43 10.4235 94.02 10.0532C93.61 9.67166 93.07 9.51457 92.54 9.64922C69.63 14.8221 45.4 14.8221 22.49 9.64922C21.97 9.52579 21.42 9.68288 21.01 10.0644C20.6 10.4459 20.36 11.0182 20.36 11.6129C20.36 12.3759 20.07 13.094 19.54 13.5878C19 14.0815 18.3 14.2835 17.62 14.1376C17.1 14.0254 16.56 14.1825 16.15 14.5528C15.74 14.9343 15.5 15.4953 15.5 16.09V42.2909C15.5 43.2335 16.09 44.0414 16.91 44.2433L16.89 44.2321ZM19.04 18.0761C20.04 17.8854 20.99 17.4029 21.8 16.6511C22.59 15.9105 23.18 14.9792 23.53 13.9356C45.8 18.7045 69.22 18.7045 91.48 13.9356C91.84 15.0016 92.45 15.9554 93.26 16.696C94.06 17.4253 95 17.8966 95.99 18.0874V40.9107C94.5 41.7635 93.39 43.3008 92.97 45.1074C69.79 50.4149 45.25 50.4149 22.07 45.1074C21.64 43.2896 20.53 41.7411 19.03 40.8995V18.0761H19.04Z" fill="#6B7072"/>
<path d="M57.52 42.2347C62.08 42.2347 65.79 38.0493 65.79 32.8989C65.79 27.7485 62.08 23.5631 57.52 23.5631C52.96 23.5631 49.25 27.7485 49.25 32.8989C49.25 38.0493 52.96 42.2347 57.52 42.2347ZM57.52 27.5578C60.12 27.5578 62.24 29.959 62.24 32.8989C62.24 35.8388 60.12 38.2401 57.52 38.2401C54.92 38.2401 52.8 35.8388 52.8 32.8989C52.8 29.959 54.92 27.5578 57.52 27.5578Z" fill="#00A686"/>
<path d="M28.9399 35.1207C31.2999 35.1207 33.2099 32.9662 33.2099 30.3069C33.2099 27.6475 31.2899 25.4931 28.9399 25.4931C26.5899 25.4931 24.6699 27.6475 24.6699 30.3069C24.6699 32.9662 26.5899 35.1207 28.9399 35.1207ZM28.9399 29.4765C29.3399 29.4765 29.6599 29.8468 29.6599 30.3069C29.6599 30.7669 29.3399 31.1372 28.9399 31.1372C28.5399 31.1372 28.2199 30.7669 28.2199 30.3069C28.2199 29.8468 28.5399 29.4765 28.9399 29.4765Z" fill="#00A3E4"/>
<path d="M86.06 34.8963C88.42 34.8963 90.33 32.7419 90.33 30.0825C90.33 27.4232 88.41 25.2687 86.06 25.2687C83.71 25.2687 81.79 27.4232 81.79 30.0825C81.79 32.7419 83.71 34.8963 86.06 34.8963ZM86.06 29.2522C86.46 29.2522 86.78 29.6225 86.78 30.0825C86.78 30.5426 86.46 30.9129 86.06 30.9129C85.66 30.9129 85.34 30.5426 85.34 30.0825C85.34 29.6225 85.66 29.2522 86.06 29.2522Z" fill="#00A3E4"/>
</svg>
