<svg width="92" height="87" viewBox="0 0 92 87" fill="none" xmlns="http://www.w3.org/2000/svg">
<path d="M89.3141 46.8801C88.3241 45.3801 86.7641 44.3601 84.9941 44.0601C83.1141 43.7201 81.1741 44.1601 79.6241 45.2801L62.5841 57.7301C60.1841 55.2501 55.5141 54.2701 50.5941 53.2501C46.7641 52.4501 42.8041 51.6301 40.5941 50.0801C32.0541 44.0901 22.8441 45.5201 13.2141 54.3201C11.0941 52.2301 7.84406 51.8101 5.26406 53.2901L3.80406 54.1301C0.65406 55.9601 -0.42594 59.9901 1.38406 63.1601L12.8341 82.9901C13.7041 84.5101 15.1541 85.6201 16.8441 86.0601C17.4041 86.2101 17.9941 86.2901 18.5741 86.2901C19.7241 86.2901 20.8541 85.9801 21.8541 85.4101L23.3141 84.5701C25.7841 83.1301 27.0541 80.2701 26.4741 77.4701C26.7341 77.3101 26.9941 77.1401 27.2841 76.9601C28.7641 76.0101 30.7841 74.7001 32.0141 74.8801C33.6641 75.1201 35.6741 75.4901 37.7941 75.8901C42.9041 76.8501 49.0741 78.0201 54.5441 78.0201C58.8841 78.0201 62.7941 77.2901 65.3741 75.1401L87.7941 56.4801C90.7041 54.1701 91.3641 50.0201 89.3341 46.9101L89.3141 46.8801ZM24.3041 79.9801C24.0041 81.1201 23.2541 82.1001 22.2341 82.6901L20.7741 83.5301C18.6441 84.7501 15.9241 84.0201 14.6841 81.9001L3.24406 62.0801C2.02406 59.9501 2.75406 57.2301 4.87406 55.9901L6.33406 55.1501C7.00406 54.7601 7.76406 54.5601 8.54406 54.5601C8.94406 54.5601 9.33406 54.6101 9.71406 54.7101C10.8541 55.0101 11.8341 55.7601 12.4241 56.7801L23.8741 76.6101C24.4641 77.6301 24.6241 78.8501 24.3141 79.9901L24.3041 79.9801ZM86.4041 54.8001L63.9841 73.4601C58.9241 77.6701 46.9341 75.4101 38.1841 73.7601C36.0341 73.3601 34.0141 72.9701 32.3141 72.7301C30.2841 72.4401 27.9741 73.9301 26.1141 75.1301L25.6741 75.4201L14.4941 56.0601C23.4641 47.7801 31.6041 46.4001 39.3641 51.8401C41.9341 53.6401 46.1141 54.5101 50.1541 55.3501C55.0041 56.3601 60.0041 57.4001 61.5441 59.8601C62.0741 60.7801 62.1941 61.8901 61.8541 62.9001C61.6641 63.9701 61.0241 64.9101 60.1041 65.4801C57.8541 66.7601 53.9241 65.5901 50.7641 64.6501C49.9941 64.4201 49.2641 64.2001 48.5941 64.0301C48.0141 63.8901 47.4341 64.2501 47.2941 64.8201C47.1541 65.3901 47.4941 65.9601 48.0641 66.1101C48.6841 66.2701 49.4041 66.4801 50.1541 66.7101C53.7041 67.7701 58.1241 69.0801 61.1741 67.3501C62.6141 66.4901 63.6241 65.0701 63.9541 63.4301C64.3341 62.1401 64.2741 60.7701 63.7941 59.5201L80.9141 47.0201C81.9841 46.2501 83.3241 45.9401 84.6241 46.1801C85.8141 46.3801 86.8641 47.0601 87.5341 48.0701C88.9641 50.2701 88.4741 53.1901 86.4141 54.8101L86.4041 54.8001Z" fill="white"/>
<path d="M18.5739 86.78C17.9439 86.78 17.3239 86.7 16.7139 86.53C14.9039 86.05 13.3339 84.85 12.3939 83.22L0.943926 63.4C-1.00607 60.01 0.163926 55.65 3.54393 53.69L5.00393 52.85C7.63393 51.34 10.9339 51.68 13.2139 53.63C22.9139 44.93 32.2239 43.59 40.8839 49.66C42.9939 51.14 46.8939 51.95 50.6639 52.74C55.5139 53.75 60.0639 54.7 62.6439 57.07L79.3439 44.87C80.9939 43.67 83.0939 43.2 85.0939 43.56C86.9839 43.88 88.6839 44.99 89.7439 46.6C91.9439 49.95 91.2339 54.35 88.1039 56.84L65.6939 75.49C63.2639 77.51 59.6239 78.49 54.5439 78.49C49.0339 78.49 42.7539 77.31 37.7039 76.36C35.6939 75.98 33.6039 75.59 31.9439 75.35C30.8939 75.19 28.8839 76.5 27.5539 77.36C27.3539 77.49 27.1839 77.6 27.0339 77.7C27.4939 80.6 26.1339 83.5 23.5739 84.99L22.1139 85.83C21.0439 86.45 19.8239 86.78 18.5839 86.78H18.5739ZM8.54393 52.91C7.50393 52.91 6.45393 53.17 5.50393 53.72L4.04393 54.56C1.13393 56.25 0.133926 59.99 1.81393 62.9L13.2639 82.73C14.0639 84.12 15.4139 85.16 16.9739 85.57C18.5239 85.99 20.2239 85.77 21.6039 84.97L23.0639 84.13C25.3539 82.8 26.5239 80.16 25.9839 77.57L25.9139 77.23L26.2139 77.05C26.4539 76.9 26.6939 76.74 26.9539 76.58C28.6339 75.49 30.6539 74.18 32.0839 74.39C33.7639 74.63 35.8539 75.03 37.8839 75.41C42.8839 76.35 49.1139 77.53 54.5339 77.53C59.3739 77.53 62.8039 76.62 65.0439 74.76L87.4639 56.1C88.6039 55.19 89.3739 54 89.7539 52.7L86.9439 55.04C86.8839 55.1 86.8139 55.15 86.7439 55.2L64.3239 73.87C59.0839 78.23 46.9639 75.94 38.1139 74.28L37.5139 74.17C35.5939 73.81 33.7839 73.47 32.2539 73.25C30.4039 72.98 28.1839 74.42 26.3939 75.57L25.5039 76.14L13.8539 55.98L14.1439 55.71C23.3139 47.24 31.6539 45.85 39.6439 51.45C42.1239 53.19 46.2539 54.05 50.2439 54.88C55.2039 55.91 60.3139 56.98 61.9639 59.62C62.5739 60.68 62.7039 61.94 62.3239 63.08C62.1239 64.22 61.4039 65.28 60.3539 65.93C57.9039 67.32 53.8539 66.12 50.6139 65.15C49.8439 64.92 49.1139 64.7 48.4539 64.54C48.3139 64.51 48.1539 64.54 48.0239 64.61C47.8939 64.69 47.8039 64.82 47.7639 64.97C47.6939 65.28 47.8739 65.58 48.1739 65.66C48.7639 65.81 49.4439 66.01 50.1639 66.22L50.2839 66.25C53.7439 67.28 58.0539 68.56 60.9139 66.94C62.2139 66.16 63.1439 64.85 63.4539 63.35C63.8039 62.13 63.7539 60.86 63.3139 59.71L63.1739 59.35L80.6039 46.63C81.7839 45.78 83.2739 45.44 84.7039 45.7C86.0139 45.92 87.1939 46.69 87.9339 47.8C89.0539 49.52 89.1139 51.62 88.2539 53.33L89.7739 52.57C90.2539 50.79 89.9839 48.83 88.8939 47.17C87.9839 45.79 86.5339 44.84 84.9039 44.56C83.1639 44.24 81.3439 44.66 79.9139 45.69L62.5239 58.39L62.2239 58.08C59.9339 55.7 55.3439 54.75 50.4839 53.74C46.5739 52.92 42.5839 52.09 40.3039 50.49C31.9839 44.65 22.9839 46.07 13.5439 54.69L13.1939 55.01L12.8539 54.68C11.6839 53.52 10.1139 52.92 8.54393 52.92V52.91ZM31.7839 72.19C31.9839 72.19 32.1839 72.2 32.3839 72.23C33.9339 72.45 35.7539 72.79 37.6839 73.15L38.2739 73.26C46.9339 74.89 58.7839 77.12 63.6639 73.07L82.7639 57.18L82.2439 57.44L86.0939 54.41C87.9639 52.94 88.3939 50.33 87.1039 48.34C86.5239 47.46 85.5839 46.85 84.5339 46.67C83.3639 46.46 82.1539 46.73 81.1939 47.42L64.3739 59.7C64.7739 60.95 64.7939 62.31 64.4239 63.57C64.0739 65.3 62.9739 66.85 61.4239 67.78C58.1739 69.62 53.6439 68.27 50.0039 67.19L49.8839 67.16C49.1839 66.95 48.5139 66.75 47.9239 66.6C47.0839 66.37 46.5939 65.54 46.7939 64.71C46.8939 64.3 47.1439 63.95 47.5039 63.73C47.8639 63.51 48.2839 63.44 48.6939 63.54C49.3739 63.71 50.1139 63.93 50.8939 64.16C53.9639 65.07 57.7839 66.21 59.8439 65.04C60.6339 64.55 61.1839 63.73 61.3539 62.8C61.6639 61.86 61.5639 60.9 61.1039 60.1C59.6939 57.84 54.7939 56.82 50.0539 55.83C45.9439 54.98 41.7139 54.09 39.0739 52.24C31.6139 47.01 23.7739 48.29 15.1239 56.15L25.8439 74.71C27.5939 73.58 29.7339 72.19 31.7839 72.19ZM18.5639 84.62C16.8439 84.62 15.1739 83.73 14.2539 82.15L2.81393 62.33C1.46393 59.97 2.27393 56.93 4.62393 55.56L6.08393 54.72C7.20393 54.07 8.58393 53.89 9.84393 54.23C11.1039 54.56 12.2039 55.4 12.8539 56.53L24.3039 76.36C24.9539 77.49 25.1339 78.86 24.7939 80.12C24.4639 81.38 23.6239 82.48 22.4939 83.13L21.0339 83.97C20.2539 84.41 19.4139 84.62 18.5739 84.62H18.5639ZM8.54393 55.05C7.85393 55.05 7.17393 55.23 6.58393 55.58L5.12393 56.42C3.24393 57.51 2.59393 59.94 3.67393 61.83L15.1239 81.65C16.2139 83.53 18.6439 84.18 20.5339 83.1L21.9939 82.26C22.8939 81.74 23.5639 80.87 23.8339 79.86C24.1039 78.85 23.9639 77.76 23.4439 76.86L11.9939 57.03C11.4739 56.13 10.5939 55.46 9.59393 55.19C9.25393 55.1 8.90393 55.05 8.55393 55.05H8.54393Z" fill="white"/>
<path d="M48.584 18.9501C48.584 16.0001 51.254 13.5501 54.714 13.1201V11.3901C54.734 10.8001 55.224 10.3301 55.824 10.3501C56.394 10.3701 56.854 10.8201 56.864 11.3901V13.1201C58.774 13.3101 60.544 14.2301 61.794 15.6801C62.154 16.1501 62.064 16.8301 61.594 17.1901C61.144 17.5401 60.494 17.4701 60.124 17.0401C59.014 15.8301 57.434 15.1601 55.784 15.2101C52.994 15.2101 50.724 16.8901 50.724 18.9501C50.724 21.0101 52.994 22.6901 55.784 22.6901C59.754 22.6901 62.994 25.3301 62.994 28.5801C62.994 31.5301 60.324 33.9801 56.864 34.4101V36.1401C56.884 36.7301 56.414 37.2301 55.824 37.2501C55.234 37.2701 54.734 36.8001 54.714 36.2101C54.714 36.1901 54.714 36.1701 54.714 36.1401V34.4101C52.804 34.2201 51.034 33.3001 49.784 31.8501C49.424 31.3801 49.514 30.7001 49.984 30.3401C50.434 29.9901 51.084 30.0601 51.454 30.4901C52.564 31.7001 54.144 32.3701 55.794 32.3201C58.584 32.3201 60.854 30.6401 60.854 28.5801C60.854 26.5201 58.584 24.8401 55.794 24.8401C51.814 24.8401 48.584 22.2001 48.584 18.9501Z" fill="white"/>
<path d="M55.7942 37.7501C54.9442 37.7501 54.2442 37.0701 54.2142 36.2201V34.8401C52.3442 34.5501 50.6542 33.6101 49.4042 32.1701C48.8542 31.4601 48.9842 30.4701 49.6742 29.9401C50.3342 29.4301 51.2842 29.5301 51.8342 30.1601C52.8342 31.2501 54.2942 31.8801 55.7742 31.8201C58.3042 31.8201 60.3442 30.3701 60.3442 28.5801C60.3442 26.7901 58.3042 25.3401 55.7842 25.3401C51.5342 25.3401 48.0742 22.4701 48.0742 18.9501C48.0742 15.9301 50.6842 13.3001 54.2042 12.6901V11.3901C54.2342 10.5101 54.9242 9.82006 55.8242 9.85006C56.6542 9.88006 57.3242 10.5501 57.3542 11.3801V12.6901C59.2242 12.9801 60.9242 13.9201 62.1642 15.3701C62.4342 15.7301 62.5542 16.1401 62.4942 16.5601C62.4442 16.9801 62.2242 17.3501 61.8942 17.6001C61.2242 18.1101 60.2842 18.0101 59.7342 17.3801C58.7342 16.2901 57.2942 15.6701 55.7942 15.7201C53.2642 15.7201 51.2242 17.1701 51.2242 18.9601C51.2242 20.7501 53.2642 22.2001 55.7842 22.2001C60.0342 22.2001 63.4942 25.0701 63.4942 28.5901C63.4942 31.6101 60.8842 34.2401 57.3642 34.8501V36.1501C57.3742 36.5601 57.2242 36.9601 56.9342 37.2601C56.6442 37.5701 56.2542 37.7401 55.8342 37.7601C55.8142 37.7601 55.8042 37.7601 55.7842 37.7601L55.7942 37.7501ZM50.6342 30.6101C50.5142 30.6101 50.3942 30.6501 50.2842 30.7301C50.0342 30.9201 49.9842 31.2901 50.1742 31.5401C51.3342 32.8801 52.9642 33.7301 54.7542 33.9101L55.2042 33.9501V36.1401C55.2142 36.5101 55.4942 36.7601 55.7942 36.7501C56.1142 36.7501 56.3642 36.4701 56.3542 36.1601V33.9701L56.7942 33.9201C60.0442 33.5201 62.4842 31.2301 62.4842 28.5901C62.4842 25.6201 59.4742 23.2001 55.7742 23.2001C52.7142 23.2001 50.2142 21.3001 50.2142 18.9601C50.2142 16.6201 52.7042 14.7201 55.7742 14.7201C57.5542 14.6701 59.2742 15.3901 60.4842 16.7101C60.6942 16.9501 61.0442 16.9901 61.2842 16.8001C61.4042 16.7101 61.4842 16.5701 61.5042 16.4201C61.5242 16.2701 61.4842 16.1201 61.3942 15.9901C60.2342 14.6501 58.6042 13.8001 56.8042 13.6201L56.3542 13.5801V11.3901C56.3542 11.1001 56.1042 10.8601 55.7942 10.8501C55.4942 10.8301 55.2142 11.0901 55.2042 11.4101V13.5701L54.7642 13.6201C51.5142 14.0201 49.0742 16.3101 49.0742 18.9501C49.0742 21.9201 52.0842 24.3401 55.7842 24.3401C58.8442 24.3401 61.3442 26.2401 61.3442 28.5801C61.3442 30.9201 58.8542 32.8201 55.7842 32.8201C54.0142 32.8901 52.2842 32.1501 51.0742 30.8301C50.9542 30.6901 50.7842 30.6201 50.6242 30.6201L50.6342 30.6101Z" fill="white"/>
<path d="M55.7834 0.5C42.9334 0.5 32.5234 10.91 32.5234 23.76C32.5334 36.6 42.9434 47.01 55.7834 47.02C68.6334 47.02 79.0434 36.61 79.0434 23.76C79.0434 10.91 68.6334 0.5 55.7834 0.5ZM55.7834 45.01C44.0434 45.01 34.5334 35.5 34.5334 23.76C34.5434 12.03 44.0534 2.52 55.7834 2.51C67.5234 2.51 77.0334 12.03 77.0334 23.76C77.0334 35.49 67.5234 45.01 55.7834 45.01Z" fill="white"/>
<path d="M55.7834 47.52C42.6934 47.51 32.0334 36.85 32.0234 23.76C32.0234 10.66 42.6834 0 55.7834 0C68.8834 0 79.5434 10.66 79.5434 23.76C79.5434 36.86 68.8834 47.52 55.7834 47.52ZM55.7834 1C43.2334 1 33.0234 11.21 33.0234 23.76C33.0334 36.3 43.2534 46.51 55.7834 46.52C68.3334 46.52 78.5434 36.31 78.5434 23.76C78.5434 11.21 68.3434 1 55.7834 1ZM55.7834 45.51C43.7934 45.51 34.0334 35.75 34.0334 23.76C34.0434 11.78 43.8034 2.02 55.7834 2.01C67.7734 2.01 77.5334 11.77 77.5334 23.76C77.5334 35.75 67.7734 45.51 55.7834 45.51ZM55.7834 3.01C44.3534 3.02 35.0434 12.33 35.0334 23.76C35.0334 35.2 44.3434 44.51 55.7834 44.51C67.2234 44.51 76.5334 35.2 76.5334 23.76C76.5334 12.32 67.2334 3.01 55.7834 3.01Z" fill="white"/>
</svg>
