<svg width="115" height="74" viewBox="0 0 115 74" fill="none" xmlns="http://www.w3.org/2000/svg">
<path d="M77.8698 73.6C57.7298 73.6 41.3398 57.09 41.3398 36.79C41.3398 16.49 57.7298 0 77.8698 0C98.0098 0 114.4 16.51 114.4 36.79C114.4 57.07 98.0098 73.6 77.8698 73.6ZM77.8698 4C59.9298 4 45.3398 18.71 45.3398 36.79C45.3398 54.87 59.9298 69.6 77.8698 69.6C95.8098 69.6 110.4 54.88 110.4 36.79C110.4 18.7 95.8098 4 77.8698 4Z" fill="white"/>
<path d="M15.4299 2.28003C14.3199 2.28003 13.4199 3.17003 13.4199 4.28003C13.4199 4.28003 13.4199 4.29003 13.4199 4.30003C13.4199 5.41003 14.3299 6.30003 15.4299 6.30003H40.7599C41.8699 6.30003 42.7699 5.41003 42.7699 4.30003C42.7699 3.19003 41.8799 2.29003 40.7699 2.29003C40.7699 2.29003 40.7599 2.29003 40.7499 2.29003H15.4299V2.28003Z" fill="white"/>
<path d="M77.5 13.0601C76.39 13.0601 75.5 13.9701 75.5 15.0701V39.9701C75.5 41.0801 76.39 41.9801 77.5 41.9901H91.82C92.93 41.9901 93.83 41.1001 93.83 39.9901C93.83 39.9901 93.83 39.9801 93.83 39.9701C93.83 38.8601 92.92 37.9701 91.82 37.9701H79.49V15.0801C79.49 13.9701 78.6 13.0701 77.49 13.0701L77.5 13.0601Z" fill="white"/>
<path d="M5.77953 18.55C4.66953 18.55 3.76953 19.44 3.76953 20.55C3.76953 21.66 4.67953 22.55 5.77953 22.55H31.1095C32.2195 22.55 33.1195 21.66 33.1195 20.55C33.1195 19.44 32.2095 18.55 31.1095 18.55H5.77953Z" fill="white"/>
<path d="M2.01 34.8C0.91 34.79 0 35.69 0 36.79C0 37.9 0.89 38.8 2 38.8C2 38.8 2.01 38.8 2.02 38.8H27.35C28.46 38.8 29.36 37.91 29.36 36.8C29.36 36.8 29.36 36.79 29.36 36.78C29.36 35.67 28.45 34.78 27.35 34.78H2.01V34.8Z" fill="white"/>
<path d="M5.77953 51.04C4.66953 51.04 3.76953 51.93 3.76953 53.04C3.76953 54.15 4.65953 55.05 5.76953 55.05C5.76953 55.05 5.77953 55.05 5.78953 55.05H31.1195C32.2295 55.05 33.1295 54.16 33.1295 53.05C33.1295 53.05 33.1295 53.04 33.1295 53.03C33.1295 51.92 32.2195 51.03 31.1195 51.03H5.77953V51.04Z" fill="white"/>
<path d="M15.4299 67.29C14.3199 67.29 13.4199 68.18 13.4199 69.29C13.4199 70.4 14.3099 71.3 15.4199 71.3C15.4199 71.3 15.4299 71.3 15.4399 71.3H40.7699C41.8799 71.3 42.7799 70.41 42.7799 69.3C42.7799 69.3 42.7799 69.29 42.7799 69.28C42.7799 68.17 41.8699 67.28 40.7699 67.28H15.4299V67.29Z" fill="white"/>
</svg>
