<svg width="112" height="76" viewBox="0 0 112 76" fill="none" xmlns="http://www.w3.org/2000/svg">
<path d="M78.4902 20.57C78.4902 17.62 81.1602 15.17 84.6202 14.74V13.01C84.6402 12.42 85.1302 11.95 85.7302 11.97C86.3002 11.99 86.7602 12.44 86.7702 13.01V14.74C88.6802 14.93 90.4502 15.85 91.7002 17.3C92.0602 17.77 91.9702 18.45 91.5002 18.81C91.0502 19.16 90.4002 19.09 90.0302 18.66C88.9202 17.45 87.3402 16.78 85.6902 16.83C82.9002 16.83 80.6302 18.51 80.6302 20.57C80.6302 22.63 82.9002 24.31 85.6902 24.31C89.6602 24.31 92.9002 26.95 92.9002 30.2C92.9002 33.15 90.2302 35.6 86.7702 36.03V37.76C86.7902 38.35 86.3202 38.85 85.7302 38.87C85.1402 38.89 84.6402 38.42 84.6202 37.83C84.6202 37.81 84.6202 37.79 84.6202 37.76V36.03C82.7102 35.84 80.9402 34.92 79.6902 33.47C79.3302 33 79.4202 32.32 79.8902 31.96C80.3402 31.61 80.9902 31.68 81.3602 32.11C82.4702 33.32 84.0502 33.99 85.7002 33.94C88.4902 33.94 90.7602 32.26 90.7602 30.2C90.7602 28.14 88.4902 26.46 85.7002 26.46C81.7202 26.46 78.4902 23.82 78.4902 20.57Z" fill="white"/>
<path d="M85.7005 39.37C85.3005 39.37 84.9205 39.22 84.6205 38.94C84.3105 38.65 84.1405 38.26 84.1205 37.84V37.82V37.74V36.47C82.2505 36.18 80.5505 35.24 79.3105 33.8C78.7605 33.09 78.8905 32.1 79.5805 31.57C80.2405 31.06 81.1905 31.16 81.7405 31.79C82.7405 32.88 84.1805 33.5 85.6805 33.45C88.2105 33.45 90.2505 32 90.2505 30.21C90.2505 28.42 88.2105 26.97 85.6905 26.97C81.4405 26.97 77.9805 24.1 77.9805 20.58C77.9805 17.56 80.5905 14.93 84.1105 14.32V13.02C84.1205 12.58 84.3005 12.19 84.6105 11.9C84.9205 11.61 85.3105 11.48 85.7405 11.47C86.5705 11.49 87.2405 12.17 87.2705 13V14.31C89.1405 14.6 90.8405 15.54 92.0805 16.99C92.3505 17.35 92.4705 17.76 92.4105 18.18C92.3505 18.6 92.1405 18.97 91.8105 19.22C91.1505 19.73 90.2005 19.63 89.6605 19C88.6605 17.91 87.2105 17.29 85.7205 17.34C83.1905 17.34 81.1505 18.79 81.1505 20.58C81.1505 22.37 83.1905 23.82 85.7105 23.82C89.9605 23.82 93.4205 26.69 93.4205 30.21C93.4205 33.23 90.8105 35.86 87.2905 36.47V37.77C87.3005 38.18 87.1505 38.58 86.8605 38.88C86.5705 39.18 86.1805 39.36 85.7605 39.38C85.7405 39.38 85.7305 39.38 85.7105 39.38L85.7005 39.37ZM80.5405 32.24C80.4205 32.24 80.3005 32.28 80.1905 32.36C79.9405 32.55 79.8905 32.92 80.0805 33.17C81.2405 34.51 82.8705 35.36 84.6605 35.54L85.1105 35.58V37.77C85.1105 37.98 85.1805 38.12 85.2905 38.22C85.4005 38.32 85.5405 38.37 85.7005 38.38C85.8505 38.38 86.0005 38.31 86.1005 38.2C86.2005 38.09 86.2605 37.94 86.2605 37.79V35.6L86.7005 35.55C89.9505 35.15 92.3905 32.86 92.3905 30.22C92.3905 27.25 89.3805 24.83 85.6805 24.83C82.6205 24.83 80.1205 22.93 80.1205 20.59C80.1205 18.25 82.6105 16.35 85.6805 16.35C87.4505 16.3 89.1805 17.02 90.3905 18.34C90.6005 18.59 90.9505 18.62 91.1905 18.43C91.3105 18.34 91.3905 18.2 91.4105 18.05C91.4305 17.9 91.3905 17.75 91.3005 17.62C90.1405 16.28 88.5105 15.43 86.7105 15.25L86.2605 15.21V13.02C86.2605 12.73 86.0105 12.49 85.7005 12.48C85.5505 12.48 85.4005 12.53 85.2905 12.64C85.1805 12.75 85.1105 12.89 85.1105 13.04V15.2L84.6705 15.25C81.4205 15.65 78.9805 17.94 78.9805 20.58C78.9805 23.55 81.9905 25.97 85.6905 25.97C88.7505 25.97 91.2505 27.87 91.2505 30.21C91.2505 32.55 88.7605 34.45 85.6905 34.45C83.9205 34.5 82.1905 33.78 80.9805 32.46C80.8605 32.32 80.6905 32.25 80.5305 32.25L80.5405 32.24Z" fill="white"/>
<path d="M85.7003 0.51001C71.9603 0.51001 60.8203 11.65 60.8203 25.39C60.8403 39.12 71.9603 50.25 85.7003 50.27C99.4403 50.27 110.58 39.13 110.58 25.39C110.58 11.65 99.4403 0.51001 85.7003 0.51001ZM85.7003 48.11C73.1503 48.11 62.9803 37.94 62.9803 25.38C62.9903 12.83 73.1603 2.67001 85.7003 2.65001C98.2503 2.65001 108.42 12.83 108.42 25.38C108.42 37.93 98.2503 48.11 85.7003 48.11Z" fill="white"/>
<path d="M85.7003 50.76C71.7203 50.75 60.3403 39.36 60.3203 25.38C60.3203 11.39 71.7003 0 85.7003 0C99.7003 0 111.08 11.38 111.08 25.38C111.08 39.38 99.7003 50.76 85.7003 50.76ZM85.7003 1.01C72.2603 1.01 61.3203 11.95 61.3203 25.39C61.3403 38.82 72.2703 49.75 85.7003 49.77C99.1403 49.77 110.08 38.83 110.08 25.39C110.08 11.95 99.1403 1.01 85.7003 1.01ZM85.7003 48.61C72.8903 48.61 62.4803 38.19 62.4803 25.38C62.5003 12.59 72.9103 2.17 85.7003 2.15C98.5103 2.15 108.93 12.57 108.93 25.38C108.93 38.19 98.5103 48.61 85.7003 48.61ZM85.7003 3.16C73.4603 3.17 63.4903 13.14 63.4803 25.38C63.4803 37.63 73.4503 47.61 85.7003 47.61C97.9503 47.61 107.93 37.64 107.93 25.38C107.93 13.12 97.9503 3.16 85.7003 3.16Z" fill="white"/>
<path d="M18.9696 67.1201H12.0696C11.1196 67.1201 10.3496 66.3501 10.3496 65.4001V53.3301H13.7996V63.6801H17.2496V46.4301H20.6996V65.4001C20.6996 66.3501 19.9296 67.1201 18.9796 67.1201H18.9696Z" fill="white"/>
<path d="M32.7704 67.12H25.8704C24.9204 67.12 24.1504 66.35 24.1504 65.4V49.88H27.6004V63.68H31.0504V53.33H34.5004V65.4C34.5004 66.35 33.7304 67.12 32.7804 67.12H32.7704Z" fill="white"/>
<path d="M46.5702 67.12H39.6702C38.7202 67.12 37.9502 66.35 37.9502 65.4V48.15H41.4002V63.67H44.8502V41.25H48.3002V65.4C48.3002 66.35 47.5302 67.12 46.5802 67.12H46.5702Z" fill="white"/>
<path d="M81.07 75.74H8.62C3.86 75.74 0 71.88 0 67.12V11.92C0 7.15004 3.86 3.29004 8.62 3.29004H60.37V6.74004H8.62C5.76 6.74004 3.45 9.06004 3.45 11.91V67.11C3.45 69.97 5.77 72.28 8.62 72.28H81.07C83.93 72.28 86.24 69.96 86.24 67.11V58.49H89.69V67.11C89.69 71.87 85.83 75.73 81.07 75.73V75.74Z" fill="white"/>
<path d="M9.6302 49.1401L7.2002 46.7101L19.3802 34.5301C20.0502 33.8601 21.1402 33.8601 21.8102 34.5301L31.0602 43.7601L51.7602 23.0601L54.1902 25.4901L32.2802 47.4101C31.6102 48.0801 30.5202 48.0801 29.8502 47.4101L20.6002 38.1601L9.6302 49.1301V49.1401Z" fill="white"/>
<path d="M55.1996 32.39H51.7496V25.49H44.8496V22.04H53.4696C54.4196 22.04 55.1896 22.81 55.1896 23.76V32.38L55.1996 32.39Z" fill="white"/>
<path d="M10.3499 15.36C11.2998 15.36 12.0699 14.59 12.0699 13.64C12.0699 12.6901 11.2998 11.92 10.3499 11.92C9.39995 11.92 8.62988 12.6901 8.62988 13.64C8.62988 14.59 9.39995 15.36 10.3499 15.36Z" fill="white"/>
<path d="M15.5198 15.36C16.4697 15.36 17.2398 14.59 17.2398 13.64C17.2398 12.6901 16.4697 11.92 15.5198 11.92C14.5699 11.92 13.7998 12.6901 13.7998 13.64C13.7998 14.59 14.5699 15.36 15.5198 15.36Z" fill="white"/>
<path d="M20.7005 15.36C21.6504 15.36 22.4205 14.59 22.4205 13.64C22.4205 12.6901 21.6504 11.92 20.7005 11.92C19.7505 11.92 18.9805 12.6901 18.9805 13.64C18.9805 14.59 19.7505 15.36 20.7005 15.36Z" fill="white"/>
<path d="M60.37 67.12H53.47C52.52 67.12 51.75 66.35 51.75 65.4V55.05H55.2V63.67H58.65V55.05H62.1V65.4C62.1 66.35 61.33 67.12 60.38 67.12H60.37Z" fill="white"/>
<path d="M74.1698 67.12H67.2698C66.3198 67.12 65.5498 66.35 65.5498 65.4V60.23H68.9998V63.68H72.4498V60.23H75.8998V65.4C75.8998 66.35 75.1298 67.12 74.1798 67.12H74.1698Z" fill="white"/>
</svg>
