<svg width="55" height="96" viewBox="0 0 55 96" fill="none" xmlns="http://www.w3.org/2000/svg">
<path d="M37.4549 56.822C36.0628 56.822 34.7271 56.2858 33.7395 55.2888L28.378 49.9273C28.0112 49.5605 27.3528 49.5605 26.9671 49.9273L21.5869 55.3076C20.5992 56.2952 19.2824 56.8408 17.8715 56.8408H16.8086L23.5998 63.632C25.7161 65.7483 29.1682 65.7483 31.2845 63.632L38.0945 56.822H37.4549Z" fill="white"/>
<path d="M17.8715 37.8594C19.2636 37.8594 20.5992 38.3956 21.5869 39.3926L26.9671 44.7729C27.3528 45.1585 27.9924 45.1585 28.378 44.7729L33.7395 39.4114C34.7271 38.4238 36.044 37.8782 37.4549 37.8782H38.0945L31.2845 31.0682C29.1682 28.9519 25.7161 28.9519 23.5998 31.0682L16.8086 37.8594H17.8715Z" fill="white"/>
<path d="M43.738 43.5124L39.6181 39.3926C39.5334 39.4302 39.43 39.4584 39.3359 39.4584H37.4735C36.4953 39.4584 35.5547 39.8441 34.868 40.5307L29.5066 45.8922C28.9987 46.4001 28.3496 46.6446 27.6912 46.6446C27.0328 46.6446 26.3838 46.3907 25.8759 45.8922L20.4956 40.5119C19.8089 39.8253 18.8683 39.4396 17.8901 39.4396H15.5856C15.4822 39.4396 15.3975 39.4208 15.3129 39.3926L11.1742 43.5312C9.05782 45.6476 9.05782 49.0996 11.1742 51.216L15.3129 55.3547C15.3975 55.317 15.501 55.3076 15.5856 55.3076H17.8901C18.8683 55.3076 19.8089 54.922 20.4956 54.2353L25.8759 48.8551C26.8541 47.8768 28.5472 47.8768 29.5066 48.8551L34.868 54.2165C35.5547 54.9032 36.4953 55.2888 37.4735 55.2888H39.3359C39.4394 55.2888 39.5334 55.3076 39.6181 55.3358L43.738 51.216C45.8543 49.0808 45.8543 45.6476 43.738 43.5124Z" fill="white"/>
<path d="M48.7986 95.02C52.1754 95.02 54.9032 92.2828 54.9126 88.9061V6.11394C54.9126 2.73716 52.1754 0.00940606 48.7986 0H6.11394C2.73716 0 0 2.73716 0 6.11394V88.8873C0 92.264 2.73716 94.9918 6.11394 95.0012L48.7986 95.02ZM37.5678 2.84063L36.5331 4.72184C36.2415 5.24858 35.6772 5.57779 35.0752 5.57779H19.8374C19.2354 5.57779 18.671 5.24858 18.3794 4.72184L17.3448 2.84063H37.5678ZM2.82182 88.8873V6.11394C2.82182 4.29857 4.29857 2.82182 6.11394 2.82182H14.1185L15.9151 6.03869C16.7052 7.459 18.2101 8.34317 19.8374 8.34317H35.0752C36.7024 8.34317 38.2074 7.459 38.9975 6.03869L40.7941 2.82182H48.7986C50.614 2.82182 52.0908 4.29857 52.0908 6.11394V88.8873C52.0908 90.7026 50.614 92.1794 48.7986 92.1794H6.11394C4.29857 92.1794 2.82182 90.7026 2.82182 88.8873Z" fill="white"/>
<path d="M32.1593 83.8362H22.7533C21.7143 83.8362 20.8721 84.6784 20.8721 85.7174C20.8721 86.7564 21.7143 87.5986 22.7533 87.5986H32.1593C33.1983 87.5986 34.0406 86.7564 34.0406 85.7174C34.0406 84.6784 33.1983 83.8362 32.1593 83.8362Z" fill="white"/>
</svg>
