<svg width="89" height="90" viewBox="0 0 89 90" fill="none" xmlns="http://www.w3.org/2000/svg">
<path fill-rule="evenodd" clip-rule="evenodd" d="M27.1051 32.5321L23.2055 36.453C21.3465 38.3013 18.3444 38.2906 16.5068 36.4423C14.6585 34.5834 14.6692 31.5812 16.5175 29.7329L20.417 25.812C20.8764 25.3526 20.8764 24.6047 20.417 24.1346C19.9576 23.6752 19.2098 23.6752 18.7397 24.1346L14.8401 28.0556C13.0452 29.8505 12.3294 32.468 12.9811 34.9146C13.6328 37.3718 15.5452 39.2949 18.0025 39.9573C20.4598 40.6197 23.0773 39.9252 24.8722 38.1304L28.7717 34.2094C29.0068 33.9851 29.135 33.6859 29.1457 33.3654C29.1457 33.0449 29.0282 32.7351 28.8038 32.5107C28.5794 32.2864 28.2696 32.1582 27.9491 32.1688C27.6286 32.1688 27.3294 32.3077 27.1051 32.5321ZM37.1478 15.7479C35.823 14.4124 34.0175 13.6646 32.1264 13.6646C30.2354 13.6646 28.4405 14.4124 27.1051 15.7479L23.2055 19.6688C22.7461 20.1282 22.7461 20.8761 23.2055 21.3462C23.6649 21.8056 24.4128 21.8056 24.8829 21.3462L28.7824 17.4252C29.6692 16.5385 30.8764 16.0363 32.1371 16.047C33.3978 16.047 34.5944 16.5492 35.4811 17.4466C37.3294 19.3056 37.3188 22.297 35.4705 24.1453L31.5709 28.0663C31.1115 28.5257 31.1115 29.2842 31.5709 29.7436C31.7952 29.968 32.0944 30.0962 32.4042 30.0962C32.7141 30.0962 33.0239 29.968 33.2376 29.7436L37.1371 25.8227C38.4726 24.4872 39.2205 22.671 39.2205 20.7906C39.2205 18.9103 38.4726 17.094 37.1371 15.7586L37.1478 15.7479ZM28.7824 22.4573L21.5388 29.7329C21.0794 30.1923 21.0687 30.9402 21.5388 31.4103C21.9982 31.8697 22.7461 31.8697 23.2162 31.4103L30.4705 24.1346C30.9299 23.6752 30.9299 22.9274 30.4705 22.4573C30.0111 21.9979 29.2632 21.9979 28.7931 22.4573H28.7824Z" fill="white"/>
<path d="M19.8508 40.7372C19.1884 40.7372 18.526 40.6518 17.8636 40.4701C15.2354 39.765 13.1734 37.6817 12.4683 35.0535C11.7631 32.4253 12.5324 29.5941 14.4661 27.671L18.3657 23.75C18.6969 23.4188 19.0708 23.2479 19.5837 23.2479C20.0431 23.2479 20.4704 23.4295 20.7909 23.75C21.1114 24.0706 21.2931 24.5086 21.2931 24.968C21.2931 25.4274 21.1114 25.8547 20.7909 26.1859L16.8913 30.1069C15.246 31.7415 15.246 34.4124 16.8807 36.0577C17.6713 36.8483 18.729 37.2971 19.8508 37.2971C20.9725 37.2971 22.0302 36.859 22.8208 36.0684L26.7204 32.1582C27.0409 31.827 27.479 31.6347 27.9384 31.6347C28.4084 31.624 28.8465 31.8163 29.1777 32.1368C29.5089 32.468 29.6905 32.9167 29.6798 33.3761C29.6798 33.8355 29.4768 34.2736 29.1456 34.5941L25.2567 38.5043C23.8037 39.9466 21.8486 40.7372 19.8508 40.7372ZM19.5837 24.327C19.4127 24.327 19.2418 24.3911 19.1243 24.5193L15.2247 28.4402C13.558 30.0962 12.9063 32.5214 13.5046 34.7864C14.1029 37.0513 15.8871 38.8355 18.1413 39.4445C20.4063 40.0535 22.8422 39.4124 24.4982 37.7565L28.3978 33.8355C28.5367 33.7073 28.6114 33.5364 28.6114 33.3654C28.6114 33.1945 28.5473 33.0236 28.4191 32.8953C28.2909 32.7671 28.0986 32.6924 27.949 32.703C27.7674 32.703 27.6072 32.7778 27.479 32.906L23.5687 36.827C22.5751 37.8206 21.2503 38.3654 19.8401 38.3654C18.4298 38.3654 17.105 37.8099 16.1114 36.8163C14.0602 34.7543 14.0602 31.4103 16.1221 29.359L20.0217 25.4381C20.1499 25.3099 20.214 25.1496 20.214 24.9787C20.214 24.8077 20.1499 24.6368 20.0217 24.5193C19.8935 24.3911 19.7332 24.327 19.5623 24.327H19.5837ZM22.3721 32.2971C21.9127 32.2971 21.4854 32.1154 21.1542 31.7949C20.4811 31.1218 20.4918 30.0321 21.1542 29.359L28.3978 22.0834C29.0708 21.421 30.1606 21.421 30.8337 22.0834C31.5067 22.7564 31.5067 23.8462 30.8337 24.5193L23.5901 31.7949C23.2589 32.1154 22.8315 32.2971 22.3721 32.2971ZM29.1563 22.8419L21.9127 30.1176C21.6563 30.374 21.6563 30.7906 21.9127 31.0364C22.0409 31.1646 22.2012 31.2287 22.3721 31.2287C22.5431 31.2287 22.714 31.1646 22.8315 31.0364L30.0751 23.7607C30.3315 23.5043 30.3315 23.0876 30.0751 22.8419C29.8187 22.5855 29.4127 22.5855 29.1563 22.8419ZM32.4042 30.6197C31.9448 30.6197 31.5067 30.4381 31.1862 30.1069C30.5238 29.4445 30.5238 28.3441 31.1862 27.6817L35.0858 23.7607C36.7311 22.1261 36.7311 19.4552 35.0965 17.8099C34.3059 17.0086 33.2482 16.5705 32.1264 16.5705C31.0046 16.5705 29.9576 17.0086 29.1563 17.7992L25.2567 21.7201C24.9255 22.0406 24.4982 22.2223 24.0388 22.2223C23.5794 22.2223 23.152 22.0406 22.8208 21.7201C22.1584 21.047 22.1584 19.9573 22.8208 19.2842L26.7204 15.3633C28.1414 13.9423 30.1072 13.1197 32.1157 13.1197C34.1243 13.1197 36.0687 13.9103 37.511 15.3633C38.9533 16.8163 39.7439 18.7394 39.7439 20.78C39.7439 22.8206 38.9533 24.7436 37.511 26.1966L33.6114 30.1176C33.3016 30.4381 32.8529 30.6197 32.3935 30.6197H32.4042ZM32.1371 15.5022C33.5473 15.5022 34.8721 16.0577 35.8657 17.0513C37.917 19.1133 37.9063 22.4573 35.855 24.5086L31.9555 28.4295C31.6991 28.6859 31.6991 29.1026 31.9555 29.359C32.2012 29.6047 32.6285 29.6047 32.8636 29.359L36.7738 25.4381C38.0132 24.1881 38.6969 22.5321 38.6969 20.78C38.6969 19.0278 38.0132 17.3718 36.7738 16.1218C35.5345 14.8825 33.8892 14.1988 32.1371 14.1988C30.3849 14.1988 28.7183 14.9039 27.5003 16.1218L23.6008 20.0428C23.3443 20.2992 23.3443 20.7052 23.6008 20.9616C23.8572 21.218 24.2631 21.218 24.5196 20.9616L28.4191 17.0406C29.4127 16.047 30.7375 15.5022 32.1371 15.5022Z" fill="white"/>
<path d="M87.5536 64.3055L80.5557 48.579C79.8506 47.0619 78.7288 45.9401 77.2117 45.3312C75.6946 44.7222 74.06 44.829 72.5429 45.438C71.4211 45.9401 70.6198 46.656 70.0109 47.5748C68.2908 45.8547 65.6519 45.235 63.216 46.3568H63.1092C61.9874 46.8589 61.0792 47.6816 60.4703 48.6966C59.9681 48.1944 59.3485 47.8846 58.6433 47.5748C57.1262 46.9658 55.4916 47.0726 53.9745 47.6816C53.0664 48.0876 52.2544 48.6966 51.7416 49.5085L46.56 37.735C45.2352 34.6901 41.592 33.2692 38.5472 34.6901C35.5023 36.0149 34.0814 39.6581 35.5023 42.703L47.6818 70.203L42.1049 68.2799C40.5878 67.7778 38.857 67.8739 37.4361 68.5897C36.0151 69.2949 34.904 70.6196 34.498 72.2436C33.6861 74.9786 35.0002 77.9273 37.5429 79.1453L55.7053 88.1731C58.1412 89.391 60.8869 90 63.5151 90C65.951 90 68.3869 89.4979 70.6198 88.4829L79.7545 84.4231C87.4788 81.1645 91.0258 72.0406 87.575 64.3269L87.5536 64.3055ZM78.419 81.5598L69.2844 85.6197C65.3314 87.3397 60.9617 87.2436 57.1049 85.3098L38.9425 76.282C37.8207 75.6731 37.2224 74.4551 37.6177 73.2372C37.8207 72.532 38.3228 71.9124 38.9425 71.6132C39.5514 71.3034 40.3634 71.2072 40.9724 71.4102L50.107 74.562C50.716 74.7649 51.4318 74.562 51.8271 74.156C52.2331 73.6538 52.3292 72.938 52.1369 72.329L38.4403 41.485C37.8314 40.0641 38.4403 38.4401 39.8613 37.8312C41.2822 37.2222 42.9061 37.8312 43.5151 39.2521L52.5429 59.5513C52.9489 60.3632 53.8677 60.7692 54.6797 60.3632C55.4916 59.9572 55.8976 59.0384 55.4916 58.2265L53.9745 54.4765C53.3656 53.0555 53.9745 51.4316 55.3955 50.8226C56.1006 50.5128 56.8164 50.5128 57.5322 50.7158C58.2374 51.0256 58.7502 51.5278 59.0493 52.2329L61.3891 57.5107C61.6989 58.1196 62.2972 58.5256 62.9062 58.5256C63.1092 58.5256 63.3121 58.5256 63.6113 58.4188C64.4233 58.0128 64.8292 57.094 64.4233 56.282L63.0985 53.2372C62.4895 51.8162 63.0985 50.1923 64.5194 49.5833H64.6262C66.0472 48.9743 67.6711 49.5833 68.2801 51.0042L70.31 55.5662C70.716 56.3782 71.6348 56.7842 72.4468 56.3782C73.2587 55.9722 73.6647 55.0534 73.2587 54.2414L72.4468 52.4145C71.8378 50.9936 72.4468 49.3696 73.8677 48.7607C74.5728 48.4508 75.2886 48.4508 76.0045 48.6538C76.7096 48.9636 77.2224 49.4658 77.5216 50.1709L84.5194 65.609C87.2545 71.6987 84.5194 78.8034 78.4297 81.5385L78.419 81.5598Z" fill="white"/>
<path d="M33.2158 55.4594H14.5513C6.52778 55.4594 0 48.9317 0 40.9081V14.5513C0 6.52778 6.52778 0 14.5513 0H40.9081C48.9317 0 55.4594 6.52778 55.4594 14.5513V35.3312C55.4594 36.218 54.7436 36.9338 53.8569 36.9338C52.9701 36.9338 52.2543 36.218 52.2543 35.3312V14.5513C52.2543 8.30129 47.1688 3.20513 40.9081 3.20513H14.5513C8.2906 3.20513 3.20513 8.2906 3.20513 14.5513V40.9081C3.20513 47.1582 8.2906 52.2543 14.5513 52.2543H33.2158C34.1026 52.2543 34.8184 52.9701 34.8184 53.8569C34.8184 54.7436 34.1026 55.4594 33.2158 55.4594Z" fill="white"/>
</svg>
