<svg width="35" height="35" viewBox="0 0 35 35" fill="none" xmlns="http://www.w3.org/2000/svg">
<path d="M34.9991 17.5C34.9991 27.1652 27.1643 35 17.4991 35C7.83483 34.9991 0 27.1643 0 17.5C0 7.83483 7.83483 0 17.5 0C27.1652 0 35 7.83483 35 17.5H34.9991Z" fill="#00A3E4"/>
<path d="M22.2477 8.32019H12.7517C10.3048 8.32019 8.32031 10.3047 8.32031 12.7516V22.2476C8.32031 24.6945 10.3048 26.679 12.7517 26.679H22.2477C24.6946 26.679 26.6791 24.6945 26.6791 22.2476V12.7516C26.6791 10.3047 24.6946 8.32019 22.2477 8.32019ZM25.0963 21.9314C25.0963 23.6789 23.6782 25.097 21.9306 25.097H13.0679C11.3204 25.097 9.90225 23.6789 9.90225 21.9314V13.0687C9.90225 11.3211 11.3204 9.90301 13.0679 9.90301H21.9306C23.6782 9.90301 25.0963 11.3211 25.0963 13.0687V21.9314Z" fill="white"/>
<path d="M17.5083 12.7516C14.8879 12.7516 12.7607 14.8788 12.7607 17.4992C12.7607 20.1196 14.8879 22.2468 17.5083 22.2468C20.1287 22.2468 22.2559 20.1196 22.2559 17.4992C22.2559 14.8788 20.1287 12.7516 17.5083 12.7516ZM17.5083 20.6648C15.7643 20.6648 14.3427 19.2432 14.3427 17.4992C14.3427 15.7552 15.7643 14.3335 17.5083 14.3335C19.2523 14.3335 20.674 15.7552 20.674 17.4992C20.674 19.2432 19.2523 20.6648 17.5083 20.6648Z" fill="white"/>
<path d="M22.5735 13.3849C22.0503 13.3849 21.624 12.9586 21.624 12.4354C21.624 11.9122 22.0503 11.4858 22.5735 11.4858C23.0967 11.4858 23.5231 11.9122 23.5231 12.4354C23.5231 12.9586 23.0967 13.3849 22.5735 13.3849Z" fill="white"/>
</svg>
