<svg width="35" height="35" viewBox="0 0 35 35" fill="none" xmlns="http://www.w3.org/2000/svg">
<path d="M34.9991 17.5C34.9991 27.1652 27.1643 35 17.4991 35C7.83483 34.9991 0 27.1643 0 17.5C0 7.83483 7.83483 0 17.5 0C27.1652 0 35 7.83483 35 17.5H34.9991Z" fill="#00A3E4"/>
<path d="M22.6843 16.1419L22.3928 18.4831C22.3434 18.8742 22.0122 19.1683 21.6194 19.1683H17.8275V28.9568C17.4276 28.9929 17.0224 29.0114 16.6129 29.0114C15.6968 29.0114 14.8028 28.9198 13.9387 28.7454V19.1683H11.0223C10.7546 19.1683 10.5361 18.949 10.5361 18.6804V15.7508C10.5361 15.4821 10.7546 15.2628 11.0223 15.2628H13.9387V10.8693C13.9387 8.17315 16.1152 5.98785 18.8008 5.98785H22.2034C22.4712 5.98785 22.6896 6.20718 22.6896 6.47582V9.40541C22.6896 9.67406 22.4712 9.89338 22.2034 9.89338H19.7723C18.6986 9.89338 17.8284 10.7671 17.8284 11.8461V15.2637H21.9118C22.3804 15.2637 22.7424 15.6759 22.6852 16.1428L22.6843 16.1419Z" fill="white"/>
</svg>
