<svg width="35" height="35" viewBox="0 0 35 35" fill="none" xmlns="http://www.w3.org/2000/svg">
<path d="M34.9991 17.5C34.9991 27.1652 27.1643 35 17.4991 35C7.83483 34.9991 0 27.1643 0 17.5C0 7.83483 7.83483 0 17.5 0C27.1652 0 35 7.83483 35 17.5H34.9991Z" fill="#00A3E4"/>
<path d="M20.0255 15.8925L27.1046 8.32104H24.4164L18.8602 14.2648L14.605 8.32104H7.25195L14.6948 18.7182L7.25195 26.6798H9.9402L15.861 20.3468L20.3946 26.6798H27.7476L20.0255 15.8934V15.8925ZM11.0403 10.2676H13.6035L23.9583 24.7315H21.3952L11.0403 10.2676Z" fill="white"/>
</svg>
