<svg width="35" height="35" viewBox="0 0 35 35" fill="none" xmlns="http://www.w3.org/2000/svg">
<path d="M17.5 0C7.83125 0 0 7.83125 0 17.5C0 27.1688 7.83125 35 17.5 35C27.1688 35 35 27.1688 35 17.5C35 7.83125 27.1688 0 17.5 0ZM13.4167 25.5063H9.55208V13.8979H13.4167V25.5063ZM11.4771 12.1625C10.2958 12.1625 9.34792 11.2 9.34792 10.0188C9.34792 8.8375 10.2958 7.875 11.4771 7.875C12.6583 7.875 13.6062 8.8375 13.6062 10.0188C13.6062 11.2 12.6583 12.1625 11.4771 12.1625ZM26.9646 25.5063H23.1V19.9646C23.1 16.3188 19.2208 16.625 19.2208 19.9646V25.5063H15.3562V13.8979H19.2208V16.0125C20.9125 12.8917 26.9646 12.6583 26.9646 19.0021V25.5063Z" fill="#00A3E4"/>
</svg>
