<svg width="18" height="17" viewBox="0 0 18 17" fill="none" xmlns="http://www.w3.org/2000/svg">
<g clip-path="url(#clip0_1519_28)">
<path d="M16.9935 5.97045C16.9151 5.88485 16.8081 5.83016 16.6917 5.81827L11.2536 5.21432L8.99562 0.280427C8.88866 0.0426489 8.60583 -0.0667289 8.36577 0.0402711C8.25882 0.0878267 8.17087 0.173427 8.12334 0.280427L5.86301 5.21432L0.424924 5.81827C0.163477 5.8468 -0.0266656 6.07983 0.00185587 6.34138C0.0137398 6.45552 0.0684059 6.56252 0.156347 6.64098L4.19926 10.2932L3.09881 15.6004C3.04652 15.8572 3.21052 16.1069 3.46959 16.1592C3.58367 16.183 3.70014 16.164 3.79996 16.1093L8.55829 13.4319L13.3166 16.1093C13.3855 16.1473 13.464 16.1687 13.5448 16.1711C13.8086 16.1759 14.0249 15.9666 14.0297 15.7051C14.0297 15.6694 14.0273 15.6361 14.0201 15.6004L12.9197 10.2932L16.9626 6.64098C17.1575 6.46503 17.1718 6.16543 16.9959 5.97283L16.9935 5.97045Z" fill="#F0A433"/>
</g>
<defs>
<clipPath id="clip0_1519_28">
<rect width="17.12" height="16.1689" fill="white"/>
</clipPath>
</defs>
</svg>
