<svg width="91" height="91" viewBox="0 0 91 91" fill="none" xmlns="http://www.w3.org/2000/svg">
<path fill-rule="evenodd" clip-rule="evenodd" d="M45.8231 11.2966C64.8863 11.2966 80.3367 26.7559 80.3293 45.8212C80.3293 54.7737 76.8486 63.3736 70.6288 69.807C67.5226 58.0271 57.9542 50.9547 45.8231 50.9547C33.6919 50.9547 24.1236 58.0491 21.0174 69.8291C7.75536 56.1397 8.10784 34.2836 21.7958 21.0202C28.2359 14.7777 36.8569 11.2966 45.8231 11.2966ZM45.8231 22.3789C38.7074 22.3789 32.9356 28.1513 32.9356 35.2678C32.9356 42.3842 38.7074 48.1566 45.8231 48.1566C52.9388 48.1566 58.7106 42.3842 58.7106 35.2678C58.7106 28.1513 52.9388 22.3789 45.8231 22.3789ZM45.8231 24.3912C39.8163 24.3912 34.9476 29.2603 34.9476 35.2678C34.9476 41.2752 39.8163 46.1444 45.8231 46.1444C51.8299 46.1444 56.6985 41.2752 56.6985 35.2678C56.6985 29.2603 51.8299 24.3912 45.8231 24.3912ZM68.9545 71.4301C66.4358 59.9733 57.5136 52.9523 45.8231 52.9523C34.1325 52.9523 25.2104 59.9733 22.6917 71.4301C35.8288 83.2981 55.8173 83.2981 68.9545 71.4301Z" fill="url(#paint0_linear_1519_35)"/>
<circle cx="45.5" cy="45.5" r="44.5" stroke="url(#paint1_linear_1519_35)" stroke-width="2"/>
<defs>
<linearGradient id="paint0_linear_1519_35" x1="45.8126" y1="11.2966" x2="45.8126" y2="80.3311" gradientUnits="userSpaceOnUse">
<stop stop-color="#00A686"/>
<stop offset="1" stop-color="#00A3E4"/>
</linearGradient>
<linearGradient id="paint1_linear_1519_35" x1="45.5" y1="0" x2="45.5" y2="91" gradientUnits="userSpaceOnUse">
<stop stop-color="#00A686"/>
<stop offset="1" stop-color="#00A3E4"/>
</linearGradient>
</defs>
</svg>
