<svg width="215" height="36" viewBox="0 0 215 36" fill="none" xmlns="http://www.w3.org/2000/svg">
<g clip-path="url(#clip0_1_4)">
<mask id="mask0_1_4" style="mask-type:luminance" maskUnits="userSpaceOnUse" x="0" y="0" width="215" height="36">
<path d="M214.989 0H0V35.9888H214.989V0Z" fill="white"/>
</mask>
<g mask="url(#mask0_1_4)">
<path d="M34.7508 8.02999L28.4718 15.2277L44.5106 15.194L50.7555 7.99625L34.7508 8.02999Z" fill="#1D1D1B"/>
<path d="M14.2074 22.2231L9.71429 27.3177L34.0342 27.284L38.4477 22.2006L14.2074 22.2231Z" fill="#F0A433"/>
<path d="M41.8375 22.1556L37.2875 27.1715H43.885L48.4123 22.0544L41.8375 22.1556Z" fill="#00A3E4"/>
<path d="M7.87154 0.731036L0 8.89598L29.6548 8.86225L37.7311 0.697296L7.87154 0.731036Z" fill="#00A686"/>
<path d="M46.0804 0.787263L43.1229 4.09373H54.1339L57.0118 0.764771L46.069 0.787263H46.0804Z" fill="#6B7072"/>
<path d="M63.7231 0.168701H66.874V18.8829H67.0332L76.9409 8.96345H80.5468L66.8853 22.7404V27.88H63.7345V0.168701H63.7231ZM70.8211 17.8257L72.7208 15.7226L81.525 27.8576H78.0329L70.8211 17.8257Z" fill="#6B7072"/>
<path d="M85.165 22.9541C85.165 18.7142 89.0326 16.6561 98.5649 15.8688C98.4511 13.3046 97.234 11.1228 93.6736 11.1228C91.2848 11.1228 88.9302 12.2924 87.2239 13.3833L85.9727 11.2015C87.8723 9.95315 90.9777 8.47986 94.2082 8.47986C99.2587 8.47986 101.716 11.5501 101.716 16.2624V27.8576H99.0995L98.8379 25.2934H98.7241C96.7107 26.9241 94.0603 28.3299 91.4782 28.3299C88.0202 28.3299 85.1878 26.3505 85.1878 22.9653L85.165 22.9541ZM98.5649 22.9203V18.0169C90.6706 18.6354 88.2818 20.2324 88.2818 22.7292C88.2818 24.866 90.1814 25.7207 92.2972 25.7207C94.413 25.7207 96.4263 24.7085 98.5535 22.9203H98.5649Z" fill="#6B7072"/>
<path d="M106.709 8.95219H109.212L109.474 11.4489H109.553C110.509 9.70571 111.635 8.49109 113.762 8.49109C115.582 8.49109 116.72 9.582 117.254 11.7638C118.312 9.73945 119.45 8.49109 121.577 8.49109C124.159 8.49109 125.672 10.5492 125.672 14.328V27.8688H122.555V14.5642C122.555 12.3824 121.952 11.2577 120.576 11.2577C119.279 11.2577 118.596 12.2249 117.618 14.1706V27.8688H114.74V14.5642C114.74 12.3824 114.206 11.2577 112.841 11.2577C111.544 11.2577 110.713 12.2249 109.803 14.1706V27.8688H106.687V8.95219H106.709Z" fill="#6B7072"/>
<path d="M138.844 11.5614H130.301V8.9522H141.984V27.8575H138.833V11.5614H138.844ZM137.593 2.49672C137.593 1.02343 138.651 0 140.095 0C141.54 0 142.598 1.01218 142.598 2.49672C142.598 3.98126 141.54 4.99344 140.095 4.99344C138.651 4.99344 137.593 4.02624 137.593 2.49672Z" fill="#6B7072"/>
<path d="M153.142 2.33926H160.65C166.144 2.33926 169.875 4.23992 169.875 9.85192C169.875 15.4639 166.121 17.747 160.65 17.747H156.316V27.8575H153.131V2.33926H153.142ZM160.275 15.104C164.597 15.104 166.69 13.4733 166.69 9.85192C166.69 6.23055 164.563 4.99343 160.275 4.99343H156.327V15.104H160.275Z" fill="#00A3E4"/>
<path d="M174.698 22.9541C174.698 18.7142 178.566 16.6561 188.087 15.8688C187.973 13.3046 186.756 11.1228 183.195 11.1228C180.807 11.1228 178.452 12.2924 176.746 13.3833L175.494 11.2015C177.394 9.95315 180.499 8.47986 183.73 8.47986C188.781 8.47986 191.238 11.5501 191.238 16.2624V27.8576H188.621L188.36 25.2934H188.246C186.232 26.9241 183.582 28.3299 181 28.3299C177.542 28.3299 174.698 26.3505 174.698 22.9653V22.9541ZM188.087 22.9203V18.0169C180.192 18.6354 177.804 20.2324 177.804 22.7292C177.804 24.866 179.703 25.7207 181.819 25.7207C183.935 25.7207 185.948 24.7085 188.075 22.9203H188.087Z" fill="#00A3E4"/>
<path d="M196.595 35.6064L197.244 33.0422C197.733 33.1996 198.347 33.3121 198.916 33.3121C201.498 33.3121 203.056 31.6364 203.966 29.3083L204.501 27.9138L195.924 8.9747H199.109L203.579 19.4002C204.296 21.0759 205.092 23.0553 205.854 24.8885H206.014C206.662 23.1003 207.379 21.1209 207.993 19.4002L211.974 8.9747H215.011L206.855 29.4321C205.49 33.1659 203.25 36.0113 199.041 36.0113C198.165 36.0113 197.255 35.8538 196.607 35.6176H196.595V35.6064Z" fill="#00A3E4"/>
</g>
</g>
<defs>
<clipPath id="clip0_1_4">
<rect width="215" height="36" fill="white"/>
</clipPath>
</defs>
</svg>
