<svg width="158" height="26" viewBox="0 0 158 26" fill="none" xmlns="http://www.w3.org/2000/svg">
<path d="M25.7039 4.90533L21.125 11.375L32.821 11.3447L37.375 4.875L25.7039 4.90533Z" fill="white"/>
<path d="M9.80339 16.2643L6.5 19.5L24.3801 19.4786L27.625 16.25L9.80339 16.2643Z" fill="white"/>
<path d="M30.9481 16.3143L27.625 19.5H32.4435L35.75 16.25L30.9481 16.3143Z" fill="white"/>
<path d="M5.76319 0.0267489L0 6.5L21.7119 6.47325L27.625 0L5.76319 0.0267489Z" fill="white"/>
<path d="M33.2972 0.0219594L30.875 3.25H39.893L42.25 0L33.2879 0.0219594H33.2972Z" fill="white"/>
<path d="M47.125 0H49.426V14.2662H49.5423L56.7774 6.70444H59.4106L49.4343 17.2069V21.125H47.1333V0H47.125ZM52.3084 13.4603L53.6956 11.8571L60.125 21.1079H57.5748L52.3084 13.4603Z" fill="white"/>
<path d="M61.75 17.1642C61.75 14.0404 64.7878 12.524 72.2751 11.944C72.1857 10.0547 71.2297 8.44724 68.4332 8.44724C66.5569 8.44724 64.7074 9.30899 63.3672 10.1127L62.3844 8.50524C63.8765 7.58548 66.3156 6.5 68.8531 6.5C72.8201 6.5 74.75 8.76211 74.75 12.234V20.777H72.695L72.4895 18.8877H72.4002C70.8187 20.0892 68.7369 21.125 66.7088 21.125C63.9926 21.125 61.7679 19.6666 61.7679 17.1725L61.75 17.1642ZM72.2751 17.1394V13.5266C66.0744 13.9824 64.1981 15.159 64.1981 16.9985C64.1981 18.5729 65.6902 19.2026 67.3521 19.2026C69.0139 19.2026 70.5954 18.4569 72.2662 17.1394H72.2751Z" fill="white"/>
<path d="M78.0175 6.84801H79.9453L80.1469 8.73237H80.2082C80.9443 7.41672 81.8118 6.5 83.4504 6.5C84.8525 6.5 85.7287 7.32335 86.1406 8.97004C86.9555 7.44218 87.8318 6.5 89.4704 6.5C91.4596 6.5 92.625 8.05332 92.625 10.9053V21.125H90.224V11.0836C90.224 9.43688 89.7596 8.58807 88.6993 8.58807C87.7003 8.58807 87.1746 9.31805 86.421 10.7865V21.125H84.204V11.0836C84.204 9.43688 83.7922 8.58807 82.7406 8.58807C81.7417 8.58807 81.102 9.31805 80.401 10.7865V21.125H78V6.84801H78.0175Z" fill="white"/>
<path d="M101.52 8.76726H95.875V6.78866H103.594V21.125H101.512V8.76726H101.52ZM100.693 1.89332C100.693 0.77609 101.392 0 102.346 0C103.301 0 104 0.767561 104 1.89332C104 3.01908 103.301 3.78664 102.346 3.78664C101.392 3.78664 100.693 3.05319 100.693 1.89332Z" fill="white"/>
<path d="M112.134 1.625H117.963C122.228 1.625 125.125 3.0774 125.125 7.36586C125.125 11.6543 122.211 13.3989 117.963 13.3989H114.598V21.125H112.125V1.625H112.134ZM117.671 11.3793C121.027 11.3793 122.652 10.1332 122.652 7.36586C122.652 4.59856 121.001 3.65321 117.671 3.65321H114.607V11.3793H117.671Z" fill="white"/>
<path d="M128.375 17.1642C128.375 14.0404 131.035 12.524 137.583 11.944C137.505 10.0547 136.668 8.44724 134.219 8.44724C132.576 8.44724 130.957 9.30899 129.783 10.1127L128.923 8.50524C130.229 7.58548 132.365 6.5 134.587 6.5C138.06 6.5 139.75 8.76211 139.75 12.234V20.777H137.951L137.771 18.8877H137.692C136.308 20.0892 134.485 21.125 132.709 21.125C130.331 21.125 128.375 19.6666 128.375 17.1725V17.1642ZM137.583 17.1394V13.5266C132.154 13.9824 130.511 15.159 130.511 16.9985C130.511 18.5729 131.817 19.2026 133.272 19.2026C134.727 19.2026 136.112 18.4569 137.575 17.1394H137.583Z" fill="white"/>
<path d="M143.514 25.708L144.011 23.8586C144.386 23.9721 144.856 24.0532 145.292 24.0532C147.271 24.0532 148.465 22.8446 149.162 21.1656L149.572 20.1597L143 6.5H145.44L148.866 14.0193C149.415 15.228 150.025 16.6556 150.609 17.9777H150.731C151.228 16.688 151.777 15.2604 152.247 14.0193L155.298 6.5H157.625L151.376 21.2548C150.33 23.9478 148.613 26 145.388 26C144.717 26 144.02 25.8864 143.523 25.7161H143.514V25.708Z" fill="white"/>
</svg>
