<svg width="76" height="90" viewBox="0 0 76 90" fill="none" xmlns="http://www.w3.org/2000/svg">
<g id="ico-money">
<g id="Group">
<g id="Clip path group">
<mask id="mask0_265_13" style="mask-type:luminance" maskUnits="userSpaceOnUse" x="3" y="2" width="70" height="86">
<g id="SVGID_00000146492608950007973720000013289169178791410817_">
<path id="Vector" d="M72.2812 2.53125H3.79688V87.4688H72.2812V2.53125Z" fill="white"/>
</g>
</mask>
<g mask="url(#mask0_265_13)">
<g id="Group_2">
<path id="Vector_2" d="M11.8125 32.0625C12.7969 32.0625 13.7812 32.4844 14.3437 33.1875C15.0469 33.8906 15.4687 34.875 15.4687 35.8594C15.4687 36.2812 15.6094 36.7031 15.8906 36.9844C16.1719 37.2656 16.5938 37.4062 17.0156 37.4062H58.9219C59.7656 37.4062 60.4687 36.7031 60.4687 35.8594C60.4687 33.8906 62.1562 32.2031 64.125 32.2031C64.9687 32.2031 65.6719 31.5 65.6719 30.6562V14.625C65.6719 13.7812 64.9687 13.0781 64.125 13.0781C62.1562 13.0781 60.4687 11.3906 60.4687 9.42187C60.4687 8.57812 59.7656 7.875 58.9219 7.875H17.0156C16.1719 7.73438 15.4687 8.4375 15.4687 9.42187C15.4687 11.3906 13.7812 13.0781 11.8125 13.0781C11.3906 13.0781 10.9687 13.2188 10.6875 13.5C10.4062 13.7812 10.2656 14.2031 10.2656 14.625V30.5156C10.2656 31.3594 10.9687 32.0625 11.8125 32.0625ZM57.5156 10.9688C58.0781 13.5 60.0469 15.4687 62.5781 16.0312V29.1094C60.0469 29.6719 58.0781 31.6406 57.5156 34.1719H41.4844C46.4062 32.625 50.0625 27.9844 50.0625 22.6406C50.0625 17.2969 46.4062 12.5156 41.4844 10.9688H57.5156ZM46.8281 22.5C46.8281 27.4219 42.8906 31.5 37.9687 31.5C33.0469 31.5 29.1094 27.4219 29.1094 22.5C29.1094 17.5781 33.0469 13.5 37.9687 13.5C42.8906 13.6406 46.8281 17.5781 46.8281 22.5ZM13.3594 16.0312C15.8906 15.4687 17.8594 13.5 18.4219 10.9688H34.4531C29.5312 12.5156 25.875 17.1562 25.875 22.6406C25.875 28.125 29.5312 32.7656 34.4531 34.1719H18.4219C18.1406 32.9062 17.5781 31.7813 16.5937 30.9375C15.75 30.0938 14.625 29.3906 13.3594 29.1094V16.0312ZM34.3125 25.5938C33.4687 25.5938 32.9062 26.5781 32.9062 27.2812C32.9062 28.5469 34.875 29.8125 37.4062 29.9531V30.5156C37.4062 30.7969 37.6875 31.0781 38.25 31.0781C38.6719 31.0781 39.0937 30.7969 39.0937 30.5156V29.9531C41.4844 29.5312 43.1719 27.9844 43.1719 25.4531C43.1719 22.6406 41.0625 21.6562 39.0937 20.9531V18C40.3594 18.1406 40.7812 18.7031 41.4844 18.7031C42.3281 18.7031 42.75 17.5781 42.75 17.0156C42.75 15.6094 40.3594 15.3281 39.0937 15.1875V14.625C39.0937 14.3437 38.6719 14.0625 38.25 14.0625C37.8281 14.0625 37.4062 14.3437 37.4062 14.625V15.1875C35.2969 15.4688 33.3281 16.7344 33.3281 19.4062C33.3281 22.0781 35.5781 22.9219 37.4062 23.625V27C35.8594 26.7188 35.1562 25.5938 34.3125 25.5938ZM38.8125 24.1875C39.5156 24.6094 40.0781 25.0313 40.0781 25.5938C40.0781 26.2969 39.5156 26.7188 38.8125 26.8594V24.1875ZM36.2812 19.125C36.2812 18.5625 36.7031 18.1406 37.5469 18V20.3906C36.8437 20.1094 36.2812 19.6875 36.2812 19.125ZM23.7656 68.0625V68.625C23.7656 68.9062 24.0469 69.1875 24.6094 69.1875C25.0312 69.1875 25.4531 68.9062 25.4531 68.625V68.0625C27.8437 67.6406 29.5312 66.0938 29.5312 63.5625C29.5312 60.75 27.4219 59.7656 25.4531 59.0625V56.1094C26.7187 56.25 27.1406 56.8125 27.8437 56.8125C28.6875 56.8125 29.1094 55.6875 29.1094 55.125C29.1094 53.7188 26.7187 53.4375 25.4531 53.2969V52.7344C25.4531 52.4531 25.0312 52.1719 24.6094 52.1719C24.1875 52.1719 23.7656 52.4531 23.7656 52.7344V53.2969C21.6562 53.5781 19.6875 54.8438 19.6875 57.5156C19.6875 60.1875 21.9375 61.0313 23.7656 61.7344V65.1094C22.2187 64.8281 21.5156 63.5625 20.6719 63.5625C19.8281 63.5625 19.2656 64.5469 19.2656 65.25C19.4062 66.6562 21.375 67.9219 23.7656 68.0625ZM25.1719 62.2969C25.875 62.7188 26.4375 63.1406 26.4375 63.7031C26.4375 64.4062 25.875 64.8281 25.1719 64.9688V62.2969ZM22.6406 57.2344C22.6406 56.8125 23.0625 56.25 23.9062 56.1094V58.5C23.2031 58.2188 22.6406 57.7969 22.6406 57.2344ZM52.5937 53.7188V50.7656C53.8594 50.9062 54.2812 51.4688 54.9844 51.4688C55.8281 51.4688 56.25 50.3438 56.25 49.7813C56.25 48.375 53.8594 48.0938 52.5937 47.9531V47.3906C52.5937 47.1094 52.1719 46.8281 51.75 46.8281C51.3281 46.8281 50.9062 47.1094 50.9062 47.3906V47.9531C48.7969 48.2344 46.8281 49.5 46.8281 52.1719C46.8281 54.8438 49.0781 55.6875 50.9062 56.3906V59.7656C49.3594 59.4844 48.6562 58.2188 47.8125 58.2188C46.9687 58.2188 46.4062 59.2031 46.4062 59.9062C46.4062 61.1719 48.375 62.4375 50.9062 62.5781V63.2812C50.9062 63.5625 51.1875 63.8438 51.75 63.8438C52.1719 63.8438 52.5937 63.5625 52.5937 63.2812V62.7188C54.9844 62.2969 56.6719 60.75 56.6719 58.2188C56.5312 55.4063 54.4219 54.4219 52.5937 53.7188ZM51.1875 53.2969C50.3437 53.0156 49.9219 52.5938 49.9219 52.0312C49.9219 51.4688 50.3437 51.0469 51.1875 50.9063V53.2969ZM52.3125 59.7656V56.9531C53.0156 57.375 53.5781 57.7969 53.5781 58.3594C53.5781 59.2031 53.0156 59.625 52.3125 59.7656ZM71.0156 51.6094V46.4062V9.42187C71.0156 5.625 67.9219 2.53125 64.2656 2.53125H11.8125C8.01562 2.53125 4.92188 5.625 4.92188 9.42187V51.6094C4.92188 55.4063 8.01563 58.5 11.6719 58.5H11.9531L12.375 59.0625C12.2344 59.625 12.2344 60.0469 12.2344 60.6094C12.2344 61.5938 12.375 62.4375 12.5156 63.2812C12.375 64.125 12.2344 64.9688 12.2344 65.9531C12.2344 72.7031 17.5781 78.0469 24.3281 78.0469C27.8437 78.0469 30.9375 76.5 33.1875 74.1094C33.3281 74.25 33.6094 74.3906 33.75 74.3906C34.1719 74.3906 34.4531 74.25 34.7344 73.8281L36.4219 70.7344L39.5156 69.0469C39.6562 69.0469 39.7969 68.9062 39.7969 68.7656C40.0781 70.3125 40.7812 71.5781 41.625 72.8438L38.5312 74.5312C38.25 74.6719 37.9687 75.0938 37.9687 75.5156C37.9687 75.9375 38.1094 76.2188 38.5312 76.5L41.625 78.1875L43.3125 81.2812C43.4531 81.5625 43.875 81.8438 44.2969 81.8438C44.7187 81.8438 45 81.7031 45.2812 81.2812L46.9687 78.1875L47.9531 77.625C49.0781 78.0469 50.3437 78.1875 51.6094 78.1875C58.2187 78.1875 63.7031 72.7031 63.7031 66.0938C63.7031 65.25 63.5625 64.4062 63.4219 63.4219C63.5625 62.5781 63.7031 61.7344 63.7031 60.75C63.7031 60.0469 63.5625 59.2031 63.4219 58.5H64.125C67.9219 58.3594 71.0156 55.4063 71.0156 51.6094ZM60.75 54.2812L60.3281 54.1406L59.0625 53.2969L60.0469 52.7344L60.75 52.3125C60.8906 52.1719 61.0312 52.0313 61.1719 51.8906L62.1562 50.2031L63.1406 51.8906C63.2812 52.0313 63.4219 52.1719 63.5625 52.3125L64.9687 53.0156L65.25 53.1562L63.7031 54H63.5625C63.4219 54.1406 63.2812 54.2813 63.1406 54.4219L62.1562 56.1094L61.1719 54.4219C61.0312 54.4219 60.8906 54.2812 60.75 54.2812ZM64.4062 49.9219L63.2812 47.8125H64.2656C65.5312 47.8125 66.7969 47.3906 67.9219 46.6875C67.5 48.5156 66.0937 49.9219 64.4062 49.9219ZM64.125 44.7188H57.2344C55.5469 43.7344 53.5781 43.3125 51.4687 43.3125C49.3594 43.3125 47.3906 43.875 45.7031 44.7188H11.8125C9.98437 44.7188 8.4375 43.3125 8.15625 41.4844C9.14062 42.1875 10.4062 42.6094 11.8125 42.6094H64.125C65.3906 42.6094 66.6562 42.1875 67.7812 41.4844C67.5 43.3125 65.9531 44.7188 64.125 44.7188ZM8.15625 9.42187C8.15625 7.3125 9.70312 5.625 11.8125 5.625H64.125C66.0937 5.625 67.7812 7.3125 67.7812 9.28125V35.7188C67.7812 37.6875 66.0937 39.375 64.125 39.375H11.8125C9.84375 39.375 8.15625 37.6875 8.15625 35.7188V9.42187ZM8.57812 53.1562C8.4375 52.875 8.29688 52.4531 8.15625 52.0312C8.57812 52.3125 9 52.4531 9.42187 52.5938L8.57812 53.1562ZM10.8281 54.2812L12.5156 53.4375C12.6562 53.4375 12.6562 53.2969 12.7969 53.1562L12.9375 53.0156L13.9219 51.3281L14.9062 53.0156C15.0469 53.1563 15.1875 53.2969 15.3281 53.4375L17.0156 54.4219L15.3281 55.4063C15.1875 55.5469 15.0469 55.6875 14.9062 55.8281L13.9219 57.5156L12.9375 55.8281C12.7969 55.6875 12.6562 55.5469 12.5156 55.4063L10.8281 54.2812ZM15.4687 60.6094C15.4687 59.9062 15.6094 59.0625 15.75 58.3594L16.5937 56.8125L19.6875 55.125C19.9687 54.9844 20.25 54.5625 20.25 54.1406C20.25 53.7188 20.1094 53.4375 19.6875 53.1562L19.4062 53.0156C20.8125 52.0313 22.5 51.4688 24.3281 51.4688C29.25 51.4688 33.1875 55.5469 33.1875 60.4688C33.1875 60.8906 33.1875 61.3125 33.0469 61.7344C32.9062 61.875 32.9062 61.875 32.7656 62.0156L31.0781 65.1094L28.125 67.0781C27.8437 67.2188 27.5625 67.6406 27.5625 68.0625C27.5625 68.3438 27.7031 68.625 27.9844 68.9062C26.8594 69.3281 25.7344 69.6094 24.4687 69.6094C19.4062 69.6094 15.4687 65.6719 15.4687 60.6094ZM33.75 53.1562H39.6562C39.5156 53.8594 39.5156 54.5625 39.5156 55.2656H35.1562C34.7344 54.5625 34.3125 53.8594 33.75 53.1562ZM24.3281 74.9531C20.6719 74.9531 17.5781 72.7031 16.1719 69.6094C18.2812 71.5781 21.0937 72.8438 24.3281 72.8438C26.8594 72.8438 29.1094 72 31.0781 70.7344L31.3594 71.2969C29.8125 73.4062 27.2812 74.9531 24.3281 74.9531ZM36.1406 68.4844L35.1562 69.0469C35.0156 69.1875 34.875 69.3281 34.7344 69.4688L33.75 71.1562L32.7656 69.4688C32.625 69.3281 32.4844 69.1875 32.3437 69.0469L30.6562 68.0625L32.3437 67.0781C32.4844 66.9375 32.625 66.7969 32.7656 66.6562L33.75 64.9688L34.7344 66.6562C34.875 66.7969 35.0156 66.9375 35.1562 67.0781L36.2812 67.6406L36.8437 67.9219L36.1406 68.4844ZM39.5156 67.0781L36.4219 65.3906L36.2812 65.25C36.2812 64.5469 36.1406 63.9844 36 63.2812C36.1406 62.4375 36.2812 61.5938 36.2812 60.6094C36.2812 59.9062 36.1406 59.0625 36 58.3594H39.5156C39.375 59.0625 39.2344 59.9062 39.2344 60.6094C39.2344 61.5938 39.375 62.4375 39.5156 63.2812C39.375 64.125 39.2344 64.9688 39.2344 65.9531C39.5156 66.375 39.5156 66.7969 39.5156 67.0781ZM40.7812 49.9219H30.0937C28.4062 48.9375 26.4375 48.5156 24.3281 48.5156C22.2187 48.5156 20.25 49.0781 18.5625 49.9219H15.6094L14.7656 48.5156C14.625 48.2344 14.2031 47.9531 13.7812 47.9531C13.3594 47.9531 13.0781 48.0938 12.7969 48.5156L11.9531 49.9219H11.8125C9.98437 49.9219 8.4375 48.5156 8.15625 46.6875C9.28125 47.5313 10.4062 47.8125 11.8125 47.8125H42.1875C41.625 48.5156 41.2031 49.2188 40.7812 49.9219ZM45.7031 76.3594C45.5625 76.3594 45.5625 76.3594 45.7031 76.3594C45.4219 76.5 45.4219 76.6406 45.2812 76.7812L44.2969 78.4688L43.3125 76.7812C43.1719 76.6406 43.0312 76.5 42.8906 76.3594L41.2031 75.375L42.8906 74.3906C42.8906 74.3906 42.8906 74.3906 43.0312 74.3906C43.1719 74.25 43.3125 74.1094 43.3125 73.9688L44.2969 72.2812L45.2812 73.9688C45.4219 74.1094 45.5625 74.25 45.7031 74.3906L47.3906 75.375L45.7031 76.3594ZM51.6094 74.9531C51.1875 74.9531 50.7656 74.9531 50.3437 74.8125C50.2031 74.6719 50.2031 74.5312 50.0625 74.5312L46.9687 72.8438L46.2656 71.5781C47.8125 72.4219 49.6406 72.8438 51.6094 72.8438C54.7031 72.8438 57.5156 71.5781 59.7656 69.6094C58.3594 72.7031 55.125 74.9531 51.6094 74.9531ZM51.6094 69.6094C47.9531 69.6094 44.8594 67.3594 43.4531 64.2656C45.5625 66.2344 48.375 67.5 51.6094 67.5C54.7031 67.5 57.5156 66.2344 59.7656 64.2656C58.3594 67.5 55.125 69.6094 51.6094 69.6094ZM51.6094 64.4062C46.6875 64.4062 42.75 60.3281 42.75 55.4063C42.75 50.4844 46.6875 46.4062 51.6094 46.4062C54.8437 46.4062 57.6562 48.0938 59.2031 50.7656L56.3906 52.3125C56.1094 52.4531 55.8281 52.875 55.8281 53.2969C55.8281 53.7188 55.9687 54 56.3906 54.2812L59.4844 55.9688L60.3281 57.375C59.3437 61.3125 55.8281 64.4062 51.6094 64.4062ZM24.6094 81.1406V86.3438C24.6094 86.9062 24.1875 87.3281 23.625 87.3281C23.0625 87.3281 22.6406 86.9062 22.6406 86.3438V81.1406C22.6406 80.5781 23.0625 80.1562 23.625 80.1562C24.1875 80.1562 24.6094 80.5781 24.6094 81.1406ZM15.75 79.3125L14.7656 81.1406C14.625 81.4219 14.2031 81.7031 13.9219 81.7031C13.7812 81.7031 13.5 81.7031 13.3594 81.5625C12.7969 81.2812 12.6562 80.5781 12.9375 80.1562L13.9219 78.3281C14.2031 77.7656 14.9062 77.625 15.3281 77.9062C15.75 78.1875 16.0312 78.75 15.75 79.3125ZM10.2656 70.0312C10.5469 70.5938 10.4062 71.1562 9.84375 71.4375L5.34375 74.1094C5.20312 74.25 5.0625 74.25 4.78125 74.25C4.35938 74.25 4.07812 74.1094 3.9375 73.6875C3.65625 73.125 3.79687 72.5625 4.35937 72.2812L8.85938 69.6094C9.28125 69.3281 9.98438 69.4688 10.2656 70.0312ZM6.60937 61.7344C6.04687 61.7344 5.625 61.3125 5.625 60.75C5.625 60.1875 6.04687 59.7656 6.60937 59.7656H8.71875C9.28125 59.7656 9.70312 60.1875 9.70312 60.75C9.70312 61.3125 9.28125 61.7344 8.71875 61.7344H6.60937ZM53.2969 81.1406V86.3438C53.2969 86.9062 52.875 87.3281 52.3125 87.3281C51.75 87.3281 51.3281 86.9062 51.3281 86.3438V81.1406C51.3281 80.5781 51.75 80.1562 52.3125 80.1562C52.875 80.1562 53.2969 80.5781 53.2969 81.1406ZM63.1406 80.0156C63.4219 80.5781 63.2812 81.1406 62.7187 81.4219C62.5781 81.5625 62.4375 81.5625 62.1562 81.5625C61.7344 81.5625 61.4531 81.4219 61.3125 81L60.3281 79.1719C60.0469 78.6094 60.1875 78.0469 60.75 77.7656C61.3125 77.4844 61.875 77.625 62.1562 78.1875L63.1406 80.0156ZM72 73.6875C71.8594 73.9688 71.4375 74.25 71.1562 74.25C71.0156 74.25 70.7344 74.25 70.5937 74.1094L66.0937 71.4375C65.5312 71.1562 65.3906 70.4531 65.6719 70.0312C65.9531 69.4688 66.6562 69.3281 67.0781 69.6094L71.5781 72.2812C72.1406 72.5625 72.2812 73.2656 72 73.6875ZM69.3281 59.625C69.8906 59.625 70.3125 60.0469 70.3125 60.6094C70.3125 61.1719 69.8906 61.5938 69.3281 61.5938H67.2187C66.6562 61.5938 66.2344 61.1719 66.2344 60.6094C66.2344 60.0469 66.6562 59.625 67.2187 59.625H69.3281Z" fill="#1B75B4"/>
</g>
</g>
</g>
</g>
</g>
</svg>
