<svg width="107" height="90" viewBox="0 0 107 90" fill="none" xmlns="http://www.w3.org/2000/svg">
<g id="ico-usdt">
<g id="Group">
<g id="Clip path group">
<mask id="mask0_265_20" style="mask-type:luminance" maskUnits="userSpaceOnUse" x="3" y="1" width="101" height="88">
<g id="SVGID_00000009590899345937776730000003100312985511832455_">
<path id="Vector" d="M103.641 1.40625H3.375V88.4531H103.641V1.40625Z" fill="white"/>
</g>
</mask>
<g mask="url(#mask0_265_20)">
<g id="Group_2">
<path id="Vector_2" d="M85.0781 1.40625H21.7969L3.375 40.6406L53.4375 88.5938L103.5 40.6406L85.0781 1.40625Z" fill="#53AE94"/>
<path id="Vector_3" d="M60.4688 32.625V25.0312H77.9063V13.5H30.2344V25.0312H47.8125V32.625C33.6094 33.3281 22.9219 36 22.9219 39.375C22.9219 42.75 33.6094 45.5625 47.8125 46.125V70.4531H60.4688V46.125C74.5312 45.5625 85.2188 42.75 85.2188 39.375C85.2188 36 74.5312 33.3281 60.4688 32.625ZM60.4688 44.1562C60.0469 44.1562 58.2188 44.2969 54.1406 44.2969C50.9063 44.2969 48.5156 44.1562 47.8125 44.1562C35.1563 43.5937 25.875 41.3438 25.875 38.8125C25.875 36.2812 35.2969 34.0312 47.8125 33.4687V41.9062C48.6563 41.9062 51.0469 42.0469 54.2812 42.0469C58.2188 42.0469 60.1875 41.9062 60.4688 41.9062V33.4687C72.9844 34.0312 82.4062 36.1406 82.4062 38.8125C82.2656 41.3438 72.9844 43.5937 60.4688 44.1562Z" fill="white"/>
</g>
</g>
</g>
</g>
</g>
</svg>
