<?xml version="1.0" encoding="utf-8"?>
<!-- Generator: Adobe Illustrator 28.3.0, SVG Export Plug-In . SVG Version: 6.00 Build 0)  -->
<svg version="1.1" id="Capa_1" xmlns="http://www.w3.org/2000/svg" xmlns:xlink="http://www.w3.org/1999/xlink" x="0px" y="0px"
	 viewBox="0 0 79 134" style="enable-background:new 0 0 79 134;" xml:space="preserve">
<style type="text/css">
	.st0{clip-path:url(#SVGID_00000016766686869828596360000009309151583697324726_);}
	.st1{fill-rule:evenodd;clip-rule:evenodd;fill:#1BA2DD;}
	.st2{fill-rule:evenodd;clip-rule:evenodd;fill:#00A585;}
</style>
<g>
	<g>
		<defs>
			<rect id="SVGID_1_" y="0" width="79" height="133.9"/>
		</defs>
		<clipPath id="SVGID_00000157270075047339552980000004571818564895465377_">
			<use xlink:href="#SVGID_1_"  style="overflow:visible;"/>
		</clipPath>
		<g style="clip-path:url(#SVGID_00000157270075047339552980000004571818564895465377_);">
			<path class="st1" d="M7.9,3C5.2,3,2.9,5.2,2.9,7.9v118.2c0,2.7,2.2,4.9,4.9,4.9h63.2c2.7,0,4.9-2.2,4.9-4.9V7.9
				c0-2.7-2.2-4.9-4.9-4.9H7.9z M71.1,134H7.9c-4.3,0-7.9-3.5-7.9-7.8V7.9C0,3.6,3.5,0,7.9,0h63.2C75.5,0,79,3.6,79,7.9v118.2
				C79,130.4,75.5,134,71.1,134L71.1,134z"/>
			<path class="st1" d="M17.6,9.4c-3.8,0-6.9,2.7-6.9,6v103.3c0,3.3,3.1,6,6.9,6h43.7c3.8,0,6.9-2.7,6.9-6V15.4c0-3.3-3.1-6-6.9-6
				h-8.1c-0.3,1.5-1.1,3.7-3.9,3.7H29.6c-2.8,0-3.6-2.2-3.9-3.7L17.6,9.4L17.6,9.4z M61.4,127.5H17.6c-5.4,0-9.8-4-9.8-8.9V15.4
				c0-4.9,4.4-8.9,9.8-8.9h9.3c0.7,0,1.3,0.5,1.4,1.2c0,0.1,0,0.3,0.1,0.4c0.3,2,0.5,2,1.1,2h19.9c0.6,0,0.8-0.1,1.1-2
				c0-0.1,0-0.3,0.1-0.4C50.7,7,51.3,6.5,52,6.5h9.3c5.4,0,9.8,4,9.8,8.9v103.3C71.2,123.5,66.8,127.5,61.4,127.5z"/>
			<path class="st2" d="M44.8,60.4c-0.3,0-0.6-0.1-0.8-0.3c-0.7-0.5-0.8-1.4-0.4-2c0.4-0.5,0.5-1,0.5-1.6c0-2.3-1.4-2.9-5-3.7
				c-3.1-0.7-7.3-1.7-7.3-6.5c0-3.6,3.6-6.6,8-6.6c2.8,0,5.4,1.2,6.9,3.1c0.5,0.6,0.3,1.6-0.3,2c-0.6,0.5-1.6,0.3-2.1-0.3
				c-0.9-1.2-2.6-2-4.5-2c-2.8,0-5.1,1.7-5.1,3.6c0,2.3,1.4,2.9,5,3.7c3.1,0.7,7.3,1.7,7.3,6.5c0,1.2-0.4,2.3-1.1,3.3
				C45.7,60.2,45.3,60.4,44.8,60.4L44.8,60.4z"/>
			<path class="st2" d="M39.5,60.4c-0.8,0-1.5-0.7-1.5-1.5V38.6c0-0.8,0.7-1.5,1.5-1.5c0.8,0,1.5,0.7,1.5,1.5v20.4
				C41,59.7,40.3,60.4,39.5,60.4z"/>
			<path class="st2" d="M25.7,57.5h27.7c0.9-1.9,1.3-3.9,1.3-6.1c0-8.3-6.8-15.1-15.1-15.1c-8.3,0-15.1,6.8-15.1,15.1
				C24.4,53.5,24.8,55.6,25.7,57.5z M54.3,60.4H24.7c-0.6,0-1.1-0.3-1.3-0.8c-1.3-2.5-2-5.3-2-8.2c0-9.9,8.1-18,18-18s18,8.1,18,18
				c0,2.8-0.7,5.7-2,8.2C55.3,60.1,54.8,60.4,54.3,60.4L54.3,60.4z"/>
			<path class="st2" d="M17.4,66.5h44.1v-6.1H17.4V66.5z M63,69.4H16c-0.8,0-1.5-0.7-1.5-1.5v-9c0-0.8,0.7-1.5,1.5-1.5H63
				c0.8,0,1.5,0.7,1.5,1.5v9C64.5,68.7,63.8,69.4,63,69.4L63,69.4z"/>
			<path class="st1" d="M58.1,89.6H20.9c-0.8,0-1.5-0.6-1.5-1.5s0.7-1.5,1.5-1.5h37.2c0.8,0,1.5,0.6,1.5,1.5
				C59.6,88.9,58.9,89.6,58.1,89.6z"/>
			<path class="st1" d="M51.7,100.6H27.3c-0.8,0-1.5-0.7-1.5-1.5c0-0.8,0.7-1.5,1.5-1.5h24.4c0.8,0,1.5,0.7,1.5,1.5
				C53.2,99.9,52.5,100.6,51.7,100.6L51.7,100.6z"/>
		</g>
	</g>
</g>
</svg>
