<?xml version="1.0" encoding="utf-8"?>
<!-- Generator: Adobe Illustrator 28.3.0, SVG Export Plug-In . SVG Version: 6.00 Build 0)  -->
<svg version="1.1" id="Capa_1" xmlns="http://www.w3.org/2000/svg" xmlns:xlink="http://www.w3.org/1999/xlink" x="0px" y="0px"
	 viewBox="0 0 102 134" style="enable-background:new 0 0 102 134;" xml:space="preserve">
<style type="text/css">
	.st0{clip-path:url(#SVGID_00000115480007296270254460000013245944970962819989_);}
	.st1{fill:#1BA2DD;stroke:#FFFFFF;stroke-miterlimit:10;}
	.st2{fill:#00A585;stroke:#FFFFFF;stroke-miterlimit:10;}
	.st3{fill:#1BA2DD;stroke:#FFFFFF;stroke-width:2;stroke-miterlimit:10;}
	.st4{fill:#00A585;}
</style>
<g>
	<g>
		<defs>
			<rect id="SVGID_1_" x="0.3" width="101.4" height="134"/>
		</defs>
		<clipPath id="SVGID_00000155110765992070342260000018187308589339573909_">
			<use xlink:href="#SVGID_1_"  style="overflow:visible;"/>
		</clipPath>
		<g style="clip-path:url(#SVGID_00000155110765992070342260000018187308589339573909_);">
			<path class="st1" d="M79.6,101.4h-4.8c-1.3,0-2.4-1.1-2.4-2.4c0-1.3-1.1-2.4-2.4-2.4c-1.3,0-2.4,1.1-2.4,2.4c0,4,3.2,7.2,7.2,7.2
				v2.4c0,1.3,1.1,2.4,2.4,2.4s2.4-1.1,2.4-2.4v-2.4c4,0,7.2-3.2,7.2-7.2c0-4-3.2-7.2-7.2-7.2h-4.8c-1.3,0-2.4-1.1-2.4-2.4
				c0-1.3,1.1-2.4,2.4-2.4h4.8c1.3,0,2.4,1.1,2.4,2.4c0,1.3,1.1,2.4,2.4,2.4s2.4-1.1,2.4-2.4c0-4-3.2-7.2-7.2-7.2v-2.4
				c0-1.3-1.1-2.4-2.4-2.4s-2.4,1.1-2.4,2.4v2.4c-4,0-7.2,3.2-7.2,7.2c0,4,3.2,7.2,7.2,7.2h4.8c1.3,0,2.4,1.1,2.4,2.4
				C82,100.3,80.9,101.4,79.6,101.4z"/>
			<path class="st1" d="M77.2,118.2c13.3,0,24.1-10.8,24.1-24.1c0-13.3-10.8-24.1-24.1-24.1S53.1,80.8,53.1,94.1
				C53.1,107.5,63.9,118.2,77.2,118.2z M77.2,74.9c10.6,0,19.3,8.6,19.3,19.3c0,10.6-8.6,19.3-19.3,19.3s-19.3-8.6-19.3-19.3
				C57.9,83.5,66.5,74.9,77.2,74.9z"/>
			<path class="st2" d="M39.7,68.3h-4.8c-1.3,0-2.4-1.1-2.4-2.4c0-1.3-1.1-2.4-2.4-2.4c-1.3,0-2.4,1.1-2.4,2.4c0,4,3.2,7.2,7.2,7.2
				v2.4c0,1.3,1.1,2.4,2.4,2.4c1.3,0,2.4-1.1,2.4-2.4v-2.4c4,0,7.2-3.2,7.2-7.2c0-4-3.2-7.2-7.2-7.2h-4.8c-1.3,0-2.4-1.1-2.4-2.4
				c0-1.3,1.1-2.4,2.4-2.4h4.8c1.3,0,2.4,1.1,2.4,2.4c0,1.3,1.1,2.4,2.4,2.4c1.3,0,2.4-1.1,2.4-2.4c0-4-3.2-7.2-7.2-7.2v-2.4
				c0-1.3-1.1-2.4-2.4-2.4c-1.3,0-2.4,1.1-2.4,2.4V49c-4,0-7.2,3.2-7.2,7.2c0,4,3.2,7.2,7.2,7.2h4.8c1.3,0,2.4,1.1,2.4,2.4
				C42.1,67.2,41,68.3,39.7,68.3z"/>
			<path class="st2" d="M37.3,85.1c13.3,0,24.1-10.8,24.1-24.1c0-13.3-10.8-24.1-24.1-24.1C24,36.9,13.2,47.7,13.2,61
				C13.2,74.4,24,85.1,37.3,85.1z M37.3,41.8c10.6,0,19.3,8.6,19.3,19.3s-8.6,19.3-19.3,19.3S18,71.7,18,61S26.7,41.8,37.3,41.8z"/>
			<path class="st3" d="M67.3,127.6H9.4c-1.5,0-2.8-1.2-2.8-2.8v-13.8H48c1.5,0,2.8-1.2,2.8-2.8s-1.2-2.8-2.8-2.8H6.7V28.4h59.2
				c1.5,0,2.8-1.2,2.8-2.8c0-1.5-1.2-2.8-2.8-2.8H6.7V9.1c0-1.5,1.2-2.8,2.8-2.8h62c1.5,0,2.8,1.2,2.8,2.8v16.5
				c0,1.5,1.2,2.8,2.8,2.8c1.5,0,2.8-1.2,2.8-2.8V9.1c0-4.6-3.7-8.3-8.3-8.3h-62c-4.6,0-8.3,3.7-8.3,8.3v115.7
				c0,4.6,3.7,8.3,8.3,8.3h57.9c1.5,0,2.8-1.2,2.8-2.8C70,128.8,68.8,127.6,67.3,127.6L67.3,127.6z"/>
			<path class="st3" d="M34.9,11.9c-1.5,0-2.8,1.2-2.8,2.8c0,1.5,1.2,2.8,2.8,2.8h11c1.5,0,2.8-1.2,2.8-2.8c0-1.5-1.2-2.8-2.8-2.8
				H34.9z"/>
			<path class="st3" d="M32.2,119.4c0,1.5,1.2,2.8,2.8,2.8h11c1.5,0,2.8-1.2,2.8-2.8c0-1.5-1.2-2.8-2.8-2.8h-11
				C33.4,116.6,32.2,117.8,32.2,119.4z"/>
			<path class="st4" d="M76.5,50.9v9.5l-4.2-4.2c-0.6-0.6-1.5-0.6-2.1,0c-0.3,0.3-0.4,0.7-0.4,1c0,0.4,0.1,0.8,0.4,1L77,65
				c0.1,0.1,0.1,0.1,0.2,0.2c0,0,0,0,0.1,0c0.1,0,0.1,0.1,0.2,0.1c0,0,0.1,0,0.1,0c0.1,0,0.1,0,0.2,0.1c0.1,0,0.2,0,0.3,0
				c0.1,0,0.2,0,0.3,0c0.1,0,0.1,0,0.2-0.1c0,0,0.1,0,0.1,0c0.1,0,0.1-0.1,0.2-0.1c0,0,0,0,0.1,0c0.1-0.1,0.2-0.1,0.2-0.2l6.7-6.7
				c0.6-0.6,0.6-1.5,0-2.1c-0.6-0.6-1.5-0.6-2.1,0l-4.2,4.2v-9.5c0-5.4-4.4-9.9-9.9-9.9c-0.8,0-1.5,0.7-1.5,1.5
				c0,0.8,0.7,1.5,1.5,1.5C73.4,44,76.5,47.1,76.5,50.9L76.5,50.9z"/>
		</g>
	</g>
</g>
</svg>
