<?xml version="1.0" encoding="utf-8"?>
<!-- Generator: Adobe Illustrator 28.3.0, SVG Export Plug-In . SVG Version: 6.00 Build 0)  -->
<svg version="1.1" id="Capa_1" xmlns="http://www.w3.org/2000/svg" xmlns:xlink="http://www.w3.org/1999/xlink" x="0px" y="0px"
	 viewBox="0 0 34 32" style="enable-background:new 0 0 34 32;" xml:space="preserve">
<style type="text/css">
	.st0{clip-path:url(#SVGID_00000135665261089024680370000003708036050496860578_);}
	.st1{fill:#F0A433;}
</style>
<g>
	<defs>
		<rect id="SVGID_1_" y="0" width="33" height="31.6"/>
	</defs>
	<clipPath id="SVGID_00000057116187208320725600000010553521225682100404_">
		<use xlink:href="#SVGID_1_"  style="overflow:visible;"/>
	</clipPath>
	<g id="Modo_de_aislamiento" style="clip-path:url(#SVGID_00000057116187208320725600000010553521225682100404_);">
		<path id="Vector" class="st1" d="M31.8,10.9l-9.6-1.4l-4.3-8.7c-0.4-0.7-1.3-1-2-0.7c-0.3,0.2-0.5,0.4-0.7,0.7l-4.3,8.7l-9.6,1.4
			C0.5,11-0.1,11.8,0,12.6c0,0.4,0.2,0.7,0.5,0.9l6.9,6.8l-1.6,9.5c-0.1,0.6,0.1,1.1,0.6,1.5c0.3,0.2,0.6,0.3,0.9,0.3
			c0.2,0,0.5-0.1,0.7-0.2l8.6-4.5l8.6,4.5c0.7,0.4,1.6,0.1,2-0.6c0.2-0.3,0.2-0.6,0.1-1l-1.6-9.5l6.9-6.7c0.6-0.6,0.6-1.5,0-2.1
			C32.4,11.2,32.1,11,31.8,10.9L31.8,10.9z"/>
	</g>
</g>
</svg>
