<svg width="70" height="70" viewBox="0 0 70 70" fill="none" xmlns="http://www.w3.org/2000/svg">
<g id="Capa_1" clip-path="url(#clip0_102_265)">
<path id="Vector" d="M19.5913 58.955L20.647 59.5743C25.0724 62.1878 30.1434 63.5719 35.3181 63.5719H35.3275C51.2146 63.5719 64.1419 50.7018 64.1466 34.8897C64.1466 27.2277 61.154 20.0161 55.7106 14.5968C50.3191 9.1963 42.9812 6.16527 35.337 6.18404C19.4405 6.18404 6.50844 19.0495 6.50373 34.8662C6.4943 40.2667 8.02127 45.5593 10.9102 50.1293L11.5983 51.2132L8.68578 61.7984L19.596 58.9503L19.5913 58.955ZM0.35817 70L5.27839 52.1187C2.24331 46.8872 0.650366 40.9471 0.650366 34.8662C0.655079 15.8355 16.2075 0.356567 35.3228 0.356567C44.5977 0.361259 53.3024 3.95533 59.8532 10.4772C66.3994 16.9991 70.0047 25.6699 70 34.8944C69.9906 53.9205 54.4334 69.4041 35.3228 69.4041H35.3087C29.5072 69.4041 23.8046 67.9543 18.7383 65.2048L0.35817 70Z" fill="#B3B3B3"/>
<path id="Vector_2" d="M0 69.6481L4.92022 51.7669C1.88043 46.5165 0.282771 40.5671 0.292197 34.5097C0.29691 15.4789 15.854 0 34.9694 0C44.2443 0.004692 52.9489 3.59877 59.4998 10.1207C66.0459 16.6425 69.6513 25.3134 69.6465 34.5378C69.6371 53.5639 54.08 69.0475 34.9694 69.0475H34.9552C29.1537 69.0475 23.4512 67.5977 18.3848 64.8482L0 69.6481Z" fill="white"/>
<path id="Vector_3" d="M34.9788 5.82741C19.0823 5.82741 6.15026 18.6929 6.14555 34.5096C6.13613 39.9101 7.66309 45.2027 10.5521 49.7727L11.2401 50.8566L8.3276 61.4417L19.2379 58.5937L20.2935 59.213C24.7189 61.8265 29.7899 63.2106 34.9646 63.2106H34.9741C50.8611 63.2106 63.7885 50.3404 63.7932 34.5284C63.8167 26.9133 60.7817 19.6078 55.3572 14.2355C49.9657 8.83498 42.6277 5.80395 34.9835 5.82272L34.9788 5.82741Z" fill="url(#paint0_linear_102_265)"/>
<path id="Vector_4" fill-rule="evenodd" clip-rule="evenodd" d="M26.3024 20.0817C25.6521 18.646 24.9687 18.6178 24.3513 18.5897L22.6924 18.5709C22.1127 18.5709 21.1749 18.7868 20.3831 19.6501C19.5913 20.5134 17.348 22.6014 17.348 26.8429C17.348 31.0845 20.4538 35.1853 20.8874 35.7624C21.321 36.3395 26.8821 45.3247 35.6904 48.7827C43.0095 51.6542 44.4988 51.0865 46.087 50.9411C47.6752 50.7956 51.2146 48.8531 51.9356 46.8402C52.6567 44.8274 52.6567 43.1007 52.4399 42.7394C52.2231 42.3781 51.6482 42.1623 50.7763 41.7307C49.9044 41.299 45.6487 39.211 44.8569 38.9248C44.0652 38.6386 43.4855 38.4932 42.9058 39.3565C42.3261 40.2198 40.6672 42.1623 40.1629 42.7394C39.6587 43.3165 39.1544 43.3869 38.2872 42.9553C37.4201 42.5236 34.6301 41.6134 31.3216 38.6762C28.7484 36.3912 27.0094 33.5666 26.5004 32.7032C25.9914 31.8399 26.4485 31.3754 26.8821 30.9437C27.2686 30.559 27.7493 29.935 28.1829 29.4329C28.6165 28.9309 28.7578 28.5696 29.05 27.9925C29.3422 27.4153 29.1961 26.9133 28.9793 26.4816C28.7626 26.05 27.0801 21.7849 26.3072 20.0771" fill="white"/>
</g>
<defs>
<linearGradient id="paint0_linear_102_265" x1="34.8185" y1="9.27134" x2="35.1082" y2="58.3169" gradientUnits="userSpaceOnUse">
<stop stop-color="#57D163"/>
<stop offset="1" stop-color="#23B33A"/>
</linearGradient>
<clipPath id="clip0_102_265">
<rect width="70" height="70" fill="white"/>
</clipPath>
</defs>
</svg>
