<svg width="90" height="84" viewBox="0 0 90 84" fill="none" xmlns="http://www.w3.org/2000/svg">
<g id="ico-qr1">
<g id="Group">
<g id="Clip path group">
<mask id="mask0_265_28" style="mask-type:luminance" maskUnits="userSpaceOnUse" x="4" y="1" width="82" height="81">
<g id="SVGID_00000181060160662339320210000007305624062349615290_">
<path id="Vector" d="M85.0435 1.69556H4.95654V81.7825H85.0435V1.69556Z" fill="white"/>
</g>
</mask>
<g mask="url(#mask0_265_28)">
<g id="Group_2">
<path id="Vector_2" d="M12.6522 53.0869H20.3478V60.6521H12.6522V53.0869ZM4.95654 45.5216H27.9131V68.3477H4.95654V45.5216ZM8.73915 64.5651H24V49.3043H8.73915V64.5651ZM64.3044 9.26077H56.6087V16.9564H64.3044V9.26077ZM72 24.5216H48.9131V1.69556H71.8696V24.5216H72ZM68.087 5.47817H52.8261V20.739H68.087V5.47817ZM20.2174 9.26077H12.6522V16.9564H20.3478V9.26077H20.2174ZM27.9131 24.5216H4.95654V1.69556H27.9131V24.5216ZM24.1305 5.47817H8.73915V20.739H24V5.47817H24.1305ZM25.9565 26.9999H5.47828V42.913H8.34785V29.8695H26.087V26.9999H25.9565ZM13.8261 41.8695V34.1738H9.26089V37.0434H10.9565V41.8695H13.8261ZM17.8696 33.5216H30.2609V30.6521H15V42.913H17.8696V33.5216ZM37.9565 33.5216H43.0435V30.6521H37.9565V18.5216H35.087V22.5651H31.3044V25.4347H35.087V41.3477H24.7826V38.3477H21.9131V44.2173H37.9565V33.5216ZM32.7392 9.52164H39.6522V4.95643H44.3478V19.3043H47.2174V2.08686H31.3044V4.95643H36.7826V6.52164H29.8696V15.9129H32.7392V9.52164ZM33.9131 13.0434H39.9131V25.3043H42.7826V10.1738H33.9131V13.0434ZM47.2174 22.6956H44.3478V27.1303H41.3478V29.9999H47.3478V22.6956H47.2174ZM21.2609 37.1738H26.8696V39.1303H29.7392V34.3043H18.3913V42.913H21.2609V37.1738ZM33 26.9999H28.1739V29.8695H33V26.9999ZM32.7392 17.6086H29.8696V20.739H32.7392V17.6086ZM37.5652 17.3477V14.4782H34.6957V17.3477H37.5652ZM30.7826 32.0869V40.6956H33.6522V32.0869H30.7826ZM10.3044 30.6521V33.5216H13.5652V30.6521H10.3044ZM44.3478 65.0869H32.6087V46.6956H29.7392V68.0869H47.2174V59.4782H44.3478V65.0869ZM43.3044 52.6956H34.6957V63.1303H37.5652V55.5651H40.4348V61.3043H43.3044V52.6956ZM39 48.1303H34.6957V50.8695H39V48.1303ZM42.7826 40.6956H39.9131V49.5651H42.7826V40.6956ZM41.3478 38.8695H48.9131V35.9999H41.3478V38.8695ZM47.2174 34.9564V32.0869H44.3478V34.9564H47.2174ZM45.1305 46.5651H53.087V43.6956H45.1305V46.5651ZM39.7826 64.4347H41.7392V61.5651H39.7826V64.4347ZM49.4348 26.6086V40.6956H52.3044V26.6086H49.4348ZM57.6522 26.9999H54.3913V29.8695H57.6522V26.9999ZM61.0435 49.5651V28.4347H58.1739V49.5651H61.0435ZM53.8696 37.826H54.5218V46.5651H57.3913V34.9564H53.8696V37.826ZM57.3913 33.5216V32.0869H54.5218V33.5216H57.3913ZM54.9131 48.1303H45.7826V50.8695H54.9131V48.1303ZM64.4348 30.7825H61.5652V40.1738H64.4348V30.7825ZM71.6087 25.1738H61.5652V28.0434H71.6087V25.1738ZM66.6522 30.6521V33.5216H69V30.6521H66.6522ZM71.6087 34.9564H66.5218V37.826H71.6087V34.9564ZM68.6087 39.2608V40.4347H65.8696V43.3043H71.4783V39.2608H68.6087ZM49.4348 66.5216H50.4783C50.4783 64.9564 50.6087 63.2608 51.1305 61.6956H49.4348V66.5216ZM47.2174 55.1738V53.0869H44.3478V58.0434H52.5652C53.087 56.9999 53.6087 56.0869 54.3913 55.1738H47.2174ZM66.9131 46.5651H71.6087V43.6956H64.0435V48.2608C64.9565 47.9999 66 47.739 66.9131 47.739V46.5651ZM57.6522 51.6521H54.2609V54.5216H54.7826C55.6957 53.3477 56.6087 52.4347 57.6522 51.6521ZM85.0435 66.5216C85.0435 74.9999 78.1305 81.9129 69.6522 81.9129C61.1739 81.9129 54.2609 74.9999 54.2609 66.5216C54.2609 58.0434 61.1739 51.1303 69.6522 51.1303C78.1305 51.1303 85.0435 58.0434 85.0435 66.5216ZM82.1739 66.5216C82.1739 59.6086 76.5652 53.9999 69.6522 53.9999C62.7392 53.9999 57.1305 59.6086 57.1305 66.5216C57.1305 73.4347 62.7392 79.0434 69.6522 79.0434C76.5652 79.0434 82.1739 73.3043 82.1739 66.5216ZM75.1304 60.913H71.087V63.7825H75.1304C76.5652 63.7825 77.8696 64.9564 77.8696 66.3912C77.8696 67.826 76.5652 68.9999 75.1304 68.9999H71.087V71.8695H75.1304C78.1304 71.8695 80.7392 69.3912 80.7392 66.3912C80.6087 63.3912 78.1304 60.913 75.1304 60.913ZM61.5652 66.5216C61.5652 65.0869 62.8696 63.913 64.3044 63.913H68.3478V61.0434H64.3044C61.3044 61.0434 58.6957 63.5216 58.6957 66.5216C58.6957 69.5216 61.1739 71.9999 64.3044 71.9999H68.3478V69.1303H64.3044C62.7391 69.1303 61.5652 67.9564 61.5652 66.5216ZM73.6957 66.5216C73.6957 65.739 73.0435 65.0869 72.2609 65.0869H67.3044C66.5218 65.0869 65.8696 65.739 65.8696 66.5216C65.8696 67.3043 66.5218 67.9564 67.3044 67.9564H72.2609C73.0435 67.9564 73.6957 67.1738 73.6957 66.5216Z" fill="#1B75B4"/>
</g>
</g>
</g>
</g>
</g>
</svg>
