<svg width="90" height="90" viewBox="0 0 90 90" fill="none" xmlns="http://www.w3.org/2000/svg">
<g id="iso-pix1" clip-path="url(#clip0_265_35)">
<g id="Group">
<g id="Clip path group">
<mask id="mask0_265_35" style="mask-type:luminance" maskUnits="userSpaceOnUse" x="0" y="0" width="90" height="90">
<g id="SVGID_00000043428825092069416060000015574620733455646387_">
<path id="Vector" d="M90 0H0V90H90V0Z" fill="white"/>
</g>
</mask>
<g mask="url(#mask0_265_35)">
<g id="Group_2">
<path id="Vector_2" d="M19.8281 68.9063C23.3438 68.9063 26.7188 67.5 29.1094 64.9688L42.6094 51.4687C43.5938 50.4844 45.2812 50.4844 46.125 51.4687L59.625 64.9688C62.1563 67.5 65.3906 68.9063 68.9062 68.9063H71.7187L54.7031 86.0625C49.3594 91.4063 40.6406 91.4063 35.2969 86.0625L18.1406 68.9063H19.8281Z" fill="#4BB8A9"/>
<path id="Vector_3" d="M69.0469 21.0938C65.5312 21.0938 62.1563 22.5 59.625 25.0312L46.125 38.5312C45.1406 39.5156 43.5938 39.5156 42.6094 38.5312L29.1094 25.0312C26.7188 22.5 23.3438 21.0938 19.8281 21.0938H18.1406L35.2969 3.9375C40.6406 -1.40625 49.3594 -1.40625 54.7031 3.9375L71.7187 21.0938H69.0469Z" fill="#4BB8A9"/>
<path id="Vector_4" d="M3.9375 35.2969L14.2031 25.0312H19.8281C22.2188 25.0312 24.6094 26.0156 26.4375 27.7031L39.9375 41.2031C41.2031 42.4688 42.8906 43.0313 44.5781 43.0313C46.2656 43.0313 47.9531 42.4688 49.2188 41.2031L62.7188 27.7031C64.4062 26.0156 66.7969 25.0312 69.3281 25.0312H75.9375L86.2031 35.2969C91.5469 40.6406 91.5469 49.3594 86.2031 54.7031L75.9375 64.9688H69.3281C66.9375 64.9688 64.5469 63.9844 62.7188 62.2969L49.2188 48.7969C46.8281 46.4063 42.4688 46.4063 40.0781 48.7969L26.5781 62.2969C24.8906 63.9844 22.5 64.9688 19.9688 64.9688H14.3438L4.07813 54.7031C-1.40625 49.3594 -1.40625 40.6406 3.9375 35.2969Z" fill="#4BB8A9"/>
</g>
</g>
</g>
</g>
</g>
<defs>
<clipPath id="clip0_265_35">
<rect width="90" height="90" fill="white"/>
</clipPath>
</defs>
</svg>
