<svg width="34" height="32" viewBox="0 0 34 32" fill="none" xmlns="http://www.w3.org/2000/svg">
<g id="Modo_de_aislamiento" clip-path="url(#clip0_102_280)">
<path id="Vector" d="M31.77 10.93L22.18 9.52999L17.89 0.839987C17.52 0.0999873 16.62 -0.210013 15.88 0.159987C15.58 0.309987 15.35 0.549987 15.2 0.839987L10.91 9.52999L1.32001 10.93C0.500014 11.03 -0.0899863 11.78 0.0100137 12.6C0.0500137 12.96 0.220014 13.29 0.490014 13.53L7.43001 20.29L5.79001 29.84C5.70001 30.4 5.93001 30.97 6.39001 31.31C6.65001 31.5 6.95001 31.6 7.27001 31.6C7.51001 31.6 7.76001 31.54 7.97001 31.42L16.57 26.87L25.14 31.38C25.87 31.77 26.78 31.49 27.17 30.76C27.33 30.47 27.38 30.13 27.32 29.8L25.68 20.25L32.57 13.53C33.16 12.95 33.18 12 32.6 11.41C32.37 11.17 32.07 11.02 31.74 10.97L31.77 10.93ZM23 18.65C22.65 19 22.49 19.49 22.57 19.98L23.83 27.31L17.24 23.85C17.03 23.74 16.79 23.68 16.55 23.68C16.31 23.68 16.07 23.74 15.85 23.85L9.26001 27.31L10.57 19.98C10.65 19.49 10.49 19 10.14 18.65L4.81001 13.46L12.17 12.39C12.65 12.3 13.05 11.98 13.25 11.53L16.57 4.89999L19.84 11.53C20.06 11.97 20.48 12.28 20.97 12.35L28.33 13.42L23 18.65Z" fill="#F0A433"/>
</g>
<defs>
<clipPath id="clip0_102_280">
<rect width="33.03" height="31.6" fill="white"/>
</clipPath>
</defs>
</svg>
